/* XPM */
static char *baum3[] = {
/* columns rows colors chars-per-pixel */
"80 80 124 2 ",
"   c None",
".  c #010101",
"X  c #0D0D0C",
"o  c #0E0E0E",
"O  c #101010",
"+  c #111110",
"@  c #111111",
"#  c #131312",
"$  c #131313",
"%  c #141414",
"&  c #151514",
"*  c #151515",
"=  c #161615",
"-  c #171716",
";  c #171717",
":  c #181817",
">  c #181818",
",  c #191918",
"<  c #191919",
"1  c #1A1A19",
"2  c #1A1A1A",
"3  c #1B1B1A",
"4  c #1B1B1B",
"5  c #1C1C1B",
"6  c #1C1C1C",
"7  c #1D1D1C",
"8  c #1D1D1D",
"9  c #1E1E1D",
"0  c #1F1F1E",
"q  c #1F1F1F",
"w  c #20201F",
"e  c #202020",
"r  c #212120",
"t  c #212121",
"y  c #222221",
"u  c #222222",
"i  c #232322",
"p  c #232323",
"a  c #242423",
"s  c #242424",
"d  c #252525",
"f  c #262625",
"g  c #262626",
"h  c #272726",
"j  c #272727",
"k  c #282827",
"l  c #292928",
"z  c #292929",
"x  c #2A2A29",
"c  c #2B2B2A",
"v  c #2C2C2B",
"b  c #2C2C2C",
"n  c #2D2D2C",
"m  c #2D2D2D",
"M  c #2E2E2D",
"N  c #2E2E2E",
"B  c #2F2F2E",
"V  c #302F2F",
"C  c #30302F",
"Z  c #313130",
"A  c #313131",
"S  c #323231",
"D  c #333332",
"F  c #333333",
"G  c #343433",
"H  c #343434",
"J  c #353434",
"K  c #353534",
"L  c #353535",
"P  c #363635",
"I  c #363636",
"U  c #373736",
"Y  c #373737",
"T  c #383837",
"R  c #383838",
"E  c #393938",
"W  c #393939",
"Q  c #3A3A39",
"!  c #3B3B3A",
"~  c #3B3B3B",
"^  c #3C3C3B",
"/  c #3C3C3C",
"(  c #3D3D3C",
")  c #3E3D3D",
"_  c #3E3E3D",
"`  c #3F3F3E",
"'  c #40403F",
"]  c #424241",
"[  c #444443",
"{  c #4E4E4D",
"}  c #4F4F4F",
"|  c #515150",
" . c #525252",
".. c #595858",
"X. c #5A5A5A",
"o. c #5B5B5A",
"O. c #626262",
"+. c #636363",
"@. c #656565",
"#. c #666665",
"$. c #6A6A69",
"%. c #6B6B6A",
"&. c #6B6B6B",
"*. c #6C6C6B",
"=. c #6F6F6E",
"-. c #70706E",
";. c #70706F",
":. c #727272",
">. c #747474",
",. c #777776",
"<. c #787877",
"1. c #7A7A7A",
"2. c #7C7C7B",
"3. c #7D7D7C",
"4. c #7F7F7E",
"5. c #80807F",
"6. c #828281",
"7. c #838382",
"8. c #848483",
"9. c #858584",
"0. c #868685",
"q. c #878786",
"w. c #888886",
"e. c #888887",
/* pixels */
"                                                                                                                                                                ",
"                                                                                                                                                                ",
"                                                                                          .                                                                     ",
"                                                                                          X                                                                     ",
"                                                                                        2 2                                                                     ",
"                                                                                        k c                                                                     ",
"                                                                                        A A                                                                     ",
"                                                                                      s _ A                                                                     ",
"                                                                                    = _ _ _ 2                                                                   ",
"                                                                                    c _ _ _ s                                                                   ",
"                                                                                  2 _ _ _ _ A                                                                   ",
"                                                                                  A _ _ _ _ _ 2                                                                 ",
"                                                                                c _ _ _ _ _ _ c                                                                 ",
"                                                                              s _ _ _ _ _ _ _ _ =                                                               ",
"                                                                            2 _ _ _ _ _ _ _ _ _ s                                                               ",
"                                                                          : A _ _ _ _ _ _ _ _ _ _ =                                                             ",
"                                                                        = A _ _ _ _ _ _ _ _ _ _ _ c                                                             ",
"                                                                      = A _ _ _ _ _ _ _ _ _ _ _ _ _ 2                                                           ",
"                                                                    = A _ _ _ _ _ _ _ _ _ _ _ _ _ _ _ =                                                         ",
"                                                                  = A _ ' _ _ _ _ _ _ _ _ _ _ _ _ _ _ A =                                                       ",
"                                                                2 A _ _ _ _ _ _ _ _ _ _ _ _ _ _ _ _ _ _ C                                                       ",
"                                                              2 A _ _ _ _ _ _ _ _ _ _ _ _ _ _ _ _ _ _ _ _ c                                                     ",
"                                                            2 T ' _ _ _ _ _ _ _ _ _ _ _ _ _ _ _ _ _ _ _ _ _ c                                                   ",
"                                                          s _ _ ' _ _ _ _ _ _ _ _ _ _ _ _ _ _ _ _ _ _ _ _ _ _ C =                                               ",
"                                                        s _ _ _ ' ' _ _ _ _ _ _ _ _ _ _ _ _ _ _ _ _ _ _ _ _ _ _ A :                                             ",
"                                                      c _ _ _ _ _ _ _ _ _ _ _ _ _ _ _ _ _ _ _ _ _ _ _ _ _ _ _ _ _ _ s                                           ",
"                                                    c _ _ _ _ _ _ _ _ _ _ _ _ _ _ _ _ _ _ _ _ _ _ _ _ A _ _ _ _ _ _ _ c =                                       ",
"                                                = A _ _ _ _ _ _ _ _ _ _ _ _ _ _ _ _ _ _ _ _ _ _ _ _ _ = = 2 s k c c c s =                                       ",
"                                              = A _ _ _ _ A A C c s A _ _ _ _ _ _ _ _ _ _ _ _ _ _ ' _ s                                                         ",
"                                              w c s 2 2           = _ _ _ _ _ _ _ _ _ _ _ _ _ _ _ ' _ A                                                         ",
"                                                                  A _ _ _ _ _ _ _ _ _ _ _ _ _ _ _ _ _ _ 2                                                       ",
"                                                                c _ _ _ _ _ _ _ _ _ _ _ _ _ _ _ _ _ _ _ c                                                       ",
"                                                              c _ _ _ _ _ _ _ _ _ _ _ _ _ _ _ _ _ _ _ _ T =                                                     ",
"                                                            s _ _ _ ' _ _ _ _ _ _ _ _ _ _ _ _ _ _ _ _ _ _ k                                                     ",
"                                                          s _ _ _ _ ' _ _ _ _ _ _ _ _ _ _ _ _ _ _ _ _ _ _ T =                                                   ",
"                                                        w _ _ _ _ _ ' ' _ _ _ _ _ _ _ _ _ _ _ _ _ _ _ _ _ _ c                                                   ",
"                                                      2 T _ _ _ _ _ _ _ _ _ _ _ _ _ _ _ _ _ _ _ _ _ _ _ _ _ _ 2                                                 ",
"                                                    2 A _ _ _ _ _ _ _ _ _ _ _ _ _ _ _ _ _ _ _ _ _ _ _ _ _ _ _ C                                                 ",
"                                                  = A _ _ _ _ _ _ _ _ _ _ _ _ _ _ _ _ _ _ _ _ _ _ _ _ _ _ _ _ _ s                                               ",
"                                                = A _ _ _ _ _ _ _ _ _ _ _ _ _ _ _ _ _ _ _ _ _ _ _ _ _ _ _ _ _ _ _ 2                                             ",
"                                                A _ _ _ _ _ _ _ _ _ _ _ _ _ _ _ _ _ _ _ _ _ _ _ _ _ _ _ _ _ ' ' _ A                                             ",
"                                              c _ _ _ _ _ _ _ _ _ _ _ _ _ _ _ _ _ _ _ _ _ _ _ _ _ _ _ _ _ _ _ _ _ _ c                                           ",
"                                            s _ _ _ _ _ _ _ _ _ _ _ _ _ _ _ _ _ _ _ _ _ _ _ _ _ _ _ _ _ _ _ _ _ _ _ _ s                                         ",
"                                          2 _ _ _ _ _ _ _ _ _ _ _ _ _ _ _ _ _ _ _ _ _ _ _ _ _ _ _ _ _ _ _ _ _ _ _ _ _ _ s                                       ",
"                                          A _ _ _ _ _ _ _ _ _ _ _ _ _ _ _ _ _ _ _ _ _ _ _ _ _ _ _ _ _ _ _ _ _ _ _ _ _ _ _ s                                     ",
"                                        c _ _ _ _ _ _ _ _ _ _ _ _ _ _ _ _ _ _ _ _ _ _ _ _ _ _ _ _ _ _ _ _ _ _ _ _ _ _ A A s                                     ",
"                                      2 _ _ _ _ _ _ _ _ _ _ _ _ _ _ _ _ _ _ _ _ _ _ _ _ _ _ _ _ _ _ _ _ A A A A c s 2                                           ",
"                                      c _ _ _ _ _ _ _ _ _ _ _ _ _ _ _ _ _ _ _ _ _ _ _ _ _ _ _ _ _ _ _ s                                                         ",
"                                    2 _ _ _ _ _ _ _ _ _ _ _ _ _ _ _ _ _ _ _ _ _ _ _ _ _ _ _ _ _ _ _ _ A                                                         ",
"                                    c _ _ _ _ _ _ _ _ _ _ _ _ _ _ _ _ _ _ _ _ _ _ _ _ _ _ _ _ _ _ _ _ _ 2                                                       ",
"                                    T _ _ _ _ T A c s 2 w _ _ _ _ _ _ _ _ _ _ _ _ _ _ _ _ _ _ _ _ _ _ _ A                                                       ",
"                                  : A C c s 2           c _ _ _ _ _ _ _ _ _ _ _ _ _ _ _ _ _ _ _ _ _ _ ' _ k                                                     ",
"                                                      s _ _ _ _ _ _ _ _ _ _ _ _ _ _ _ _ _ _ _ _ _ _ _ _ _ _ s                                                   ",
"                                                      A _ _ _ _ _ _ _ _ _ _ _ _ _ _ _ _ _ _ _ _ _ _ _ _ _ _ _ 2                                                 ",
"                                                    c _ _ _ _ _ _ _ _ _ _ _ _ _ _ _ _ _ _ _ _ _ _ _ _ _ _ _ _ _ s                                               ",
"                                                  2 _ _ _ _ _ _ _ _ _ _ _ _ _ _ _ _ _ _ _ _ _ _ _ _ _ _ _ _ _ _ _ c =                                           ",
"                                                  A _ _ _ _ _ _ _ _ _ _ _ _ _ _ _ _ _ _ _ _ _ _ _ _ _ _ _ _ _ _ _ _ _ k =                                       ",
"                                                w _ _ _ _ _ _ _ _ _ _ _ _ _ _ _ _ _ _ _ _ _ _ _ _ _ _ _ _ _ _ _ _ _ _ _ c =                                     ",
"                                                A _ _ _ _ _ _ _ _ _ _ _ _ _ _ _ _ _ _ _ _ _ _ _ _ _ _ _ _ _ _ _ A c s 2                                         ",
"                                              s _ _ _ _ _ _ _ _ _ _ _ _ _ _ _ _ _ _ _ _ _ _ _ _ ' _ _ _ A A s 2                                                 ",
"                                              A _ _ _ _ _ _ _ _ _ _ _ _ _ _ _ _ _ _ _ _ _ _ _ T A c s 2                                                         ",
"                                            s _ _ _ _ _ _ _ _ _ _ _ _ _ _ _ _ _ _ _ _ _ c s 2                                                                   ",
"                                            A _ _ _ _ _ _ _ _ _ _ T _ _ _ A _ [ } X.+.*.A                                                                       ",
"                                          s _ _ _ A A c k s 2 2   X  .*.,.8.8.8.8.8.8.8.A                                                                       ",
"                                          2 2 2                     2.8.8.8.w.w.w.w.w.8.A                                                                       ",
"                                                                  [ 8.8.8.8.w.w.w.w.w.2.                                                                        ",
"                                                                  X.8.w.8.8.8.w.8.8.8.,.                                                                        ",
"                                                                  ,.8.w.8.8.8.w.8.8.8.*.                                                                        ",
"                                                                  2.w.w.w.w.w.w.8.8.w.*.                                                                        ",
"                                                                _ 8.w.w.w.w.w.w.8.8.w.+.                                                                        ",
"                                                                 .8.8.8.8.8.w.w.8.w.w.X.                                                                        ",
"                                                                *.8.8.8.8.8.w.w.8.w.w.}                                                                         ",
"                                                                2.w.w.w.w.w.w.w.8.8.8._                                                                         ",
"                                                              A 5.w.w.w.8.w.8.8.8.8.8.C                                                                         ",
"                                                              [ 8.w.8.8.8.8.8.8.8.8.2.                                                                          ",
"                                                               .w.8.8.8.8.8.8.8.8.8.-.                                                                          ",
"                                                              +.8.8.8.8.8.8.8.8.8.w.+.                                                                          ",
"                                                              -.w.w.8.8.w.w.                                                                                    ",
"                                                                                                                                                                ",
"                                                                                                                                                                "
};
