/* XPM */
static char *baum1[] = {
/* columns rows colors chars-per-pixel */
"80 80 110 2 ",
"   c None",
".  c #151514",
"X  c #161616",
"o  c #171717",
"O  c #181817",
"+  c #191919",
"@  c #1A1A19",
"#  c #1A1A1A",
"$  c #1B1B1B",
"%  c #1C1C1C",
"&  c #1D1D1C",
"*  c #1D1D1D",
"=  c #1E1E1D",
"-  c #1E1E1E",
";  c #1F1F1E",
":  c #1F1F1F",
">  c #20201F",
",  c #202020",
"<  c #212120",
"1  c #212121",
"2  c #222221",
"3  c #222222",
"4  c #232322",
"5  c #232323",
"6  c #242423",
"7  c #242424",
"8  c #252524",
"9  c #252525",
"0  c #262625",
"q  c #272726",
"w  c #272727",
"e  c #282827",
"r  c #282828",
"t  c #292928",
"y  c #292929",
"u  c #2A2A29",
"i  c #2A2A2A",
"p  c #2B2B2A",
"a  c #2B2B2B",
"s  c #2C2C2B",
"d  c #2C2C2C",
"f  c #2D2D2C",
"g  c #2D2D2D",
"h  c #2E2E2D",
"j  c #2E2E2E",
"k  c #2F2F2E",
"l  c #2F2F2F",
"z  c #30302F",
"x  c #303030",
"c  c #313130",
"v  c #313131",
"b  c #323231",
"n  c #323232",
"m  c #333332",
"M  c #333333",
"N  c #343433",
"B  c #353534",
"V  c #353535",
"C  c #363635",
"Z  c #373735",
"A  c #363636",
"S  c #373736",
"D  c #383837",
"F  c #393938",
"G  c #3A3A39",
"H  c #3A3A3A",
"J  c #3B3B3A",
"K  c #3C3C3B",
"L  c #3C3C3C",
"P  c #3D3D3C",
"I  c #3E3E3D",
"U  c #3E3E3E",
"Y  c #3F3F3E",
"T  c #40403F",
"R  c #404040",
"E  c #444443",
"W  c #474747",
"Q  c #484848",
"!  c #494948",
"~  c #4B4B4B",
"^  c #545454",
"/  c #565655",
"(  c #5A5A59",
")  c #5B5B5B",
"_  c #5C5C5B",
"`  c #5E5E5D",
"'  c #5E5E5E",
"]  c #666565",
"[  c #696868",
"{  c #6C6C6B",
"}  c #6E6E6D",
"|  c #6F6F6E",
" . c #70706F",
".. c #727271",
"X. c #747473",
"o. c #747474",
"O. c #757574",
"+. c #767675",
"@. c #777776",
"#. c #797978",
"$. c #7A7A79",
"%. c #7B7B7A",
"&. c #7D7D7C",
"*. c #7F7F7E",
"=. c #80807F",
"-. c #818180",
";. c #828281",
":. c #858584",
">. c #868685",
",. c #878786",
/* pixels */
"                                                                                                                                                                ",
"                                                                                                                                                                ",
"                                                                                                                                                                ",
"                                                                                                                                                                ",
"                                                                              *                                                                                 ",
"                                                                            8 P 8                                                                               ",
"                                                                            S P D                                                                               ",
"                                                                          8 P P P p                                                                             ",
"                                                                        * P T T T P *                                                                           ",
"                                                                        S P T T T T S                                                                           ",
"                                                                      p P P P P P P P p                                                                         ",
"                                                                    8 P P P P P P P P P 8                                                                       ",
"                                                                    S P P P P T P P T T S                                                                       ",
"                                                                  S P P P P P T P P T T P p                                                                     ",
"                                                                p P P P T T T T P P P T T P *                                                                   ",
"                                                              8 P P P P T T T T P P P P T P S                                                                   ",
"                                                            8 P T T T T P P T T P P P P T P P p                                                                 ",
"                                                          8 P P T T T P P P P T P P P P T P P P 8                                                               ",
"                                                        8 P P P T T P P P P T T P P T P T T P P P *                                                             ",
"                                                      p P P P P T T P P P P T T P P T T T T P P P S                                                             ",
"                                                    p P T T P P T P P P P T T T P T T T T P P P P P S                                                           ",
"                                                  S P P T P P P P P P P P P T T T T T T T T P P P P P S *                                                       ",
"                                              * D P T T P P P P P P P P P P P P P P T T T T T T P P P P P 8                                                     ",
"                                            p P P T T T T T P P T P P P P P P P P T T T T T T T P P P P T P p                                                   ",
"                                        * S P P P P P P P P P P T T P P P P P P T T T T T P P T T T T P P P P S *                                               ",
"                                          * p p p p p p z S P P T T P P P P P P T T T T P P P P P T T P P P P P P p *                                           ",
"                                                            S P T T T P T T P T T T P P P P P P P P T P P P P P P P p                                           ",
"                                                          * P P T T T T T T T T T P P P P P P P P P p S S S S S 8                                               ",
"                                                          S P P T T T T T T T P P P P P P P P P P P .                                                           ",
"                                                        8 P P P T T T T T T P P P P P P T P P P P P p                                                           ",
"                                                        S P P P T T P T P P P P T P T T T T P P P P D                                                           ",
"                                                      8 P P P P P T P P P P P P T T T T T T P P P P P 8                                                         ",
"                                                      P T P P P P P T T T T T T P P P P P P T T T P P S                                                         ",
"                                                    p P T P P P P P T P T T T T P T P P P P T T T T P P                                                         ",
"                                                  8 P T T T P P P P P P P P T P T T T T P T T T P P P P 8                                                       ",
"                                                  S T T T T P P P P P P P P P P T T T T P P T T P P P P S                                                       ",
"                                                p P P P T T P P P P P P P P P P P P P T T T T T P P T T P                                                       ",
"                                              8 P P P P T T P P P P P P P P T P P P T T T T T T P P T T P p                                                     ",
"                                            * P P P P P T T T T P P T P T T T T P P P P T T P T P T T T P S                                                     ",
"                                          * P T T P P P T T T T P P T T T T T T P P P P P T P P P P T T P P *                                                   ",
"                                        * S P P T T T T T T P P P T T T T T T T T P P P P P P P T T P P P P S                                                   ",
"                                      * D P P P T T T T P P P P T T T T T T T T P P P P P P P P T T T P P T P *                                                 ",
"                                    8 P P P P P P T P P P P P P P P T T T T P P P P P P P P T T T T P P P T P S                                                 ",
"                                  p P P P P P P P P P P P P P P P T T T T P P P T P P P P T T T T T P P P P P P e                                               ",
"                              * S P P P P T T T P P P P P P P T P P T T T T P P T T P P P P T T T P P P P T T P P 8                                             ",
"                                * 8 S P P P P T P P P P P P P T P P T T T T P P T T P P P P T T T P P P P P P P P P 8                                           ",
"                                          8 8 8 p z S S S P T T P P P T T P P P T T T P P P P T P P P P P P P P P P P 8                                         ",
"                                                        O P T T P P P P T T P P T T T T P P T T P P P P 8 p D P P P P P 8                                       ",
"                                                        S P T T P P P P T T T P T T T T P P P P P T T P p     > p p p *                                         ",
"                                                      p P P T T P P P P T T T P T T T T P P P P T T T T P 8                                                     ",
"                                                    8 P P P P P P P P P T T P P T T T T P P T T P T P P P S                                                     ",
"                                                    S P P P P P P P T T T T P P P P P P P P T T P T T P T P e                                                   ",
"                                                  p P P P P P P T T T T P P P P P P P P T T T T P P T T T T D                                                   ",
"                                                  P P P P P T T T T T T P P P P P P P P T T T T P P T T T T P e                                                 ",
"                                                p P P P T T T T P P T T T T T T T T P P P P P P P T T P P P P P                                                 ",
"                                              O P P P P T T T T P P T T T T T T T T P P P P P P P P T P P P P P p                                               ",
"                                              S P P P P T T P P P P T T T T T T P P P T T T P P P P P P T T T P P *                                             ",
"                                            p P P P P T P T P P P P T T T T P P P P P T T T P P P P P P T T T P P S                                             ",
"                                          z P P P P T T P P P P P P P T P P P P P P P P T T T P P P P P T T P P P P p                                           ",
"                                      e P P P P P P T T T T P P P P P T P P P P P P P P T T T P P P T T T T P P P P P 8                                         ",
"                              * p S P P P P P P P T T T P P P P P P P P P P P P P P P P P P P P T T T T P P P P T P P P 8                                       ",
"                            * S P T P P P P P P P P T T P P P D S p p 8 8 ! _ _ _ _ _ / ! p p S P P T T P P P P T P P P P p                                     ",
"                                8 p S P P P P P P P S z p 8 .             X.,.,.,.,.,.,.X.        > p S D P P P T T P P P P S *                                 ",
"                                      * 8 p p e *                         | ,.,.,.,.,.,.X.                * 8 S P P P P P P P P p                               ",
"                                                                          | ,.,.,.,.,.,.X.                            8 8 8 8 8 *                               ",
"                                                                          ] ,.,.,.,.,.,.X.                                                                      ",
"                                                                          / ,.,.,.,.,.,.#.                                                                      ",
"                                                                          T ,.,.,.,.,.,.%.                                                                      ",
"                                                                          p ,.,.,.,.,.,.%.                                                                      ",
"                                                                            ,.,.,.,.,.,.%.                                                                      ",
"                                                                            %.,.,.,.,.,.%.                                                                      ",
"                                                                            X.,.,.,.,.,.=.W                                                                     ",
"                                                                            X.,.,.,.,.,.,.W                                                                     ",
"                                                                            | ,.,.,.,.,.,.W                                                                     ",
"                                                                            | ,.,.,.,.,.,.!                                                                     ",
"                                                                            | ,.,.,.,.,.,.!                                                                     ",
"                                                                                                                                                                ",
"                                                                                                                                                                ",
"                                                                                                                                                                ",
"                                                                                                                                                                "
};
