/* XPM */
static char *baum2[] = {
/* columns rows colors chars-per-pixel */
"80 80 45 1 ",
"  c None",
". c #10100D",
"X c #191B0F",
"o c #121210",
"O c #1F2410",
"+ c #212515",
"@ c #242916",
"# c #292E16",
"$ c #222419",
"% c #262A19",
"& c #2A2E1C",
"* c #2D311E",
"= c #2B2D21",
"- c #2E3222",
"; c #313622",
": c #353A24",
"> c #383D27",
", c #373B28",
"< c #3A3E29",
"1 c #3D3D3C",
"2 c #3D422C",
"3 c #3F4430",
"4 c #41452F",
"5 c #424630",
"6 c #464A33",
"7 c #494D36",
"8 c #4B4F38",
"9 c #4E513A",
"0 c #51543E",
"q c #454544",
"w c #535740",
"e c #555942",
"r c #585B46",
"t c #52524D",
"y c #5B5E49",
"u c #535353",
"i c #585857",
"p c #5B5B5B",
"a c #646463",
"s c #6A6A69",
"d c #6F7165",
"f c #747473",
"g c #7B7B7A",
"h c #82837C",
"j c #878786",
/* pixels */
"                                                                                ",
"                                                                                ",
"                                       &                                        ",
"                                      &6;                                       ",
"                                      276%                                      ",
"                                     ;799:                                      ",
"                                    &60966;                                     ",
"                                    >790082@                                    ",
"                                   :7997797:                                    ",
"                                  *698099709*                                   ",
"                                  28797670772                                   ",
"                                 269797909797:                                  ",
"                                :7799989097e97*                                 ",
"                               *699867909769995                                 ",
"                              -9000990890076999:                                ",
"                             %6089797w989999w999*                               ",
"                            =497799800708990w0894%                              ",
"                           &496978007998w088077972                              ",
"                          ;489880879987708770770792                             ",
"                         >7977799767e77999860989909>                            ",
"                        :79760997996089w0999988999872%                          ",
"                      &67998008990e89009700999w00w0982&                         ",
"                     :69w997998779w97897790997079w99064*                        ",
"                   $>679998699009790667996777699679696972&                      ",
"                    %:22>254548996798999709798077997009998:$                    ",
"                             *4970797w897998996779w76979964:X                   ",
"                             2997778998790797799894225422:&                     ",
"                            *6w889999779009767we78>                             ",
"                            :6977009077999897700976@                            ",
"                           *67787900w00979907770986;                            ",
"                           >797977677779008900709992                            ",
"                          &40w9999997678967099797698*                           ",
"                          690069799we998779009977787:                           ",
"                         :997997779999e76999997609996                           ",
"                        *6798789877999987987909699880&                          ",
"                        26709799899797890779998999797:                          ",
"                       >7067809989w7979000977870897802                          ",
"                      ;8079099998799990079077078078787*                         ",
"                     &879879899779w9007997877w09909908>                         ",
"                    %4776808997077909797886980960099975%                        ",
"                   &69w0776790096559079709w099099079908;                        ",
"                  &4989900090877789980969979999797996886&                       ",
"                 ;677899079979908790099007669878w97088992                       ",
"                >8907989999980009700978998709979989089998;                      ",
"              =36997707w989760907700977e977e09707679997674&                     ",
"              =::467799777077967990870909799997899989988895%                    ",
"                  @*:524556668999997797099999989999789099086&                   ",
"                           @:9079e8977777979897998894:847e776&                  ",
"                           &699969600677690w909996805@O*>264>-                  ",
"                           29067886779w09999870w07577:                          ",
"                          ;6907690998w9790999790007008*                         ",
"                         -67897867e9977897987907099909>                         ",
"                         588790997979799667969w86600779;                        ",
"                        ;6899097909809989w79790099999076$                       ",
"                        6986799799998w88w908700997777800>                       ",
"                       ;779977979776779679006008790999794@                      ",
"                      %7980008069w0789006799899897997w9w6>                      ",
"                      >96990we0779990999777e98980787996778;                     ",
"                     :6077789907989979000999780999979070982$                    ",
"                   %2778976990770787769999878769e97799e9976>                    ",
"                 $*27799w97960960909779996699769700887076w96:                   ",
"              $;:58000997077790789780966767w99999679780909806-                  ",
"            o;5879990w997898767722::;6eyerry985566999999077096:                 ",
"              %&46996897766:#$%      djjjjjjh8   &;>6679790w7872%               ",
"                 &;:>22:-%           sjjjjjjjt       &;>246979992:$             ",
"                                     sjjjjjjju           @*;:252>>-.            ",
"                                     ajjjjjjju                                  ",
"                                     pjjjjjjju                                  ",
"                                     ujjjjjjjp                                  ",
"                                     qjjjjjjjp                                  ",
"                                     1jjjjjjjp                                  ",
"                                      hjjjjjja                                  ",
"                                      gjjjjjja                                  ",
"                                      fjjjjjja                                  ",
"                                      fjjjjjja                                  ",
"                                      fjjjjjjs                                  ",
"                                      sjjjjjjs                                  ",
"                                      ajjjjjjs                                  ",
"                                                                                ",
"                                                                                "
};
