/* XPM */
static char *bg[] = {
/* columns rows colors chars-per-pixel */
"80 80 41 1 ",
"  c #000000",
". c #010101",
"X c #020202",
"o c #030303",
"O c #040404",
"+ c #050505",
"@ c #060606",
"# c #070707",
"$ c #080808",
"% c #090909",
"& c #0A0A0A",
"* c #0B0B0B",
"= c #0C0C0C",
"- c #0D0D0D",
"; c #0E0E0E",
": c #0F0F0F",
"> c #101010",
", c #111111",
"< c #121212",
"1 c #131313",
"2 c #141414",
"3 c #151515",
"4 c #161616",
"5 c #171717",
"6 c #181818",
"7 c #191919",
"8 c #1A1A1A",
"9 c #1B1B1B",
"0 c #1C1C1C",
"q c #1D1D1D",
"w c #1E1E1E",
"e c #1F1F1F",
"r c #202020",
"t c #212121",
"y c #222222",
"u c #232323",
"i c #242424",
"p c #252525",
"a c #262626",
"s c #272727",
"d c #282828",
/* pixels */
"           &&,,666rrdrrr666,,&&                             &&,,666rrddrr666,,&&",
"            &&&,,66rrrdrrr66,,,&&                             &&,,666rrddrr66,,,",
"              &&,,,66rrddrrr66,,&&&                            &&,,,66rrrdrrr66,",
"                &&,,,66rrddrr666,,&&                             &&,,,66rrddrr66",
"                 &&&,,66rrrdrrr66,,,&&                             &&,,,66rrddrr",
"                   &&&,,66rrrdrrr66,,&&&                            &&&,,66rrrdr",
"                     &&,,666rrddrr666,,&&                             &&,,,66rrr",
"                       &&,,666rrddrr66,,,&&                             &&,,,66r",
"                        &&&,,666rrdrrr66,,,&&                             &&,,,6",
"                          &&,,,66rrrdrrr66,,&&&                            &&&,,",
"                            &&,,,66rrrdrr666,,&&                             &&&",
"&                             &&,,666rrddrr66,,,&&                             &",
"&&&                             &,,,66rrrdrrr66,,&&&                            ",
",,&&                             &&,,,66rrddrr666,,&&                           ",
"6,,,&&                             &&,,666rrddrr66,,,&&                         ",
"r66,,&&&                            &&&,,66rrrdrrr66,,&&&                       ",
"rrr66,,&&&                            &&,,,66rrrdrrr66,,,&&                     ",
"drrr666,,&&                             &&,,,66rrrdrrr66,,&&&                   ",
"rrddrr66,,,&&                             &&,,,66rrddrr666,,&&                  ",
"6rrrdrrr66,,&&&                            &&&,,66rrrddrr66,,&&&                ",
",66rrrdrr666,,&&&                            &&&,,66rrrdrrr66,,&&&              ",
",,666rrddrr666,,&&                             &&,,666rrddrr666,,&&             ",
"&&,,66rrrdrrr66,,,&&                            &&&,,666rrddrr66,,,&&           ",
" &&,,,66rrrdrrr66,,&&                             &&&,,66rrrdrrr66,,&&&         ",
"   &&,,,66rrddrr666,,&&&                            &&&,,66rrrdrrr66,,&&&       ",
"     &&,,666rrddrr66,,,&&                             &&,,666rrddrr666,,&&      ",
"       &&,,66rrrdrrr66,,&&&                             &&,,666rrdrrr666,,&&    ",
"        &&,,,66rrrdrrr66,,&&&                            &&&,,66rrrdrrr66,,&&&  ",
"          &&,,,66rrddrr666,,&&                             &&,,,66rrddrr666,,&&&",
"           &&&,,666rrddrr66,,,&&                            &&&,,666rrddrr666,,&",
"             &&&,,66rrrdrrr66,,,&&                            &&&,,66rrrdrrr66,,",
"               &&,,,66rrddrr666,,&&                             &&,,,66rrrdrrr66",
"                 &&,,,66rrddrr666,,&&                             &&,,,66rrrdrrr",
"                  &&&,,66rrrddrr66,,,&&                             &&,,666rrddr",
"                    &&&,,66rrrdrrr66,,&&&                            &&&,,666rrd",
"                      &&,,,66rrrdrr666,,&&&                            &&,,,66rr",
"                        &&,,666rrddrr666,,&&                             &&,,,66",
"                         &&&,,66rrrdrrr66,,,&&                            &&&,,6",
"                           &&&,,66rrrdrrr66,,&&&                            &&&,",
"                             &&,,666rrddrr666,,&&                             &&",
"&&                             &&,,666rrddrr66,,,&&                             ",
",&&&                            &&&,,66rrrdrrr66,,,&&                           ",
"6,,&&&                            &&&,,66rrrdrrr66,,&&&                         ",
"66,,,&&                             &&,,666rrddrr666,,&&                        ",
"rr66,,&&&                             &&,,666rrdrrr66,,,&&                      ",
"drrr66,,&&&                            &&,,,66rrrdrrr66,,,&&                    ",
"rddrr666,,&&                             &&,,,66rrddrr666,,&&                   ",
"rrrdrrr66,,,&&                             &&,,,66rrddrr66,,,&&                 ",
"66rrrdrrr66,,,&&                             &&,,66rrrddrr66,,,&&               ",
",,66rrrdrrr66,,&&&                            &&,,,66rrrdrrr66,,&&&             ",
"&,,,66rrddrr666,,&&&                            &&,,,66rrddrr666,,&&            ",
"&&&,,666rrddrr66,,,&&                            &&&,,666rrddrr666,,&&          ",
"  &&&,,66rrrdrrr66,,&&&                            &&&,,66rrrdrrr66,,,&&        ",
"    &&,,666rrrdrr666,,&&                             &&&,,66rrrdrrr66,,&&&      ",
"      &&,,666rrddrr666,,&&                             &&,,666rrddrr666,,&&     ",
"       &&&,,66rrrdrrr66,,&&&                             &&,,66rrrddrr66,,&&&   ",
"         &&&,,66rrrdrrr66,,&&&                            &&&,,66rrrdrrr66,,,&& ",
"           &&,,,66rrddrr666,,&&&                            &&,,,66rrrdrr666,,&&",
"             &&,,666rrddrr666,,&&                             &&,,,66rrddrr666,,",
"              &&&,,66rrrdrrr66,,&&&                             &&,,66rrrdrrr666",
"                &&&,,66rrddrrr66,,&&                             &&&,,66rrrdrrr6",
"                  &&,,666rrddrr66,,,&&                             &&,,,66rrddrr",
"                   &&&,,66rrrddrr66,,,&&                             &&,,666rrrd",
"                     &&,,,66rrrdrrr66,,&&&                            &&&,,666rr",
"                       &&&,,66rrrdrrr66,,&&&                            &&&,,66r",
"                         &&,,,66rrddrr666,,&&                             &&,,,6",
"                           &&,,666rrddrr66,,,&&                             &&,,",
"                            &&&,,66rrrdrrr66,,&&&                            &&&",
"&                             &&,,,66rrrdrr666,,&&                             &",
",&&                            &&&,,666rrddrr666,,&&                            ",
",,&&&                            &&&,,66rrrdrrr66,,&&&                          ",
"66,,&&                             &&,,,66rrrdrrr66,,&&&                        ",
"r66,,,&&                             &&,,,66rrrdrr666,,&&&                      ",
"rrr66,,,&&                             &&,,666rrddrr666,,&&                     ",
"rdrrr66,,&&&                            &&,,,666rrdrrr66,,,&&                   ",
"rrddrr666,,&&&                            &&,,,66rrrdrrr66,,&&&                 ",
"6rrrdrrr66,,,&&                             &&,,666rrddrr666,,&&                ",
",66rrrdrrr66,,,&&                            &&&,,666rrdrrr66,,,&&              ",
",,,66rrddrrr66,,&&                             &&,,,66rrrdrrr66,,&&&            ",
"&&,,,66rrddrr666,,&&                             &&,,,66rrddrr666,,&&&          "
};
