/* XPM */
static char *bg2[] = {
/* columns rows colors chars-per-pixel */
"80 80 20 1 ",
"  c black",
". c #010101",
"X c #020202",
"o c #040404",
"O c #070707",
"+ c #080808",
"@ c #0B0B0B",
"# c #0E0E0E",
"$ c gray6",
"% c #121212",
"& c #141414",
"* c #161616",
"= c #181818",
"- c #1B1B1B",
"; c #1C1C1C",
": c #1F1F1F",
"> c #212121",
", c #232323",
"< c #252525",
"1 c #262626",
/* pixels */
"          ++*;,,,;*+               +*;;,,;**+               +*;,,,;*++          ",
"          ++*;,,,;*+               +*;;,,;**+               +*;,,,;**+          ",
"          ++*;,1,;*+               +*;,,,;;*+               +*;,,,;**+          ",
"          ++*;,1,;*+               +*;;,,;;*+               +*;,,,;**+          ",
"          +**;,,,;*+               +*;;,,;;*+               +*;,1,;*++          ",
"          +**;,,,;*+               +*;;,,,;*+               +*;,1,;*++          ",
"          +**;,,,;*+               +**;,,,;*+               +*;,,,;*++          ",
"          ++*;,,,;*++              +**;,,;;*+               +*;,,,;*++          ",
"          ++*;,,,;*+               +*;;,,;**+              ++*;,,,;*++          ",
"          ++*;,,,;*+               +*;;,,;;*+               +*;,,,;**+          ",
"          ++*;,1,;*+               +*;;,,;;*+               +*;,,,;**+          ",
"          ++*;,1,;*+               +*;;,,;;*+               +*;,,,;**+          ",
"          +**;,,,;*+               +*;;,,;;*+               +*;,1,;*++          ",
"          +**;,,,;*+               +*;;,,;;*+               +*;,1,;*++          ",
"          +**;,,,;*+               +*;,,,;;*+               +*;,,,;*++          ",
"          ++*;,,,;*+               +*;;,,;;*+               +*;,,,;*++          ",
"          +**;,,,;*+               +*;;,,;;*+               +*;,,,;*++          ",
"          +**;,,,;*+               +*;;,,,;*+               +*;,,,;**+          ",
"          ++*;,,,;*++              +*;;,,;;*+               +*;,,,;**+          ",
"          ++*;,,,;*++              +*;;,,;;*+               +*;,,,;**+          ",
"          ++*;,,,;*++              +*;;,,;;*+               +*;,1,;*++          ",
"          ++*;,,,;*++              +*;;,,;;*+               +*;,1,;*++          ",
"          +**;,,,;*+               +*;;,,;;*+               +*;,,,;*++          ",
"          +**;,,,;*+               +**;,,;;*+               +*;,,,;*++          ",
"          ++*;,,,;*+               +*;;,,;**+              ++*;,,,;*++          ",
"          ++*;,,,;*+               +*;,,,;**+               +*;,,,;**+          ",
"          ++*;,,,;*+               +*;,,,;;*+               +*;,,,;**+          ",
"          ++*;,,,;*++              +*;;,,;;*+               +*;,,,;**+          ",
"          ++*;,,,;*+               +*;;,,;;*+               +*;,1,;*++          ",
"          ++*;,,,;*+               +*;;,,,;*+               +*;,1,;*++          ",
"          ++*;,1,;*+               +**;,,;;*+               +*;,,,;*++          ",
"          +**;,,,;*+               +**;,,;;*+               +*;,,,;*++          ",
"          ++*;,,,;*++              +*;;,,;**+               +*;,,,;*++          ",
"          +**;,,,;*+               +*;;,,;**+               +*;,,,;**+          ",
"          +**;,,,;*+               +*;,,,;;*+               +*;,,,;**+          ",
"          +**;,,,;*+               +*;;,,;;*+               +*;,,,;**+          ",
"          +**;,,,;*+               +*;;,,;;*+               +*;,1,;*++          ",
"          ++*;,,,;*+               +*;;,,,;*+               +*;,1,;*++          ",
"          ++*;,,,;*+               +**;,,,;*+               +*;,,,;*++          ",
"          ++*;,,,;*+               +**;,,;;*+               +*;,,,;*++          ",
"          +**;,,,;*+               +*;;,,;**+              ++*;,,,;*++          ",
"          +**;,,,;*+               +*;;,,;;*+               +*;,,,;**+          ",
"          ++*;,,,;*++              +*;;,,;;*+               +*;,,,;**+          ",
"          ++*;,,,;*++              +*;;,,;;*+               +*;,,,;**+          ",
"          ++*;,,,;*++              +*;;,,;;*+               +*;,1,;*++          ",
"          ++*;,,,;*++              +*;;,,;;*+               +*;,1,;*++          ",
"          +**;,,,;*+               +*;,,,;;*+               +*;,,,;*++          ",
"          +**;,,,;*+               +*;;,,;;*+               +*;,,,;*++          ",
"          ++*;,,,;*+               +*;;,,;;*+               +*;,,,;*++          ",
"          ++*;,,,;*+               +*;;,,,;*+               +*;,,,;**+          ",
"          ++*;,1,;*+               +*;;,,;;*+               +*;,,,;**+          ",
"          ++*;,1,;*+               +*;;,,;;*+               +*;,,,;**+          ",
"          +**;,,,;*+               +*;;,,;;*+               +*;,1,;*++          ",
"          +**;,,,;*+               +*;;,,;;*+               +*;,1,;*++          ",
"          +**;,,,;*+               +*;;,,;;*+               +*;,,,;*++          ",
"          ++*;,,,;*++              +**;,,;;*+               +*;,,,;*++          ",
"          ++*;,,,;*+               +*;;,,;**+              ++*;,,,;*++          ",
"          ++*;,,,;*+               +*;,,,;**+               +*;,,,;**+          ",
"          ++*;,1,;*+               +*;,,,;;*+               +*;,,,;**+          ",
"          ++*;,1,;*+               +*;;,,;;*+               +*;,,,;**+          ",
"          +**;,,,;*+               +*;;,,;;*+               +*;,1,;*++          ",
"          +**;,,,;*+               +*;;,,,;*+               +*;,1,;*++          ",
"          +**;,,,;*+               +**;,,;;*+               +*;,,,;*++          ",
"          ++*;,,,;*+               +**;,,;;*+               +*;,,,;*++          ",
"          +**;,,,;*+               +*;;,,;;*+               +*;,,,;**+          ",
"          +**;,,,;*+               +*;;,,;;*+               +*;,,,;**+          ",
"          ++*;,,,;*+               +*;;,,;;*+              ++*;,,,;*++          ",
"          ++*;,,,;*++              +*;;,,;;*+              ++*;,,,;*++          ",
"          ++*;,,,;*+               +*;;,,;;*+              ++*;,,,;*++          ",
"          ++*;,,,;*+               +*;;,,;;*+              ++*;,,,;*++          ",
"          +**;,,,;*+               +*;;,,;;*+               +*;,,,;**+          ",
"          +**;,,,;*+               +*;;,,;;*+               +*;,,,;**+          ",
"          ++*;,,,;*++              +*;;,,;;*+               +*;,,,;*++          ",
"          ++*;,,,;*+               +*;;,,,;*+               +*;,,,;*++          ",
"          ++*;,,,;*+               +*;;,,;;*+               +*;,,,;*++          ",
"          ++*;,,,;*+               +*;;,,;;*+               +*;,,,;**+          ",
"          ++*;,,,;*+               +*;;,,;;*+               +*;,,,;**+          ",
"          ++*;,,,;*+               +*;;,,;;*+               +*;,,,;**+          ",
"          ++*;,1,;*+               +*;;,,;;*+               +*;,,,;**+          ",
"          +**;,,,;*+               +*;;,,;;*+              ++*;,,,;*++          "
};
