/* XPM */
static char *collectable80[] = {
/* columns rows colors chars-per-pixel */
"80 80 4 1 ",
"  c None",
". c #00A741",
"X c #00A642",
"o c #00A742",
/* pixels */
"                                                                                ",
"                                                                                ",
"                                                                                ",
"                                                                                ",
"                                                                                ",
"                                                                                ",
"                                                                                ",
"                                                                                ",
"                                   .........                                    ",
"                              ...................                               ",
"                            ........................                            ",
"                         .............................                          ",
"                        ................................                        ",
"                      ....................................                      ",
"                    .......................................                     ",
"                   ..........................................                   ",
"                  ............................................                  ",
"                 ..............................................                 ",
"                ................................................                ",
"               ..................................................               ",
"              ...................................................               ",
"             .....................................................              ",
"             ......................................................             ",
"            .......................................................             ",
"           .........................................................            ",
"           .........................................................            ",
"          ...........................................................           ",
"          ...........................................................           ",
"          ............................................................          ",
"         .............................................................          ",
"         .............................................................          ",
"         ..............................................................         ",
"         ..............................................................         ",
"        ...............................................................         ",
"        ...............................................................         ",
"        ...............................................................         ",
"        ................................................................        ",
"       .................................................................        ",
"       .................................................................        ",
"       .................................................................        ",
"       .................................................................        ",
"       .................................................................        ",
"       .................................................................        ",
"       .................................................................        ",
"        ................................................................        ",
"        ...............................................................         ",
"        ...............................................................         ",
"        ...............................................................         ",
"         ..............................................................         ",
"         ..............................................................         ",
"         .............................................................          ",
"         .............................................................          ",
"          ...........................................................           ",
"          ...........................................................           ",
"           ..........................................................           ",
"           .........................................................            ",
"            .......................................................             ",
"            .......................................................             ",
"             .....................................................              ",
"              ....................................................              ",
"               ..................................................               ",
"               .................................................                ",
"                ...............................................                 ",
"                 .............................................                  ",
"                  ...........................................                   ",
"                    ........................................                    ",
"                     ......................................                     ",
"                      ...................................                       ",
"                        ................................                        ",
"                          ............................                          ",
"                            .......................                             ",
"                                ...............                                 ",
"                                    .......                                     ",
"                                                                                ",
"                                                                                ",
"                                                                                ",
"                                                                                ",
"                                                                                ",
"                                                                                ",
"                                                                                "
};
