/* XPM */
static char *diamond[] = {
/* columns rows colors chars-per-pixel */
"80 80 164 2 ",
"   c #5F7676",
".  c #666A67",
"X  c #696967",
"o  c #6A6769",
"O  c #666C6B",
"+  c #6A6A6A",
"@  c #63706D",
"#  c #6B706D",
"$  c #637475",
"%  c #6C7573",
"&  c #657977",
"*  c #6D7975",
"=  c #627678",
"-  c #657A79",
";  c #6C7A79",
":  c #757575",
">  c #787677",
",  c #797877",
"<  c #747678",
"1  c #737C7B",
"2  c #7E7F7E",
"3  c #807F7F",
"4  c #73817E",
"5  c #7E807E",
"6  c #80807E",
"7  c #6C7E83",
"8  c #7F7F80",
"9  c #817F81",
"0  c #6A8284",
"q  c #748382",
"w  c #7D8281",
"e  c #768A86",
"r  c #7C8A85",
"t  c #778789",
"y  c #788789",
"u  c #758B8C",
"i  c #7B8B8A",
"p  c #7A918E",
"a  c #719595",
"s  c #799795",
"d  c #79A2A4",
"f  c #3EDFE5",
"g  c #3FDFE8",
"h  c #3DE1E5",
"j  c #3DE0E9",
"k  c #55C7CD",
"l  c #54CBCD",
"z  c #4CD2CB",
"x  c #4ECED2",
"c  c #53C7D4",
"v  c #53CED1",
"b  c #59CAD1",
"n  c #47D4D7",
"m  c #4AD4D6",
"M  c #46D5DA",
"N  c #4AD6DB",
"B  c #46D9DD",
"V  c #4AD9DB",
"C  c #52D4D4",
"Z  c #52D9D7",
"A  c #51D5D9",
"S  c #56DBDA",
"D  c #6CDCCD",
"F  c #70D3C7",
"G  c #72D6C9",
"H  c #72D9CD",
"J  c #6DDDD0",
"K  c #74DDD2",
"L  c #42E0DF",
"P  c #57E0DD",
"I  c #67E7D5",
"U  c #69E4D4",
"Y  c #67EAD7",
"T  c #6BE9D7",
"R  c #65E6DA",
"E  c #6AE7D9",
"W  c #65E9D9",
"Q  c #6BEADB",
"!  c #72E7D7",
"~  c #75E7D8",
"^  c #74EADC",
"/  c #46D5E0",
"(  c #4BD7E0",
")  c #41DFE5",
"_  c #49DAE0",
"`  c #43E1E4",
"'  c #4CE3E4",
"]  c #50E0E4",
"[  c #5EF2E4",
"{  c #65F5E3",
"}  c #6BF5E4",
"|  c #62F3E9",
" . c #74F4E5",
".. c #79F3E5",
"X. c #818081",
"o. c #828986",
"O. c #828C8B",
"+. c #8E8E8E",
"@. c #908F8F",
"#. c #81908C",
"$. c #8E908E",
"%. c #90908E",
"&. c #8F8E91",
"*. c #918F90",
"=. c #859496",
"-. c #8D9192",
";. c #849A97",
":. c #889896",
">. c #85969C",
",. c #88969C",
"<. c #849A9C",
"1. c #8C9B9A",
"2. c #909090",
"3. c #919C9B",
"4. c #84A4A4",
"5. c #99D9CE",
"6. c #9BDCD3",
"7. c #9FE0D7",
"8. c #95E5DF",
"9. c #9BE7DC",
"0. c #94E9DE",
"q. c #9CEADD",
"w. c #A1E1D5",
"e. c #A2E4DA",
"r. c #A3E9DD",
"t. c #8FE9E2",
"y. c #91E6E1",
"u. c #94EBE2",
"i. c #9CECE2",
"p. c #97ECE8",
"a. c #8CF8EE",
"s. c #9EF1E3",
"d. c #99F1E9",
"f. c #94FBEC",
"g. c #9DFDEC",
"h. c #96FAF0",
"j. c #9DF9F0",
"k. c #A1EEE3",
"l. c #A1F2E6",
"z. c #AAF0E5",
"x. c #A1F2E8",
"c. c #A2FCEC",
"v. c #A8FCEC",
"b. c #A7FDF0",
"n. c #B9FAF6",
"m. c #C4DCDB",
"M. c #C8E1DD",
"N. c #C3E7E3",
"B. c #C9E5E1",
"V. c #C3EBE6",
"C. c #CBEBE7",
"Z. c #C5EDE8",
"A. c #CCEEEA",
"S. c #D1EEEB",
"D. c #C0F1EF",
"F. c #CAF3ED",
"G. c #C3FBF5",
"H. c #CDFDF6",
"J. c #CFFDF8",
"K. c #D4F3F0",
"L. c #D5FEF6",
"P. c #D9FDF7",
"I. c #D5FDF8",
"U. c #D9FCF8",
/* pixels */
"+.+.+.+.+.X.X.2 2 2 2 2 2 2 X.+.+.+.+.+.X.9 2 5 2 : : : : : : : : : : 2 2 2 2 2 : : : : : + + + o + : : : : : : : : : : 2 2 2 2 X.+.+.+.+.+.+.+.+.+.+.+.+.+.+.+.",
"+.+.+.+.+.X.X.2 2 2 2 2 2 2 X.+.+.+.+.+.X.X.2 X.2 : : : : : : : : : : 2 2 2 2 2 : : : : : + + + + + : : : : : : : : : : 2 2 2 2 X.+.+.+.+.+.+.+.+.+.+.+.+.+.+.+.",
"+.+.+.+.+.X.X.2 2 2 2 2 2 2 X.+.+.+.+.+.X.X.2 X.2 : : : : : : : : : : 2 2 2 2 2 : : : : : + + + . + : : : : : : : : : : 2 2 2 2 X.+.+.+.+.+.+.+.+.+.+.+.+.+.+.+.",
"2.+.+.+.+.X.2 2 2 2 2 2 2 2 X.+.+.$.%.+.X.X.X.X.2 : : : : : : : : : : 2 2 2 2 2 : : : : : + + + + + : : : : : : : : : : 2 X.X.X.X.+.+.+.+.+.+.+.2.2.2.+.+.+.+.+.",
"+.+.+.+.+.X.2 2 2 2 2 2 2 2 X.+.+.+.+.+.2 2 2 2 2 , : : : : : : : 2 2 X.X.X.X.X.2 : : : : + + + + + : : : : : : : : : : 2 2 2 2 2 +.+.+.+.+.+.+.+.+.+.+.+.+.+.+.",
"X.X.X.X.X.2 2 2 2 2 : : : : : X.X.X.X.2 + + + + + +.+.+.+.+.+.+.+.+.+.+.+.+.+.+.+.+.+.+.+.2 2 2 2 2 2 2 2 2 2 + + + + + + + + + + + + + + + 2 X.X.X.X.2 : : : : ",
"X.X.X.2 2 2 2 2 2 2 : : : : : 2 X.X.X.2 + + + + + +.2.*.@.+.2.2.2.2.2.2.2.2.2.2.2.2.2.+.+.X.2 2 2 2 2 2 2 2 2 + + + + + + + + + + + + + + + 2 X.X.2 2 : : : : : ",
"2 2 2 2 2 2 2 2 2 2 : : : : : 2 2 2 5 2 + X + + + +.$.@.@.+.+.+.+.+.+.+.+.+.+.+.+.+.+.+.+.X.2 2 2 2 2 2 2 2 2 + + . + + . + + + + + + + + + 2 2 2 X.2 : : : : : ",
"2 2 2 2 2 2 2 2 2 2 : : : : : 2 2 2 5 5 + . . . + +.$.@.@.+.+.+.+.+.+.+.+.+.+.+.+.+.+.+.+.X.2 2 2 2 2 2 2 2 2 + + + . o + + . . . + o o + + 2 2 2 2 2 : : : : : ",
"2 2 2 2 2 2 2 2 2 2 : : : : : 2 2 2 2 2 - - & & ; O.+.+.+.+.+.+.+.+.+.+.+.+.+.+.+.+.+.+.+.2 2 2 2 2 2 2 2 2 2 + + + + + % * * * * & - & & - 2 3 2 9 2 : : : : : ",
"2 2 2 X.2 : : : : : + + + + + + + + + - F E E U J q : , : : 2 X.X.X.2 + + + + + + + + + + : : : : : : : : : : 2 2 2 3 O.6.i.i.i.u.! Q I Y G u 3 2 2 X.2 2 2 2 2 ",
"2 2 2 2 2 : : : : : + + + + + + + o . - U { { { Q 7 : : : : 2 2 2 2 2 + + + + + + + + + + : : : : : : : : : : 2 2 8 2 O.q.c.g.g.g.} { { { Q r 3 2 2 2 2 2 2 2 2 ",
"2 2 2 2 2 : : : : : + + + + + + + + . - U { { { Q 7 : : : : 2 2 2 2 2 + + + + + + + + + + : : : : : : : : : : 2 9 w 6 O.q.c.c.c.g.} { { { Q r 3 2 2 2 2 2 2 2 2 ",
"2 2 2 2 2 : : : : : + + + + + + + o . - U { { { Q q : : : : 2 2 2 2 2 + + + + + + + + + + : : : : : : : : : : 2 9 w 6 O.q.c.c.c.g.} { { { Q r 3 2 2 2 2 2 2 2 2 ",
"X.X.X.X.X.2 : : : : + + + + + + + + + - G Q Q Q K q : : : : 2 2 8 5 8 ; % % % * = $ $   = : : : : : : : : : 2 2 9 5 3 O.6.k.i.i.u.^ Q Q Q K r 3 2 2 2 2 2 2 2 2 ",
"+.+.+.+.+.+.+.+.+.+.+.+.+.+.+.2 2 2 2 X.-.:.:.:.-.w 2 2 2 2 2 2 8 3 O.6.i.i.i.p.A M / M k e 2 2 2 X.+.+.+.+.+.X.9 3 5 w r r r r o.-.:.:.:.;., : : : : : : : : : ",
"+.+.+.+.+.+.+.+.+.+.+.+.+.+.+.X.2 2 5 w +.@.*.*.+.X.2 5 2 2 2 2 6 3 r q.c.c.g.f.B h ) h M u 9 2 2 X.+.2.+.+.+.X.3 3 5 3 9 X.X.X.5 @.@.%.2.&.< : : : : : : : : : ",
"2.2.2.2.+.+.+.+.2.2.2.2.+.+.+.X.2 5 5 X.+.$.-.-.+.X.2 2 2 2 2 2 3 5 O.q.g.g.g.f.) j h h n e 5 2 2 X.+.2.+.+.+.X.2 2 3 5 5 w w w 6 +.$.@.$.+., : : : : : : : : : ",
"2.2.2.2.2.2.+.+.2.2.+.%.+.+.+.X.2 6 6 X.+.2.2.2.+.X.2 2 2 2 2 2 9 5 O.i.g.g.g.g.) ) h ) N u 5 2 2 X.+.+.2.+.+.2 2 2 2 2 3 9 X.X.X.+.$.+.%.+., : : : : : : : : : ",
"+.+.+.+.+.+.+.+.+.+.+.+.+.+.+.X.2 2 2 X.+.+.+.+.+.2 2 2 2 2 2 2 2 2 w 5.q.9.9.0.A N N N l u 3 2 2 X.+.+.+.+.+.2 2 2 2 2 X.X.X.X.X.+.+.+.+.+.2 : : : : : : : : : ",
"2 2 2 2 2 X.X.X.X.X.X.X.X.X.X.: : : : : , 2 , , 2 + + + + + + + + + + q q q q r :.;.:.:.:.w 5 2 2 2 2 2 2 2 : 2 2 2 2 X.+.+.+.+.+.2 , : 2 2 2 2 2 2 2 2 2 2 2 2 ",
": : : : : 2 2 X.X.X.2 2 2 2 2 : : : : : : : : : : + + + + + + + + . + : : : : : *.@.@.$.+.9 9 2 2 2 : : : : : 2 2 2 2 X.+.@.+.+.+.: : : : : 2 2 2 2 2 2 2 2 2 2 ",
": : : : : 2 2 2 2 2 2 2 2 2 2 : : : : : : : : : : + + + + + + + + + + : : : : : +.+.+.+.+.X.2 2 2 2 : : : : : 2 2 2 2 X.+.-.+.+.+.: : : : : 2 2 2 2 2 2 2 2 2 2 ",
": : : : : 2 X.2 X.X.X.2 2 2 2 : : : : : : : : : : + + + + + + + + + + : : : : : +.+.@.+.+.X.2 2 2 2 : : : : : 2 X.X.X.X.+.+.+.+.+.: : : : : 2 2 2 2 2 X.X.X.X.2 ",
": : : : : X.X.X.X.X.X.2 2 2 2 : : : : : : : : : : : % % : % % % % % % : : : : : +.+.+.+.+.X.2 2 2 2 2 2 2 2 w r r O.O.O.+.+.+.+.+.: : : : : 2 2 2 2 2 X.X.X.X.X.",
"2 2 2 2 X.+.+.+.+.+.X.2 2 2 2 2 2 2 2 2 + + + + : m.C.C.C.V.r.q.q.q.6.O.2 2 2 2 X.X.X.X.X.: : : : w m.C.C.C.Z.q.i.i.i.6.w 2 : : : + + + + + : : : : 2 +.+.+.+.+.",
"2 2 2 2 X.+.2.+.+.+.X.2 2 2 2 X.2 2 2 2 + + + + % C.I.I.L.H.v.g.g.c.i.#.X.2 2 2 3 2 2 2 2 : : : : w C.L.L.L.J.c.c.c.c.9.q : : : : + + + + + : : : : : +.+.+.+.+.",
"2 2 2 2 X.+.2.+.+.+.X.2 2 2 2 2 2 2 2 2 + + + + % C.I.I.L.H.v.g.g.c.i.O.2 2 2 2 2 2 2 2 2 : : : : w C.L.L.L.L.c.c.g.c.9.q : : : : + + + + + : : : : : +.+.+.+.+.",
"2 2 2 2 X.+.+.2.2.+.X.2 2 2 3 w 9 9 2 2 + + + + % C.I.L.L.H.c.g.g.g.i.O.X.X.X.6 3 8 5 2 2 : : : : w C.I.L.L.H.c.g.g.g.q.q : : : : + + + + + : : : : : +.2.2.2.2.",
"2 2 2 2 X.+.+.+.+.+.X.2 2 2 9 O.O.O.O.r ; % % % 1 V.H.H.H.G.c.g.f.g.i.s e e u u w w 6 X.w : : : : X.Z.J.H.H.G.g.f.f.h.8.w : : : : + + + + + : : : : : +.+.+.+.+.",
": : : : : X.X.X.X.X.2 2 2 X.O.M.C.C.C.Z.r.q.q.q.0... . . . .} } } } { N N N N v ;.@.+.+.+.w 2 2 2 r ^  . . . .' ' ' ' C u 3 2 2 2 2 2 2 2 2 2 2 2 2 2 X.X.X.X.X.",
": : : : : 2 X.2 2 2 2 2 2 9 +.S.L.L.L.H.v.g.g.g.g.} { { { } { { { { { ` ) ) f _ ;.%.*.+.+.X.w w 9 r Y { } { { h h h j n u 9 w 3 2 2 2 2 2 2 2 2 2 2 2 2 2 2 2 2 ",
": : : : : 2 2 2 2 2 2 2 2 2 O.C.I.L.L.J.c.g.c.c.g.} { { { { { { { { { ` h h ` ) -.$.*.+.+.X.3 2 3 r Q { { { { ` h f f N u 3 w 9 2 2 2 2 2 2 2 2 2 2 2 2 2 2 2 2 ",
": : : : : 2 2 2 2 2 2 2 2 2 +.S.I.L.L.H.c.c.c.g.g.} { { { { { { { { | ` h h ` B ;.$.@.+.+.X.3 2 3 r Q { { { { ` h g h n u 3 w 9 2 2 2 2 2 2 2 2 2 2 2 2 2 2 2 2 ",
": : : : : 2 2 2 2 2 2 2 2 2 O.B.S.S.S.C.k.i.i.i.i.^ Q Q ^ Q Q Q Q Q Q V B N N C ;.@.+.+.+.2 2 2 2 r D E U W R V M M M c u 3 2 8 2 X.X.X.X.X.X.X.X.X.X.X.X.X.X.X.",
": : : : : + + + + + + + + + + O.+.O.O.+.#.O.O.O.#.:.:.:.:.:.:.:.:.1.:.:.:.:.:.:.# + + + + + + + + + & - - & - 0 0 0 0 0 : : : : : +.+.+.+.+.+.+.+.+.+.+.+.+.+.+.",
": : : : : + + + + + + + + + + 2 2 w 2 2 2 2 2 2 X.+.*.*.@.@.@.@.@.@.+.@.*.&.+.+.+ + + + + + + + + + o o o + + : : : : : : : : : : +.+.2.+.+.+.+.+.+.+.+.+.+.+.+.",
": : : : : + + + + + + + + + + 2 2 2 2 2 2 2 2 X.X.+.-.$.+.+.+.+.+.+.+.+.$.+.-.+.+ + + + + + + + + + + + + + + : : : : : : : : : : +.+.+.+.+.+.+.+.+.+.+.+.+.+.+.",
": : : : : + + + + + + + + + + 2 2 2 2 2 2 2 2 w X.+.$.$.$.$.$.$.$.$.$.$.-.$.-.+.+ + + + + + + + + + . . . . + : : : : : : : : : : +.+.2.+.+.+.+.+.+.+.+.+.+.+.+.",
": : : : : $ + . . . @ . . . $ 3 8 5 2 2 X.5 X.X.X.+.+.+.+.+.+.+.+.+.+.+.+.+.+.+.# + + + + . @ @ @ @ + . + + + : : : : : : : : : : +.+.+.+.+.+.+.+.+.+.+.+.+.+.+.",
"+.+.+.+.3.e.l.x.x.d.^ Q Q Q K u 9 3 2 X.+.+.+.+.+.X.X.X.X.2 : : : : : + + + + # S.K.K.K.F.z.l.x.x.e.X.2 3 2 2 : : : : : 2 2 2 2 2 X.X.X.X.X.+.+.+.+.+.2 : : : : ",
"+.+.+.+.1.l.g.g.g.f.} { { { E r 9 5 2 X.+.+.+.+.+.X.2 2 2 2 : : : : : + + + + + K.U.L.L.H.c.g.g.g.q.r 5 9 w 2 : : : : : 2 2 2 2 2 2 2 2 2 X.+.+.+.+.+.: : : : : ",
"+.+.+.+.1.s.g.g.c.f.} { { { Q r w 9 9 X.+.@.$.$.+.X.2 2 2 2 : : : : : + + + + . K.I.L.L.H.v.g.g.j.q.r 3 5 w 3 : : : : : 2 2 2 2 2 2 2 2 2 X.+.+.+.+.+.: : : : : ",
"+.+.+.+.3.k.c.c.c.f.} { } { E r w 8 9 X.+.2.2.2.+.X.2 2 2 2 : : : : : + . . + . K.P.L.I.J.c.g.g.g.q.r 9 w w 2 : : : : : 2 2 2 2 2 2 2 2 2 X.+.+.+.+.+.: : : : : ",
"+.+.+.+.1.9.i.i.q.u.~ I I I G r 8 2 X.X.+.+.+.+.+.X.2 2 2 2 : : : : < ; ; ; ; ; D.G.G.G.n.g.f.f.f.u.a u u u u , < : : : 2 X.X.X.X.X.X.X.X.X.+.+.+.+.+.2 : : : : ",
"X.X.X.6 X.r O.O.r O.1.1.1.1.;.6 w 2 2 2 + + + + + 2 2 2 2 2 : : : : q 6.q.q.q.u.P ' ] ' ' ` ` ' ' ` B N N n l q 9 2 2 X.+.+.+.+.+.+.+.+.+.+.2.+.+.+.+.X.2 2 2 2 ",
"2 2 2 2 5 8 3 5 5 X.+.$.+.$.+.6 5 2 2 2 + + o + + 2 2 2 2 2 : : : : 4 q.g.g.g.f.` h h h h h h h h h f f h h M t 9 2 2 X.+.+.+.+.+.+.+.+.+.+.+.+.+.2.+.X.2 2 2 2 ",
"2 2 3 2 2 2 2 2 8 X.+.+.+.+.+.X.2 2 2 2 + + . + + 2 2 2 2 2 : : : : 4 q.g.g.c.g.` ) f f f f f f f h f f f h N t X.2 2 X.+.+.+.+.+.+.+.+.+.+.+.+.+.2.+.X.2 2 2 2 ",
"2 2 2 2 2 2 2 2 2 X.+.2.2.2.+.X.8 w w 2 + + + + + 2 2 2 2 2 : : : : 4 q.g.g.g.g.` j j j h h h h h h h j j h M u X.9 2 X.+.+.+.+.+.+.&.2.$.2.2.@.*.+.+.X.2 2 2 2 ",
"2 2 2 2 2 2 2 2 2 X.+.+.+.+.+.X.8 2 5 8 - - & - ; 2 2 2 2 2 : : : : 1 5.q.q.q.0.n n M n n N N N N N V V V N l q 2 2 2 2 +.+.+.+.+.+.+.+.+.+.+.+.+.+.+.2 2 2 2 2 ",
"+ + + + + 2 X.2 2 2 2 : : : : 2 2 3 5 r D E I E J 4 : : : : + + + + . % % % % % ; 7 7 7 q >.>.>.>.>.>.>.>.>.;.+ + + + + + + + + + 2 X.X.X.X.2 : : : : : : : : : ",
"+ + + + + 2 X.2 2 2 : : : : : 2 2 3 5 p U { { { Q q : : : : + + + + + + . . + . : : : : , +.+.+.+.+.+.+.+.$.+.+ + + + + + + + + + 2 2 2 2 2 : : : : : : : : : : ",
"+ + + + + 2 2 2 2 2 : : : : : 2 2 8 5 r U { { { Q 4 : : : : + + o + + o X X X + : : : : 1 +.&.&.-.-.-.-.-.*.+.+ + + + + + + + + + 2 2 2 X.2 : : : : : : : : : : ",
"+ + + + + 2 2 2 2 2 : : : : : 2 2 3 5 r U { { { Q 4 : : : : + + + + + + + + + + : : : : , +.+.+.+.+.%.%.%.*.+.+ X + + X + . + + + 2 9 5 X.2 : : : : : : : : : : ",
"+ + + + + 2 2 2 2 2 : : : : : 2 2 3 5 r G E Q Q D 4 , : : : + + + + + + + + + + : : , , 2 +.+.+.+.+.+.+.+.+.+.; ; % % * =   $ $ $ 5 9 9 X.w 2 : : : : : : : : : ",
"2 2 2 2 2 2 2 2 2 2 2 2 2 2 2 2 2 3 3 9 r r r r r +.+.+.+.+.+.+.+.+.+.+.+.+.+.+.+.+.+.+.+.+ + + + + : : : , w 6.q.i.i.t.C M M M x >.+.$.+.+.+.+.+.+.+.X.2 2 2 2 ",
"5 X.X.X.9 2 2 2 2 2 2 2 2 2 2 2 2 3 3 5 3 5 5 5 w +.*.$.@.+.+.+.+.+.+.+.+.+.+.+.+.$.$.-.+.+ + + + + : : : : q i.c.g.g.f.' h f f B :.@.-.-.-.@.+.+.+.+.X.2 2 2 2 ",
"2 2 2 2 2 2 2 2 2 2 2 2 2 2 2 2 2 2 2 2 2 2 2 2 X.+.2.+.+.+.+.+.+.+.+.+.+.+.+.*.&.-.2.*.+.+ X X X + : : : : q i.c.g.g.f.' h h ` B :.*.*.%.-.&.&.+.2.+.X.2 2 2 2 ",
"2 2 2 2 2 2 2 2 2 2 2 2 2 2 2 2 2 2 2 2 2 2 2 2 X.+.2.+.+.+.+.+.+.+.2.+.2.+.+.$.$.$.$.%.+.+ + + + + : : : : 4 i.g.c.g.f.' h f f ( ;.%.$.%.*.@.+.+.2.+.X.2 2 2 2 ",
"2 2 2 2 2 2 2 2 2 2 2 2 2 2 2 2 2 2 2 2 2 2 2 2 2 +.+.+.+.+.+.+.+.+.+.+.+.+.+.+.3.3.3.1.1.2 1 1 1 1 w w w w p u.g.f.f.a.' ` ` ` V d :.:.<.:.$.+.+.+.+.X.2 2 2 2 ",
"2 2 2 2 2 : : : : : : : : : : + + + + + + + + + + +.+.+.+.+.+.+.+.+.+.2 2 2 2 1 e.i.q.q.k.V.N.B.B.N.9.q.q.9.0. .} } } } { [ { { [ n N N N b r X.X.X.X.: : : : : ",
"2 2 2 2 2 : : : : : : : : : : + + + + + + + + + + +.+.+.+.+.+.+.+.+.+.: : : : 1 l.g.g.c.b.I.L.L.U.J.c.g.c.g.f.} { { { { { { { { { ` j h h N u X.w 9 3 : : : : : ",
"2 2 2 2 2 : : : : : : : : : : + + + + + + + + + + +.+.+.+.+.+.+.+.+.+.: : : : ; l.g.g.c.c.I.L.L.I.H.c.g.c.g.g.} { { { { { { { { { ` j h h N u X.5 3 3 : : : : : ",
"2 2 2 2 2 : : : : : : : : : : + + + + + + + + + + +.+.+.+.+.+.+.+.+.+.: : : : ; l.g.g.c.c.L.L.L.I.H.c.g.c.g.f.} } { { { { { { { { ` g ) ) N u X.5 3 3 : : : : : ",
"X.X.X.X.X.: : : : : : : : : < % % % % % $ $ $ $ $ &.$.&.&.+.+.+.+.+.+.2 : : : 1 r.k.s.k.x.G.H.H.H.G.g.f.f.f.f.Q Q Q Q Q Q Q Q Q W V B N B v u 3 2 X.2 : : : : : ",
"+.+.+.+.+.+.+.+.+.+.2 2 2 2 r 6.q.q.q.y.A M M M x r w 9 X.X.X.X.X.X.X.2 2 2 2 8 1.3.1.1.4.S ' ' ' ' ' ' ' ' Z a r r r r q q q q 4 u u u u e w 2 2 2 X.2 2 2 2 2 ",
"+.+.+.+.+.+.+.+.+.+.X.2 2 3 O.i.g.g.g.f.' j h f N r 5 9 8 2 2 2 2 2 2 2 2 2 2 w @.@.&.$.:.B g f ) f h f h h M y 6 w w 8 < : : : : w 5 w 3 3 9 2 2 2 2 2 2 2 2 2 ",
"+.+.+.+.+.+.+.+.+.+.X.2 2 3 O.i.c.g.g.f.' ` h h B r 5 8 w 2 2 2 2 2 2 2 2 2 2 9 @.$.&.$.:.V f h h h h ) f h N e w 8 w 2 : : : : : 2 8 8 8 w 3 2 2 2 2 2 2 2 2 2 ",
"+.+.+.+.+.2.2.2.*.+.X.2 2 3 O.i.g.g.c.f.' j j g B u 5 9 w 2 2 2 2 2 2 2 2 2 2 X.+.+.$.$.:.V j h h h j j j f N y X.2 2 2 : : : : : 2 2 2 2 2 2 2 2 2 2 2 2 2 2 2 ",
"+.+.+.+.+.+.+.+.+.+.X.2 2 2 r w.k.k.q.u.S V V N C r w 9 X.X.X.X.X.X.X.6 X.2 2 X.+.+.+.@.:.C V V V V V V V V z t w 2 2 2 : : : : : 2 2 2 2 2 2 2 2 2 2 2 2 2 2 2 ",
"X.X.X.X.X.2 : : : : : : : : 1 r r O.O.O.:.:.:.:.:.&.$.+.+.+.+.+.+.+.+.X.X.2 2 2 X.X.w X.X.:.:.:.:.:.:.:.:.>.;.9 w 2 2 2 : : : : : : : : : : : : : : : 2 2 2 2 2 ",
"2 2 2 2 2 : : : : : : : : : : 9 3 3 2 X.+.@.@.+.+.*.$.+.+.+.+.+.+.+.+.X.2 2 2 2 2 2 2 3 X.+.@.@.+.+.@.@.@.+.+.X.2 2 2 2 : : : : : : : : : : : : : : : 2 2 2 2 2 ",
"2 2 2 2 2 : : : : : : : : : : 2 2 2 X.X.+.+.+.+.+.+.+.+.+.+.+.+.+.+.+.X.2 2 2 2 2 2 2 2 X.+.2.+.+.+.+.+.+.+.+.X.2 2 2 2 : : : : : : : : : : : : : : : 2 2 2 2 2 ",
"2 2 2 2 2 : : : : : : : : : : 2 2 2 2 X.+.2.2.2.*.+.-.-.2.-.+.+.+.+.+.X.X.2 X.2 2 2 2 2 X.+.2.2.&.&.&.&.2.2.+.X.2 2 2 2 : : : : : : : : : : : : : : : 2 X.X.X.2 ",
"2 2 2 2 2 : : : : : : : : : : 2 2 2 2 X.+.+.+.+.+.+.+.+.+.+.+.+.+.+.+.X.X.X.X.X.2 2 2 2 X.+.+.+.+.+.+.+.+.+.+.X.2 2 2 2 : : : : : : : : : : : : : : , X.X.X.X.X.",
"2 2 2 2 2 2 2 2 2 2 2 2 2 2 2 X.2 2 2 X.X.X.X.X.X.X.X.X.X.X.2 2 : : 2 +.+.+.+.+.X.2 2 2 2 X.X.X.X.X.X.X.X.X.X.2 2 2 2 2 2 2 2 2 2 2 2 2 2 2 +.+.+.+.+.+.+.+.+.+.",
"2 2 2 2 2 2 2 2 2 2 2 2 2 2 X.X.2 2 2 2 2 2 2 2 2 2 2 2 2 2 : : : : : +.+.+.+.+.X.2 2 2 2 2 2 2 2 2 2 2 2 2 2 2 2 2 2 2 2 2 2 X.2 2 2 2 2 X.+.+.+.+.+.+.2.2.2.2.",
"2 2 2 2 2 2 2 2 2 2 2 2 2 2 2 2 2 2 2 2 2 2 2 2 2 2 2 2 2 2 : : : : : +.+.+.+.+.X.2 2 2 2 2 2 2 2 2 2 2 2 2 2 2 2 2 2 2 2 2 2 2 2 2 2 2 2 X.+.+.+.+.+.+.+.+.+.+.",
"2 2 2 2 2 2 2 2 2 2 2 2 2 2 2 2 2 2 2 2 2 2 2 2 2 2 2 2 2 2 : : : : : +.+.+.+.+.X.2 2 2 2 2 2 2 2 2 2 2 2 2 2 2 2 2 2 2 2 2 2 2 2 2 2 2 2 X.+.+.+.+.+.+.+.+.+.+.",
"2 2 2 2 2 2 2 2 2 2 2 2 2 2 2 2 2 2 2 2 2 2 2 2 2 2 2 2 2 2 : : : : : +.+.+.+.+.X.2 2 2 2 2 2 2 2 2 2 2 2 2 2 2 2 2 2 2 2 2 2 2 2 2 2 2 2 X.+.+.+.+.+.+.+.+.+.+."
};
