/* XPM */
static char *dirt[] = {
/* columns rows colors chars-per-pixel */
"80 80 86 1 ",
"  c #573C26",
". c #5B3D27",
"X c #573E29",
"o c #5A3D29",
"O c #623F26",
"+ c #603F29",
"@ c #5E4027",
"# c #5E402B",
"$ c #5D4533",
"% c #614027",
"& c #63432C",
"* c #69462D",
"= c #69482D",
"- c #644631",
"; c #624834",
": c #6A4931",
"> c #634A39",
", c #755337",
"< c #7C5637",
"1 c #7C5836",
"2 c #76543A",
"3 c #79563A",
"4 c #77583F",
"5 c #7D593C",
"6 c #755743",
"7 c #785741",
"8 c #755942",
"9 c #7A5B43",
"0 c #765C49",
"q c #75685F",
"w c #7D6C5E",
"e c #6E6966",
"r c #6D6C6B",
"t c #746B64",
"y c #756E6A",
"u c #805736",
"i c #815A37",
"p c #805739",
"a c #815B3C",
"s c #885E3D",
"d c #845E41",
"f c #856041",
"g c #8E6646",
"h c #8E6846",
"j c #8D6748",
"k c #8F684A",
"l c #906746",
"z c #936947",
"x c #996C47",
"c c #906748",
"v c #966C4A",
"b c #996D4A",
"n c #9C704D",
"m c #926E52",
"M c #986C50",
"N c #937054",
"B c #987254",
"V c #A06E49",
"C c #A67753",
"Z c #A67A55",
"A c #AC7C56",
"S c #A67B59",
"D c #AC7E59",
"F c #B17F57",
"G c #B07F59",
"H c #867D74",
"J c #897D73",
"K c #857F7A",
"L c #AE815C",
"P c #B58157",
"I c #B3835C",
"U c #B9855D",
"Y c #B7885A",
"T c #8D8176",
"R c #87817D",
"E c #8A837D",
"W c #AC8363",
"Q c #B48460",
"! c #B98660",
"~ c #878685",
"^ c #898684",
"/ c #878886",
"( c #888887",
") c #86878B",
"_ c #888788",
"` c #85888A",
/* pixels */
"UUUUInvbvvvvvbv3333333333IUIUIbvvvvvbbbb3333333334ooooo4333333335IUIUI5334aIUUUU",
"UUUUInvbvvvvvbv3333333333IUIUIbvvvvvbbvv3333333334ooooo4333333335IUIUI5334aIUUUU",
"UUUUInvvvvvvvvv3333333335IUUUIbvvvvvvvvv33333333<4ooooo4333333335IUUUI5334aIUUUU",
"UUUUInvvvvvvvvv3333333335IUUUIbvvvvvvvvv33333333<4ooooo4333333335IUUUI5334aIUUUU",
"IILIDbvvvvlhhjj3333333335LIIIIBmBBBhghhh333355aaa5&&&&&43333aaaadIIIID54443CAADD",
"aaaaavvblv&&&&&4333333333vbbnBE^^EH>&&&&33335SLIIDvjhhj3333aAIIILbbbnv&#.o#&&---",
"44445vbbbv&ooX@3333333333vvvxmE``^K$oooo3333aLUUUIbbbvv3333aGUUUIbvvvv#ooooXoooo",
"33335vvvbv&.. @333333333<vbvvBE^/^K$....3333aIUIIIbvbvv3333aLIIIIbvbvl#oXo.ooooo",
"33335vbvbv%.oo.3333333333vbvvm^^^`K$oooo3333aIUUUIbbxbv3333aGUUUUbMvbl#o.ooooooo",
"5555avvvvj&.ooo444445555avvvvmE^ERH$oooo5555aDIIILvvvvv3333aAGGDLvvllg&&&&&#oooo",
"IIIIDa535344444o###&CIIILa33559598934444IIIIDsaaaa3333533334&&&&&#&&&*CLDFC34444",
"UUUUIa333333333oooo&AUUUIu3333333333333<UUUUIa33333333333334#ooooo..o&IUUUIa3333",
"UUUUIa<34333334.ooo&AUUUI333<33343333333UUUULa3333333333333,#ooo.Xo.o&GUUULa3333",
"UUUUIa33<334334.ooo&AUUUI533333333344444UUUUIa33333333333334#ooo..ooX&DUUUIa3333",
"IIIIF9466433<u<%ooo&AIIII343443333353333IIIIIa33<3333335333<#ooooo##&*DIUUDa3333",
"bbbbmqerrwWUIIL<3335vbbbv#ooo#4344aDIIQIbbbbbvvbbv33335mbbvv33333WIIIQVbbbv53333",
"vvvvmtrrryQUUUI33335vvvvv.o.oo4334aLUUUUvvvvvvvvvv33333vbbbv53335IUIUIbvvvv53333",
"vvbvmtrrryQUUUI33335vvvvv.o.oo4334aIUUUUvvvvvvvvvv33333vbbbv53335IUIUIbvvvv53333",
"vbbvmtrrryQUUUI33335vvbbv.oooo4334aIUUUUvvvvvvvbvv33333vbbbv53333IUUUIbvvbv53333",
"vvvvmqeeetLIIIIaaaaaggllg&&&&&4334aAIGGIvvvvvlgggg33333vvvvh53333IIIILljhlg53333",
"vvvvv98999vnbbbGIIGC:&&&&glggg33333aaaaabbbvh*&&&&43333ttttt93333bbnbv-&&&&43333",
"vvvvv53335vvvvbUUUUA&ooo.vbvvv3333333333bbvvh&o.oo43333errre83333vvvvz#o.oo43333",
"vvvvv53333vvvvbIUUUA&ooo.vbvvv3333333333vvvvg&o.oo43333errre83333vvvvv#o.X#43333",
"vvvvv53333vvvvbIUUUA&ooo.vbvvv3333333333vvvvg&o oo43333errre83333vvvvv#o.o#,3333",
"bbbbv53343lvbbbQUUIA-oooOvbvvl5433333334vvvvj&o.o#43338trrrt9333uvvvvh%.oo&<3355",
"3333,&o..&vvbbvbbbbv53333vbvvv&ooo....o.....#44344333<3$ooo#43333333333344aDIIII",
"33334oooo&hvbbbbvvvv53333vbvvh&Xoooooooooooo#4333333333oooo#,3333333333333aIUUUU",
"33334oooX&hbbbbbvvvv53333vvvbh#Xoooooooooooo#,343333334oooo#,3333333333333aLIUUU",
"3333,#oo %hbvvvvvvvv53333vvbbv% oooooooooooo#4333333334oooo#,3333333333333aIUUUU",
"55555&#oo&jvvvvvvvvh99999lvlvj&oooo&&&&&&&&&*43333aaa55&&&&&,3333333533333aDIIII",
"IIIID544443333333339JEEET9555344345SDDDDGGDDSa3335DIIIIIGGGA53333vvvvv33<35vbbbb",
"UUUUIa33333333333339R(((E8333333<3aIUUUUUUUUGa334aIU!UU!UUUGa3333vbxbv33<35vvvvv",
"IIIILa3<333333333339R^^^E5<33333<3aIIIIIUUUUIa3335IUUUUUUUUGa3333vvvvv33<33vbvvb",
"UUUUIa33333444443339^)))^833333333aGUUUUUUUUIa3<3aPUUUUUUUUFa3333vbbbv53345vvvvb",
"IIIIDa3333aaaaaaaaadJEEET955ua3333aDIIIIIIIID54445AIIIIIIIIDa3333vvvvv5555avvvvv",
"aaaaa3333aDILLIIIIIDBBBBBlvvvv33<335aaaanbbbv&###&vbbbbbbbbv5333355555vvvvvvbvvv",
"3333333335IUUUUUUUUIbbbbvvvvvv3333333333vvvvj&o.o#lvvvvvvvvv5333333333vvvvvvvvvv",
"3333333335IUUUUUUUUIbvvvvvvvvv3333333333vvvvj&o.o#vvvvvvvvvv5333333333vvvvvvvvbb",
"3333333335IUUUUUUUUInvbvvvvvvv3333333333bvvvh&o.o&vvvvvvvvvv5333333333vvbbvvvvvb",
"3333333335IUUUUUUUUInvbvvvvvvv3333333333vvvvh&X .olvvvvvvvvv5333333333vbbbbbvvvv",
"vvvvv5333333343vvvvv53333vvvvv33334o... 33335vbvbbvvvvv333333333333334.o.Xo,3333",
"vvvvv5333333333vvvvv53333vvvvv33334o....33335vbvbbvvvvv333333333333334ooooo,3333",
"vvvvv5333333333vvvvv53333vvvvv33334o....33335vvvvvvvvvv333333333333334oo.o#,3333",
"vvvvl5333333333vvvvv53333vvvvv33334#o...33335vvvbvvvvbv333333333333334oo.o#,3333",
"vvvvl55a554444,vvvvl53333gghhg34444###o#3333alvvvvvvvvv<3333aaaaaaaaa5####&35555",
"5555ahvvvj&oo#&355553333,&&&&&##oo&,44443333355555555553333aAIIIIIIILD54443vvvvv",
"33335vbvxv&oooo3333333334ooXoooooo.,33333333333333333333333aGUUUUUUUUI53335lvvvb",
"33335vbbvh&oooo3333333333oo.oooooo#433333333333333333333333aLIIIIIIIUI53335lvvvv",
"33335vvvbh%..oo4333333334ooo..oooo#433333333333533333333333aFUUUUUUUUIa3335vbvvv",
"33335vvvvv&..o#5555555555%#o##&&&&&4333344444aaa5555aaa44445AIIIIIIIUI98999vvvvv",
"33335vvvvv3444<LIIIIIIIIL<44<<DDLDDbvvvvoooo*SIIIIIIIID%ooo&lbbbbbbbbBTREEJ93333",
"33335vbvvv3333<IUUUUUUUUI3333aIUUUIbvvvb.ooo&DUUUUUUUUI.ooo&jvvvvvvvbmE`((E93333",
"33335vbbxv3333<IUUUUUUUUI53<3aIU!UIbbvvb....&DUUUUUUUUIOooo&jvvvbvvbbBE)/)E93333",
"33335vvvbv33333QUUUUUUUUI3333aIUUUInvvvb.o.o&AUUUUUUUUIooXX&lbbbbvvvbm^)/)E93333",
"3333avvvvv33335IIIIIIIIIIi333aLIIIInvvvvo#oo;DIQIIIIUQL&oo.&jvvvvvvvvBTE^ER04444",
"vvvvl533333333<xbbbbbbbbbIIIULa351ilvvvvrrrrtmbbbbbbbbb<333,#....vbbbv93354&....",
"vvvvv5333333333vvvvvvvvbbIUUUI53335vbbbbrrrrtmvbvvvvvvv33334#ooo.vvvvv33334#oooo",
"vvvvv5333333333vvvvvvvvvbIUUUI53335vbbbbrrrrtmvbvvvvvvv3333,#ooo.vvvvv33334#oooo",
"vvvvv5333333333vvvvvvvvvbIUUUI53335vbbbbrrrrtmvbvvvvvvv3333,oo...vvvvv33334#oooo",
"vvllg<4,4455555vvvvvvvvvbIIIIGfaaadlzzzveeeethlvvvvvvlv33334&###&hlvvvaaaa5:&&&&",
"55553&#oo&gvvvv55555vvvvbbbbbnDGGGDa5555888895555555555333334,,,45555aAIGGGAAAAA",
"33334#o.o#vvvvv33335vbvbbbbvvbIU!UIa3333333333333333333333333333333335IUUUUUUUUU",
"33334#o.o#vvvvv33335vvvbvvvvvbIUUUIa3333333333333333333333333333333335IUUUUUUUUU",
"33334#o.o#vvvvv33335vvvvvvvvvbIUUUIa3333333333333333333333333333333335IUUUUUUUUU",
"3333,&o.o%jbvvvu3335vvvvvvvvvbIUIQWa33333333334<343333133333333331533aIUUUUUUUUI",
"33333hvvmh3333333333999943333avbbbbvvvvv33334#o.o&DQIQL&ooo#,3333LIIIInbbbbbbbbb",
"33335vbbbv33333333338888643433vvbvvvvbbb33334#o.o&DUUUIoooo#43331IUUUIbvvvvvvvvv",
"33335vbvbv33333333338888633433vbbvvbvvvv3333,@o.o&DUUUIoooo#,3331IUUUIbvvvvvvvvv",
"33335vbvvv53333433336866633333vbbvbbvvvv33334ooo.&FUUUIoooo#4333<IUUUIbvvvvvvvvv",
"3333avvvvv3444,555559666644443vvvvvvvzvl55555&&&&*AIIIL&###&43333LIIILbvvvvvvvvv",
"vvvvv53333%.oo%LIIIAa3333ooo.%33333&###oIIIIIIILFAd5aaavvvvg53333aaaaavbvvvbvbvv",
"vvvvv53334..ooOIUUUIa3333.oo..43334oooo.UUUUUUUYUP53333bvvvv5333333333vbbvbvvbvv",
"vvvvv53334oo.o%IUUUGa3333.oo.o434<,oo.o UUUUUUUUUI53333vvvvv5333333333vvvvvvvvvv",
"vvvvv53334oooX@IUUUGa3334ooooo4<<34oooo UUUUUUUUUIa3333vvvvl5333333335vbvvbbvvvv",
"vvvvv5333,*&&&*LIIIDa5553&o+##80998&###.IIIIIIIIQIa3333vvvvza555555555vvvvvjjjjj",
"vvvvv53345CAADDnbbnbvvvvv<43,8JRREJ8444,nnbbbbbbnb53333a555alvvvvvvvvv55553&&&&&",
"vbvvv53335IUUUIbvvvvvvvvv33339E_^)R83333bvvvvvvvvv3333333335vvvvvvbbvv33334ooooo",
"bbvvv53335IUUUIbvvvvvvvvv333<9E_^/R93333bvvvvvvvvv3333333335vvvvvvvvvv33334ooo..",
"bvvvv53335IUUUIbbbvvvvvvv33339E_^/R93333vvvvvvvvvv3333333335vvvvvvvvvv33334#o...",
"vvvvv53335IUUUIbbbbvvvvvv33339E_^^R93333vvvvvvvvvv3333333335vvvvvvvvvv33334#o..o"
};
