/* XPM */
static char *enemy1[] = {
/* columns rows colors chars-per-pixel */
"80 80 246 2 ",
"   c None",
".  c #000000",
"X  c #020202",
"o  c #030303",
"O  c #050505",
"+  c #080808",
"@  c #0B0B0B",
"#  c #0F0F0F",
"$  c #171717",
"%  c #1B1B1A",
"&  c #1B1B1B",
"*  c #1C1C1C",
"=  c #222222",
"-  c #282828",
";  c #2A2929",
":  c #2A2A2A",
">  c #2B2A2A",
",  c #2C2C2C",
"<  c #2D2C2C",
"1  c #2E2D2D",
"2  c #2E2E2E",
"3  c #302F2F",
"4  c #303030",
"5  c #313030",
"6  c #313131",
"7  c #323131",
"8  c #323231",
"9  c #323232",
"0  c #333332",
"q  c #343333",
"w  c #343434",
"e  c #353534",
"r  c #353535",
"t  c #363535",
"y  c #363635",
"u  c #363636",
"i  c #373636",
"p  c #373736",
"a  c #383636",
"s  c #383736",
"d  c #393838",
"f  c #393939",
"g  c #3A3939",
"h  c #3A3A3A",
"j  c #3B3B3A",
"k  c #3D3C3C",
"l  c #3D3D3D",
"z  c #3E3E3D",
"x  c #403F3F",
"c  c #414140",
"v  c #414141",
"b  c #424141",
"n  c #434343",
"m  c #444343",
"M  c #444443",
"N  c #444444",
"B  c #454444",
"V  c #464545",
"C  c #474746",
"Z  c #484747",
"A  c #494848",
"S  c #494949",
"D  c #4A4949",
"F  c #4A4A49",
"G  c #4B4A4A",
"H  c #4B4B4A",
"J  c #4C4B4B",
"K  c #4D4C4C",
"L  c #4D4D4D",
"P  c #4E4D4D",
"I  c #4E4E4E",
"U  c #4F4E4E",
"Y  c #4F4F4F",
"T  c #504F4F",
"R  c #505050",
"E  c #515050",
"W  c #515151",
"Q  c #525151",
"!  c #535252",
"~  c #535352",
"^  c #545353",
"/  c #555454",
"(  c #555554",
")  c #565656",
"_  c #575757",
"`  c #585857",
"'  c #595858",
"]  c #5A5959",
"[  c #5B5A5A",
"{  c #5C5C5C",
"}  c #5D5C5C",
"|  c #5D5D5C",
" . c #5E5D5D",
".. c #5F5F5F",
"X. c #616060",
"o. c #626262",
"O. c #646464",
"+. c #656565",
"@. c #666666",
"#. c #686868",
"$. c #6A6A6A",
"%. c #6B6A6A",
"&. c #727171",
"*. c #727272",
"=. c #737373",
"-. c #767676",
";. c #7A7979",
":. c #7D7D7C",
">. c #7E7E7D",
",. c #7E7E7E",
"<. c #7F7F7F",
"1. c #A92B28",
"2. c #977977",
"3. c #808080",
"4. c #818080",
"5. c #828282",
"6. c #868686",
"7. c #898888",
"8. c #8A8A8A",
"9. c #8B8B8B",
"0. c #8C8C8C",
"q. c #8D8D8D",
"w. c #8E8E8E",
"e. c #8F8F8F",
"r. c #909090",
"t. c #919090",
"y. c #929191",
"u. c #939392",
"i. c #939393",
"p. c #949494",
"a. c #989898",
"s. c #9A9A99",
"d. c #9A9A9A",
"f. c #9D9C9C",
"g. c #9D9D9C",
"h. c #9D9D9D",
"j. c #9E9E9E",
"k. c #9F9F9E",
"l. c #9F9F9F",
"z. c #A09F9F",
"x. c #A0A09F",
"c. c #A0A0A0",
"v. c #A1A1A1",
"b. c #A2A2A2",
"n. c #A3A2A2",
"m. c #A3A3A3",
"M. c #A4A4A4",
"N. c #A5A5A5",
"B. c #A7A7A7",
"V. c #ADA7A5",
"C. c #A8A8A8",
"Z. c #A9A8A8",
"A. c #A9A9A8",
"S. c #AAAAA9",
"D. c #AAAAAA",
"F. c #ABABAA",
"G. c #ABABAB",
"H. c #ACACAC",
"J. c #ADADAD",
"K. c #AEAEAE",
"L. c #AFAFAF",
"P. c #B0ACAC",
"I. c #B0B0B0",
"U. c #B1B0B0",
"Y. c #B1B1B1",
"T. c #B2B2B2",
"R. c #B3B3B3",
"E. c #B4B4B4",
"W. c #B5B5B4",
"Q. c #B5B5B5",
"!. c #B7B6B6",
"~. c #B8B8B7",
"^. c #B8B8B8",
"/. c #B9B8B8",
"(. c #B9B9B9",
"). c #BABABA",
"_. c #BBBBBB",
"`. c #BCBCBC",
"'. c #BDBDBD",
"]. c #BEBEBE",
"[. c #BFBFBF",
"{. c #C1B0AF",
"}. c #C0C0C0",
"|. c #C1C1C0",
" X c #C1C1C1",
".X c #C2C1C1",
"XX c #C2C2C2",
"oX c #C3C3C3",
"OX c #C4C3C3",
"+X c #C4C4C4",
"@X c #C5C5C5",
"#X c #C6C6C6",
"$X c #C7C6C6",
"%X c #C7C7C6",
"&X c #C7C7C7",
"*X c #C8C7C7",
"=X c #C8C8C7",
"-X c #CAC8C7",
";X c #C8C8C8",
":X c #C9C9C9",
">X c #CBCBCB",
",X c #CCCCCC",
"<X c #CDCDCD",
"1X c #CECECE",
"2X c #CFCECE",
"3X c #CFCFCF",
"4X c #D0CFCF",
"5X c #D0D0D0",
"6X c #D1D1D0",
"7X c #D1D1D1",
"8X c #D2D2D1",
"9X c #D2D2D2",
"0X c #D3D2D2",
"qX c #D3D3D3",
"wX c #D4D3D3",
"eX c #D4D4D4",
"rX c #D5D5D5",
"tX c #D6D6D5",
"yX c #D6D6D6",
"uX c #D7D7D7",
"iX c #D8D8D8",
"pX c #D9D9D9",
"aX c #DADAD9",
"sX c #DADADA",
"dX c #DBDBDB",
"fX c #DCDCDC",
"gX c #DDDDDD",
"hX c #DEDEDE",
"jX c #DFDEDE",
"kX c #DFDFDE",
"lX c #DFDFDF",
"zX c #E0DEDE",
"xX c #E0E0E0",
"cX c #E1E1E1",
"vX c #E2E2E2",
"bX c #E3E2E2",
"nX c #E3E3E3",
"mX c #E4E4E4",
"MX c #E5E5E5",
"NX c #E6E6E6",
"BX c #E7E7E7",
"VX c #E8E8E8",
"CX c #E9E9E9",
"ZX c #EAEAEA",
"AX c #EBEBEB",
"SX c #ECECEC",
/* pixels */
"                                                                                                                                                                ",
"                                                                                                                                                                ",
"                                                                                                                                                                ",
"                                                                                                                                                                ",
"                                                                                                                                                                ",
"                                                                                                                                                                ",
"                                                                                                                                                                ",
"                                                                                                                                                                ",
"                                                                                                              B                                                 ",
"                                              $.                          t.j.K.E.K.K.P.c.j.              -./.                                                  ",
"                                              K.eXc.5.          8.c.=XeXdXcXcXSXSXSXSXSXcXcXcXdX3XK.5.  j.dXeX                                                  ",
"                                              E.SXSXcXeXeXeXeXdXSXSXSXSXSXSXSXSXSXSXSXSXSXSXSXSXSXSXcXdXSXSXeX                                                  ",
"                                              E.SXSXSXSXSXSXSXSXSXSXSXSXSXSXSXSXSXSXSXSXSXSXSXSXSXSXSXSXSXSX3X                                                  ",
"                                              K.SXSXSXSXSXSXSXSXSXSXSXSXSXSXSXSXSXSXSXSXSXcXeX@X3XdXSXSXSXSX/.                                                  ",
"                                              c.SXSXSXSXSXSXSXSXSXSXSXSXSXSXSXSXSXSXSXSXeX/.eXcXeX/.@XSXSXSXK.                                                  ",
"                                              c.SXSXSXSXSXSXSXSXSXSXSXSXSXSXSXSXSXSXSXeXE.SXSXcXSXSX/.dXSXSXc.                                                  ",
"                                              c.SXSXSXSXSXSXSXSXSXSXSXSXSXSXSXSXSXSXSXdXcX@X@X3X/.*XcXcXSXSXc.                                                  ",
"                                              x.SXSX@X@XcXSXSXSXSXSXSXSXcX3X@XSXSXSXSXSX/.dXdX/.dXdX3XSXSXSXj.                                                  ",
"                                              j.SXSXdX3XE.j.K.-.-.X.P Q K.j.cXSXSXSXSXdX@X8.* # , 3X@XcXSXSXt.                                                  ",
"                                              j.SXSXSXSXcX@X/.. . . . * eXK.SXSXSXSXSX@X/.$ . . . $.eXdXSXSX8.                                                  ",
"                                              c.SXSXSXSXSX@Xj.. . . . = 3X/.SXSXSXSXSX/.@X# . . . :.eXdXSXSXt.                                                  ",
"                                              c.SXSXSXSXSX@X@X, . . * t.dX3XSXSXSXSXSX@XdXj.P z -.eX@XcXSXSXc.                                                  ",
"                                              c.SXSXSXSXSXdXE.dXj.j.4XSX/.cXSXSXSXSXSXcXE.3XcXdX/./.cXSXSXSXE.                                                  ",
"                                              K.SXSXSXSXSXSXeX~.@X@X@X@XcXSXSXSXSXSXSXSXSXeX/.@XcXSXSXSXSXSX3X                                                  ",
"                                              E.SXSXSXSXSXSXSXSXSXSXSXSXSXSXSXeXP.=XSXSXSXSXSXSXSXSXSXSXSXSXcX                                                  ",
"                                              /.SXSXSXSXSXSXSXSXSXSXSXSXSXSXSXV.1.{.SXSXSXSXSXSXSXSXSXSXSXSXSXc.                                                ",
"                                              3XSXSXSXSXSXSXSXSXSXSXSXSXSXSXSXcX2.zXSXSXSXSXSXSXSXSXSXSXSXSXSX@X                                                ",
"                                              dXSXSXSXSXSXSXSXSXSXSXSXSXSXSXSXSXcXSXSXSXSXSXSXSXSXSXSXSXSXSXeXE.z 0 0                                           ",
"                                              3XSXSXSXSXSXSXSXSXSXSXSXSXSXSXSXSXSXSXSXSXSXSXSXSXSXSXSXSXeXt.X.Q P Q Q P P x 0                                   ",
"                                      0 z B B X.-./.cXSXSXSXSXSXSXSXSXSXSXSXSXSXSXSXSXSXSXSXSXSXSXSXSX3X$.Q Q Q Q Q Q Q Q Q Q B ,                               ",
"                                0 B P Q Q Q Q Q Q P -.@XSXSXSXSXSXSXSXSXSXSXSXSXSXSXSXSXSXSXSXSXSXSXeXX.Q Q Q Q Q Q Q Q Q Q Q Q Q x                             ",
"                              B Q Q Q Q Q Q Q Q Q Q Q ' @XSXSXSXSXSXSXSXSXSXSXSXSXSXSXSXSXSXSXSXSXSX8.Q Q Q Q Q Q Q Q Q Q Q Q Q Q Q P 0                         ",
"                          d Q Q Q Q Q Q Q Q Q Q Q Q Q Q ' eXSXSXSXSXSXSXSXSXSXSXSXSXSXSXSXSXSXSXSXeX' Q Q Q Q Q Q Q Q Q Q Q Q Q Q Q Q Q B                       ",
"                        B Q Q Q Q Q Q Q Q Q Q Q Q Q Q Q Q 8.SXSXSXSXSXSXSXSXSXSXSXSXSXSXSXSXSXSXSXE.Q Q Q Q Q Q Q Q Q Q Q Q Q Q Q Q Q Q Q P ,                   ",
"                    , P Q Q Q Q Q Q Q Q Q Q Q Q Q Q Q Q Q X.dXSXSXSXSXSXSXSXSXSXSXSXSXSXSXSXSXSXSXK.Q Q Q Q Q Q Q Q Q Q Q Q Q Q Q Q Q Q Q Q T 0                 ",
"                  0 P Q Q Q Q Q Q Q Q Q Q Q Q Q Q Q Q Q Q Q eXSXSXSXSXSXSXSXSXSXSXSXSXSXSXSXSXSXSXK.Q Q Q Q Q Q Q Q Q Q Q Q Q Q Q Q Q Q Q Q Q Q 0               ",
"                0 Q Q Q Q Q Q Q Q Q Q Q Q Q Q Q Q Q Q Q Q Q 3XSXSXSXSXSXSXSXSXSXSXSXSXSXSXSXSXSXSX3X' Q Q Q Q Q Q Q Q Q Q Q Q Q Q Q Q Q Q Q Q Q Q 0             ",
"              0 Q Q Q Q Q Q Q Q Q Q Q Q Q Q Q Q Q Q Q Q Q ' dXSXSXSXSXSXSXSXSXSXSXSXSXSXSXSXSXSXSXcX5.Q Q Q Q Q Q Q Q Q Q Q Q Q Q Q Q Q Q Q Q Q Q T 0           ",
"            0 Q Q Q Q Q Q Q Q Q Q Q Q Q Q Q Q Q Q Q Q Q Q 5.SXSXSXSXSXSXSXSXSXSXSXSXSXSXSXSXSXSXSXSXdX:.P Q Q Q Q Q Q Q Q Q Q Q Q Q Q Q Q Q Q Q Q Q P ,         ",
"          , T Q Q Q Q Q Q Q Q Q Q Q Q Q Q Q Q Q Q Q Q Q X.3XSXSXSXSXSXSXSXSXSXSXSXSXSXSXSXSXSXSXSXSXSXSX@X:.Q Q Q Q Q Q Q Q Q Q Q Q Q Q Q Q Q Q Q Q Q Z         ",
"          P Q Q Q Q Q Q Q Q Q Q Q Q Q Q Q Q Q Q Q Q Q j.dXSXSXSXSXSXSXSXSXSXSXSXSXSXSXSXSXSXSXSXSXSXSXSXSXSXeXj.' P Q Q Q Q Q Q Q Q Q Q Q Q Q Q Q Q Q Q z       ",
"        B Q Q Q Q Q Q Q Q Q Q Q Q Q Q Q Q Q Q Q ' 8.dXSXSXSXSXSXSXSXSXSXSXSXSXSXSXSXSXSXSXSXSXSXSXSXSXSXSXSXSXSXcXE.:.' P Q Q Q Q Q Q Q Q Q Q Q Q Q Q Q Z       ",
"      0 Q Q Q Q Q Q Q Q Q Q Q Q Q Q Q Q Q T $.c.eXSXSXSXSXSXSXSXSXSXSXSXSXSXSXSXSXSXSXSXSXSXSXSXSXSXSXSXSXSXSXSXSXSXcX@XB 0 z B P Q Q Q Q Q Q Q Q Q Q P 0       ",
"      B Q Q Q Q Q Q Q Q Q Q Q Q Q Q P P -./.dXSXSXSXSXSXSXSXSXSXSXSXSXSXSXSXSXSXSXSXSXSXSXSXSXSXSXSXSXSXSXSXSXSXSXSXSXeX          , z Z P T Q Q T P z           ",
"      z T Q Q Q Q Q Q Q Q Q Q P B a     eXSXSXSXSXSXSXSXSXSXSXSXSXSXSXSXSXSXSXSXSXSXSXSXSXSXSXSXSXSXSXSXSXSXSXSXSXSXSX3X                                        ",
"        , B T Q Q Q Q P P z 0           dXSXSXSXSXSXSXSXSXSXSXSXSXSXSXSXSXSXSXSXSXSXSXSXSXSXSXSXSXSXSXSXSXSXSXSXSXSXSX/.                                        ",
"              0 0 0                     dXSXSXSXSXSXSXSXSXSXSXSXSXSXSXSXSXSXSXSXSXSXSXSXSXSXSXSXSXSXSXSXSXSXSXSXSXSXSXK.                                        ",
"                                        eXSXSXSXSXSXSXSXSXSXSXSXSXSXSXSXSXSXSXSXSXSXSXSXSXSXSXSXSXSXSXSXSXSXSXSXSXSXcX8.                                        ",
"                                        3XSXSXSXSXSXSXSXSXSXSXSXSXSXSXSXSXSXSXSXSXSXSXSXSXSXSXSXSXSXSXSXSXSXSXSXSXSXdX                                          ",
"                                        /.SXSXSXSXSXSXSXSXSXSXSXSXSXSXSXSXSXSXSXSXSXSXSXSXSXSXSXSXSXSXSXSXSXSXSXSXSX@X                                          ",
"                                        K.SXSXSXSXSXSXSXSXSXSXSXSXSXSXSXSXSXSXSXSXSXSXSXSXSXSXSXSXSXSXSXSXSXSXSXSXSXK.                                          ",
"                                          cXSXSXSXSXSXSXSXSXSXSXSXSXSXSXSXSXSXSXSXSXSXSXSXSXSXSXSXSXSXSXSXSXSXSXSXcX5.                                          ",
"                                          @XSXSXSXSXSXSXSXSXSXSXSXSXSXSXSXSXSXSXSXSXSXSXSXSXSXSXSXSXSXSXSXSXSXSXSX3X                                            ",
"                                          8.cXSXSXSXSXSXSXSXSXSXSXSXSXSXSXSXSXSXSXSXSXSXSXSXSXSXSXSXSXSXSXSXSXSXSXK.                                            ",
"                                            /.SXSXSXSXSXSXSXSXSXSXSXSXSXSXSXSXSXSXSXSXSXSXSXSXSXSXSXSXSXSXSXSXSXcX                                              ",
"                                              eXSXSXSXSXSXSXSXSXSXSXSXSXSXSXSXSXSXSXSXSXSXSXSXSXSXSXSXSXSXSXSXSXE.                                              ",
"                                                eXSXSXSXSXSXSXSXSXSXSXSXSXSXSXSXSXSXSXSXSXSXSXSXSXSXSXSXSXSXSXeX                                                ",
"                                                  3XSXSXSXSXSXSXSXSXSXSXSXSXSXSXSXSXSXSXSXSXSXSXSXSXSXSXSXSXdX:.                                                ",
"                                                    c.eXSXSXSXSXSXSXSXSXSXSXSXSXSXSXSXSXSXSXSXSXSXSXSXSXSX3X5.                                                  ",
"                                                        c.eXcXSXSXSXSXSXSXSXSXSXSXSXSXSXSXSXSXSXSXSXSXcXE.                                                      ",
"                                                            8./.3XdXcXSXSXSXSXSXSXSXSXSXSXSXSXSXcXeXE.:.                                                        ",
"                                                                  0 ' j.E.3XiXdXdXcXcXcXdXdX@XE.j.                                                              ",
"                                                                  . .             8.t.8.  , #                                                                   ",
"                                                                  . .                     . .                                                                   ",
"                                                                  . .                     . .                                                                   ",
"                                                                  . .                     . .                                                                   ",
"                                                                  . .                     . .                                                                   ",
"                                                                . . .                   . . . .                                                                 ",
"                                                              . . . .                 . . . . . .                                                               ",
"                                                            . . . . . .             . . . . . . . .                                                             ",
"                                                            . . .   . .             . .     .     .                                                             ",
"                                                                .                                                                                               ",
"                                                                                                                                                                ",
"                                                                                                                                                                ",
"                                                                                                                                                                ",
"                                                                                                                                                                ",
"                                                                                                                                                                ",
"                                                                                                                                                                ",
"                                                                                                                                                                ",
"                                                                                                                                                                "
};
