/* XPM */
static char *enemy2[] = {
/* columns rows colors chars-per-pixel */
"80 80 251 2 ",
"   c None",
".  c #000000",
"X  c #010101",
"o  c #0D0D0D",
"O  c #111111",
"+  c #151515",
"@  c #171717",
"#  c #1C1C1C",
"$  c #1F1F1F",
"%  c #242424",
"&  c #272727",
"*  c #2A2A2A",
"=  c #2C2C2C",
"-  c #2D2C2C",
";  c #2D2D2C",
":  c #2E2E2D",
">  c #2F2F2F",
",  c #30302F",
"<  c #313131",
"1  c #333232",
"2  c #333333",
"3  c #343434",
"4  c #353434",
"5  c #363535",
"6  c #363635",
"7  c #363636",
"8  c #373636",
"9  c #373737",
"0  c #383737",
"q  c #383837",
"w  c #383838",
"e  c #393838",
"r  c #393939",
"t  c #3A3939",
"y  c #3B3B3A",
"u  c #3B3B3B",
"i  c #3C3B3B",
"p  c #3D3D3D",
"a  c #3F3E3E",
"s  c #3F3F3F",
"d  c #414040",
"f  c #414141",
"g  c #424242",
"h  c #434242",
"j  c #444444",
"k  c #454444",
"l  c #454545",
"z  c #464545",
"x  c #464645",
"c  c #474746",
"v  c #484747",
"b  c #494848",
"n  c #494949",
"m  c #4A4A49",
"M  c #4B4A4A",
"N  c #4C4B4B",
"B  c #4C4C4B",
"V  c #4D4C4C",
"C  c #4E4D4D",
"Z  c #4F4E4E",
"A  c #504F4F",
"S  c #505050",
"D  c #515050",
"F  c #515150",
"G  c #515151",
"H  c #525151",
"J  c #525251",
"K  c #535251",
"L  c #535252",
"P  c #545353",
"I  c #555454",
"U  c #565555",
"Y  c #565655",
"T  c #575656",
"R  c #585757",
"E  c #595959",
"W  c #5A5959",
"Q  c #5A5A5A",
"!  c #5D5C5C",
"~  c #5E5D5D",
"^  c #60605F",
"/  c #616060",
"(  c #626262",
")  c #636363",
"_  c #656464",
"`  c #676666",
"'  c #696968",
"]  c #6C6C6C",
"[  c #6D6C6C",
"{  c #6F6E6E",
"}  c #707070",
"|  c #717070",
" . c #727272",
".. c #747473",
"X. c #757575",
"o. c #767676",
"O. c #777777",
"+. c #797878",
"@. c #797979",
"#. c #7C7C7B",
"$. c #AA322D",
"%. c #946966",
"&. c #818181",
"*. c #828282",
"=. c #848483",
"-. c #848484",
";. c #858484",
":. c #858584",
">. c #858585",
",. c #868686",
"<. c #878786",
"1. c #898989",
"2. c #8A8989",
"3. c #8A8A8A",
"4. c #8B8B8A",
"5. c #8B8B8B",
"6. c #8C8C8B",
"7. c #8D8C8C",
"8. c #8D8D8C",
"9. c #8D8D8D",
"0. c #8F8F8F",
"q. c #908F8F",
"w. c #909090",
"e. c #919090",
"r. c #919191",
"t. c #929291",
"y. c #949494",
"u. c #959594",
"i. c #959595",
"p. c #969696",
"a. c #979796",
"s. c #979797",
"d. c #989898",
"f. c #999999",
"g. c #9B9B9B",
"h. c #9C9C9C",
"j. c #9D9D9C",
"k. c #9D9D9D",
"l. c #9E9E9E",
"z. c #9F9E9E",
"x. c #9F9F9F",
"c. c #A0A0A0",
"v. c #A1A1A1",
"b. c #A2A1A1",
"n. c #A3A2A2",
"m. c #A3A3A2",
"M. c #A3A3A3",
"N. c #A4A3A3",
"B. c #A7A7A7",
"V. c #A8A8A8",
"C. c #A9A8A8",
"Z. c #A9A9A8",
"A. c #A9A9A9",
"S. c #AAA9A9",
"D. c #AAAAAA",
"F. c #ABABAB",
"G. c #ACACAB",
"H. c #ADADAC",
"J. c #ADADAD",
"K. c #AEAEAE",
"L. c #AFAFAE",
"P. c #AFAFAF",
"I. c #B1A2A1",
"U. c #B4A7A6",
"Y. c #B0B0B0",
"T. c #B1B1B1",
"R. c #B2B2B2",
"E. c #B3B3B3",
"W. c #B4B4B3",
"Q. c #B4B4B4",
"!. c #B5B5B5",
"~. c #B6B5B5",
"^. c #B6B6B6",
"/. c #B7B7B7",
"(. c #B8B7B7",
"). c #B8B8B8",
"_. c #B9B8B8",
"`. c #B9B9B8",
"'. c #BABABA",
"]. c #BBBBBB",
"[. c #BCBCBC",
"{. c #BDBDBD",
"}. c #BEBEBD",
"|. c #BEBEBE",
" X c #BFBEBE",
".X c #BFBFBF",
"XX c #C0BFBF",
"oX c #C0C0BF",
"OX c #C0C0C0",
"+X c #C1C0C0",
"@X c #C1C1C0",
"#X c #C1C1C1",
"$X c #C2C2C2",
"%X c #C3C3C2",
"&X c #C3C3C3",
"*X c #C4C3C3",
"=X c #C4C4C4",
"-X c #C5C5C5",
";X c #C6C6C6",
":X c #C7C6C6",
">X c #C7C7C7",
",X c #C8C8C8",
"<X c #C9C9C9",
"1X c #CBCBCB",
"2X c #CCCCCC",
"3X c #CDCDCC",
"4X c #CDCDCD",
"5X c #CECECD",
"6X c #CECECE",
"7X c #CFCFCE",
"8X c #D0D0D0",
"9X c #D2D1D1",
"0X c #D2D2D2",
"qX c #D3D3D2",
"wX c #D4D4D4",
"eX c #D5D5D5",
"rX c #D6D6D6",
"tX c #D7D7D7",
"yX c #D8D7D7",
"uX c #D8D8D8",
"iX c #D9D9D9",
"pX c #DAD9D9",
"aX c #DADADA",
"sX c #DBDBDB",
"dX c #DCDCDC",
"fX c #DDDDDC",
"gX c #DDDDDD",
"hX c #DFDCDC",
"jX c #DFDDDC",
"kX c #DEDEDE",
"lX c #DFDFDF",
"zX c #E0DFDF",
"xX c #E0E0DF",
"cX c #E0E0E0",
"vX c #E1E1E0",
"bX c #E1E1E1",
"nX c #E2E2E2",
"mX c #E3E2E2",
"MX c #E3E3E2",
"NX c #E3E3E3",
"BX c #E4E4E3",
"VX c #E4E4E4",
"CX c #E5E5E5",
"ZX c #E6E6E6",
"AX c #E7E7E7",
"SX c #E8E8E8",
"DX c #E9E9E9",
"FX c #EAEAEA",
"GX c #EBEBEA",
"HX c #EBEBEB",
"JX c #ECECEC",
/* pixels */
"                                                                                                                                                                ",
"                                                                                                                                                                ",
"                                                                                                                                                                ",
"                                                                                                                                                                ",
"                                                                                                                                                                ",
"                                                                                                                                                                ",
"                                                                                                                                                                ",
"                                                                                                                                                                ",
"                                                                                                              w                                                 ",
"                                              j                                 0.r.r.0.                    C.                                                  ",
"                                              h.].r.              r.C.].3XlXZXZXZXJXZXZXZXlX9X@XE.h.    0.@XlX                                                  ",
"                                              M.JXZXlX9X9X9X9XlXZXZXJXJXJXJXJXJXJXJXJXJXJXJXJXJXJXZXlXlXZXJX@X                                                  ",
"                                              C.JXJXJXJXJXJXJXJXJXJXJXJXJXJXJXJXJXJXJXJXJXJXJXJXJXJXJXJXJXJX].                                                  ",
"                                              M.JXJXJXJXJXJXJXJXJXJXJXJXJXJXJXJXJXJXJXJXJXJXlX9XlXZXJXJXJXJXE.                                                  ",
"                                              h.JXJXJXJXJXJXJXJXJXJXJXJXJXJXJXJXJXJXJXJXlX].].3X].E.9XJXJXJXC.                                                  ",
"                                              r.JXJXJXJXJXJXJXJXJXJXJXJXJXJXJXJXJXJXJXlXE.ZXJXJXJXZXE.lXJXJXC.                                                  ",
"                                              r.JXJXJXJXJXJXJXJXJXJXJXJXJXJXJXJXJXJXJX3XZX9X].@X].9XlXlXJXJXC.                                                  ",
"                                              0.JXJX9XlXJXJXJXJXJXJXJXJXJXlX9XJXJXJXJXJX3X3XJX9XJX3X9XJXJXZXh.                                                  ",
"                                              0.JXJXZX@XM.r.C.M.h.r.X.[ r.h.lXJXJXJXJXZX].C.> O 1 9XE.ZXJXZXh.                                                  ",
"                                              0.JXJXJXJXlX@X].O X X X & 9X].JXJXJXJXJX3XC.> X X X @.3X9XJXZXC.                                                  ",
"                                              0.JXJXJXJXJX(.C.X X X X $ 3XXXJXJXJXJXJX@XC.O X X X X.3X9XJXZXh.                                                  ",
"                                              r.JXJXJXJXJX@XE.$ X X o X.zX@XJXJXJXJXJX@X3XX.> $ j 3X@XZXJXZXM.                                                  ",
"                                              r.JXJXJXJXJXZXE.XX@.X.C.JX].lXJXJXJXJXJXlX(.lXlX3X@X@XlXJXJXJXC.                                                  ",
"                                              M.JXJXJXJXJXJX3XE.].].@X].lXJXJXJXJXJXJXJXJX@XC.E.9XJXJXJXJXJX].                                                  ",
"                                              C.JXJXJXJXJXJXJXJXJXJXJXJXJXJXJXZX@X9XJXJXJXJXJXJXJXJXJXJXJXJXZX                                                  ",
"                                              C.JXJXJXJXJXJXJXJXJXJXJXJXJXJXJXI.$.I.JXJXJXJXJXJXJXJXJXJXJXJXJXr.                                                ",
"                                              E.JXJXJXJXJXJXJXJXJXJXJXJXJXJXJXlX%.lXJXJXJXJXJXJXJXJXJXJXJXJXJX@X                                                ",
"                                              @XJXJXJXJXJXJXJXJXJXJXJXJXJXJXJXJXlXJXJXJXJXJXJXJXJXJXJXJXJXJXJXZX                                                ",
"                                              lXJXJXJXJXJXJXJXJXJXJXJXJXJXJXJXJXJXJXJXJXJXJXJXJXJXJXZX@XM.0.*.r.[                                               ",
"                                            w r.*.*.r.@XZXJXJXJXJXJXJXJXJXJXJXJXJXJXJXJXJXJXJXJXJXZX0.E A L L L m j >                                           ",
"                                          1 j L L L L m *.lXJXJXJXJXJXJXJXJXJXJXJXJXJXJXJXJXJXJXJX0.L L L L L L L L A 1                                         ",
"                                        j L L L L L L L L [ lXJXJXJXJXJXJXJXJXJXJXJXJXJXJXJXJXJX@XL L L L L L L L L L L w                                       ",
"                                      m L L L L L L L L L L 0.JXJXJXJXJXJXJXJXJXJXJXJXJXJXJXJXJX0.L L L L L L L L L L L A 1                                     ",
"                                    j L L L L L L L L L L L / ZXJXJXJXJXJXJXJXJXJXJXJXJXJXJXJXJX*.L L L L L L L L L L L L j                                     ",
"                                  1 L L L L L L L L L L L L / ZXJXJXJXJXJXJXJXJXJXJXJXJXJXJXJXJXM.L L L L L L L L L L L L L >                                   ",
"                                  v L L L L L L L L L L L L X.JXJXJXJXJXJXJXJXJXJXJXJXJXJXJXJXJX@XL L L L L L L L L L L L L s                                   ",
"                                  A L L L L L L L L L L L L *.JXJXJXJXJXJXJXJXJXJXJXJXJXJXJXJXJXlXR L L L L L L L L L L L L m                                   ",
"                                0 L L L L L L L L L L L L L h.JXJXJXJXJXJXJXJXJXJXJXJXJXJXJXJXJXJXX.L L L L L L L L L L L L L                                   ",
"                                w L L L L L L L L L L L L L ].JXJXJXJXJXJXJXJXJXJXJXJXJXJXJXJXJXJXq.L L L L L L L L L L L L L 1                                 ",
"                                j L L L L L L L L L L L L L lXJXJXJXJXJXJXJXJXJXJXJXJXJXJXJXJXJXJXE.L L L L L L L L L L L L L w                                 ",
"                                m L L L L L L L L L L L L [ JXJXJXJXJXJXJXJXJXJXJXJXJXJXJXJXJXJXJX9XE L L L L L L L L L L L L w                                 ",
"                                L L L L L L L L L L L L L h.JXJXJXJXJXJXJXJXJXJXJXJXJXJXJXJXJXJXJXJX@.L L L L L L L L L L L L w                                 ",
"                                L L L L L L L L L L L L L XXJXJXJXJXJXJXJXJXJXJXJXJXJXJXJXJXJXJXJXJXC.L L L L L L L L L L L L w                                 ",
"                                L L L L L L L L L L L L / lXJXJXJXJXJXJXJXJXJXJXJXJXJXJXJXJXJXJXJXJXlX/ L L L L L L L L L L L w                                 ",
"                                L L L L L L L L L L L L *.JXJXJXJXJXJXJXJXJXJXJXJXJXJXJXJXJXJXJXJXJXJX0.L L L L L L L L L L L w                                 ",
"                                L L L L L L L L L L L L E.JXJXJXJXJXJXJXJXJXJXJXJXJXJXJXJXJXJXJXJXJXJX].R L L L L L L L L L L w                                 ",
"                                m L L L L L L L L L L ^ lXJXJXJXJXJXJXJXJXJXJXJXJXJXJXJXJXJXJXJXJXJXJXZXX.L L L L L L L L L L w                                 ",
"                                j L L L L L L L L L L 0.JXJXJXJXJXJXJXJXJXJXJXJXJXJXJXJXJXJXJXJXJXJXJXJXM.m L L L L L L L L L w                                 ",
"                                w L L L L L L L L L R 3XJXJXJXJXJXJXJXJXJXJXJXJXJXJXJXJXJXJXJXJXJXJXJXJXlXE L L L L L L L L L 0                                 ",
"                                w L L L L L L L L L @.ZXJXJXJXJXJXJXJXJXJXJXJXJXJXJXJXJXJXJXJXJXJXJXJXJXJXh.m L L L L L L L L 1                                 ",
"                                1 L L L L L L L L L E.JXJXJXJXJXJXJXJXJXJXJXJXJXJXJXJXJXJXJXJXJXJXJXJXJXJX9X/ L L L L L L L A                                   ",
"                                > L L L L L L L L [ lXJXJXJXJXJXJXJXJXJXJXJXJXJXJXJXJXJXJXJXJXJXJXJXJXJXJXJXM.A L L L L L L m                                   ",
"                                  m L L L L L L m C.JXJXJXJXJXJXJXJXJXJXJXJXJXJXJXJXJXJXJXJXJXJXJXJXJXJXJXJXZXX.L L L L L L w                                   ",
"                                  j L L L L L L X.ZXJXJXJXJXJXJXJXJXJXJXJXJXJXJXJXJXJXJXJXJXJXJXJXJXJXJXJXJXJXlX/ L L L L L >                                   ",
"                                  1 L L L L L E 3XJXJXJXJXJXJXJXJXJXJXJXJXJXJXJXJXJXJXJXJXJXJXJXJXJXJXJXJXJXJXJX@Xm m L L v                                     ",
"                                    m L L L w C.JXJXJXJXJXJXJXJXJXJXJXJXJXJXJXJXJXJXJXJXJXJXJXJXJXJXJXJXJXJXJXJX].    1 w 1                                     ",
"                                    1 m j >   *.lXJXJXJXJXJXJXJXJXJXJXJXJXJXJXJXJXJXJXJXJXJXJXJXJXJXJXJXJXJXJXzX                                                ",
"                                                *.9XJXJXJXJXJXJXJXJXJXJXJXJXJXJXJXJXJXJXJXJXJXJXJXJXJXJXJXJXZX0.                                                ",
"                                                    E.lXJXJXJXJXJXJXJXJXJXJXJXJXJXJXJXJXJXJXJXJXJXJXJXJXJXlXr.                                                  ",
"                                                      0.E.lXJXJXJXJXJXJXJXJXJXJXJXJXJXJXJXJXJXJXJXJXJXZX@X*.                                                    ",
"                                                            r.3XlXZXJXJXJXJXJXJXJXJXJXJXJXJXJXJXJXZX3X0.                                                        ",
"                                                                  E *.E.3XlXlXZXZXJXJXJXZXlX9X@XE.0.                                                            ",
"                                                                  X X           0.0.*.r.0.j &                                                                   ",
"                                                                  X X                     X X                                                                   ",
"                                                                  X X                     X X                                                                   ",
"                                                                  X X                     X X                                                                   ",
"                                                                  X X                     X X                                                                   ",
"                                                                  X X                   X X X X                                                                 ",
"                                                              X X X X                   X X X X X                                                               ",
"                                                            X X X X X X               X X X X X X X                                                             ",
"                                                          X X X X X X X             X X     X   X X                                                             ",
"                                                                X                   X                                                                           ",
"                                                                                                                                                                ",
"                                                                                                                                                                ",
"                                                                                                                                                                ",
"                                                                                                                                                                ",
"                                                                                                                                                                ",
"                                                                                                                                                                ",
"                                                                                                                                                                ",
"                                                                                                                                                                "
};
