/* XPM */
static char *evil1[] = {
/* columns rows colors chars-per-pixel */
"80 80 63 1 ",
"  c None",
". c #000000",
"X c #111111",
"o c #1F1F1F",
"O c #371515",
"+ c #262626",
"@ c #2D2D2D",
"# c #30302F",
"$ c #353534",
"% c #383737",
"& c #383837",
"* c #3B3A3A",
"= c #6C1717",
"- c #711C1C",
"; c #4C2A2A",
": c #7F2A2A",
"> c #633636",
", c #444444",
"< c #484747",
"1 c #4C4B4B",
"2 c #504F4F",
"3 c #545353",
"4 c #585757",
"5 c #5B5B5B",
"6 c #724545",
"7 c #60605F",
"8 c #636362",
"9 c #6D6C6C",
"0 c #737373",
"q c #7A7A79",
"w c #880000",
"e c #AA0000",
"r c #A00D0D",
"t c #812C2C",
"y c #AA322D",
"u c #CC0000",
"i c #DE0101",
"p c red",
"a c #946966",
"s c #827777",
"d c #858484",
"f c #8C8C8C",
"g c #908F8F",
"h c #949494",
"j c #9D9C9C",
"k c #A2A2A2",
"l c #ABABAB",
"z c #B2A5A3",
"x c #B4A9A9",
"c c #B4B3B3",
"v c #B8B7B7",
"b c #BCBCBC",
"n c #C0BFBF",
"m c #C0C0BF",
"M c #C3C3C3",
"N c #CCCBCB",
"B c #D5D4D4",
"V c #D8D7D7",
"C c #DCDCDC",
"Z c #E0DFDF",
"A c #E0E0DF",
"S c #E4E4E4",
"D c #ECECEC",
/* pixels */
"                                                                                ",
"                                                                                ",
"                                                                                ",
"                                                                                ",
"                                                                                ",
"                                                                                ",
"                                                                                ",
"                                                                                ",
"                                                       &                        ",
"                       ,                fhhf          l                         ",
"                       jbh       hlbNCSSSDSSSCBMcj  fMC                         ",
"                       kDSCBBBBCSSDDDDDDDDDDDDDDDSCBSDM                         ",
"                       lDDDDDDDDDDDDDDDDDDDDDDDDDDDDDDb                         ",
"                       kDDDDDDDDDDDDDDDDDDDDDDCBCSDDDDc                         ",
"                       jDDDDDDDDDDDDDDDDDDDDCbbNbcBDDDl                         ",
"                       hDDDDDDDDDDDDDDDDDDDCcSDDDScCDDl                         ",
"                       hDDDDDDDDDDDDDDDDDDDNSBbMbBCCDDl                         ",
"                       fDDBCDDDDDDDDDCBDDDDDNNDBDNBDDSj                         ",
"                       fDDZMkhlkjh09hjCDDDDSbx:=>BcSDSj                         ",
"                       fDDDDCMbXuuw+BbDDDDDNl;ppwqNBDSl                         ",
"                       fDDDDDvl.ppeoNmDDDDDMlOppw0NBDSj                         ",
"                       hDDDDDMcoiir0SMDDDDDMNst-6NMSDSk                         ",
"                       hDDDDDScMq0lDbCDDDDDCvCCNMnCDDDl                         ",
"                       kDDDDDDNcbbMbCDDDDDDDDMlcBDDDDDb                         ",
"                       lDDDDDDDDDDDDDDDSMBDDDDDDDDDDDDS                         ",
"                       lDDDDDDDDDDDDDDDzyzDDDDDDDDDDDDDh                        ",
"                       cDDDDDDDDDDDDDDDCaCDDDDDDDDDDDDDM                        ",
"                       MDDDDDDDDDDDDDDDDCDDDDDDDDDDDDDDS                        ",
"                       CDDDDDDDDDDDDDDDDDDDDDDDDDDSMkfdh9                       ",
"                      &hddhMSDDDDDDDDDDDDDDDDDDDDSf423331,@                     ",
"                     $,33331dCDDDDDDDDDDDDDDDDDDDf333333332$                    ",
"                    ,333333339CDDDDDDDDDDDDDDDDDN33333333333&                   ",
"                   13333333333fDDDDDDDDDDDDDDDDDf333333333332#                  ",
"                  ,333333333338SDDDDDDDDDDDDDDDDd333333333333,                  ",
"                 $3333333333338SDDDDDDDDDDDDDDDDk3333333333333@                 ",
"                 ,3333333333330DDDDDDDDDDDDDDDDDM3333333333333&                 ",
"                 2333333333333dDDDDDDDDDDDDDDDDDC43333333333331                 ",
"                $3333333333333jDDDDDDDDDDDDDDDDDS03333333333333                 ",
"                &3333333333333bDDDDDDDDDDDDDDDDDDg3333333333333$                ",
"                ,3333333333333CDDDDDDDDDDDDDDDDDDc3333333333333&                ",
"                13333333333339DDDDDDDDDDDDDDDDDDDB4333333333333%                ",
"                3333333333332jDDDDDDDDDDDDDDDDDDDDq333333333333&                ",
"                3333333333333bDDDDDDDDDDDDDDDDDDDDl233333333333&                ",
"                3333333333338CDDDDDDDDDDDDDDDDDDDDC833333333333&                ",
"                333333333333dDDDDDDDDDDDDDDDDDDDDDDf33333333333&                ",
"                333333333333cDDDDDDDDDDDDDDDDDDDDDDb43333333333&                ",
"                133333333337CDDDDDDDDDDDDDDDDDDDDDDC03333333333&                ",
"                ,3333333333fDDDDDDDDDDDDDDDDDDDDDDDDk1333333333$                ",
"                &3333333333NDDDDDDDDDDDDDDDDDDDDDDDDC4333333333%                ",
"                &333333333qSDDDDDDDDDDDDDDDDDDDDDDDDDj133333333$                ",
"                $333333333cDDDDDDDDDDDDDDDDDDDDDDDDDDB833333332                 ",
"                @333333339CDDDDDDDDDDDDDDDDDDDDDDDDDDDk23333331                 ",
"                 13333331lDDDDDDDDDDDDDDDDDDDDDDDDDDDDS0333333&                 ",
"                 ,3333330SDDDDDDDDDDDDDDDDDDDDDDDDDDDDDC833333@                 ",
"                 $333334NDDDDDDDDDDDDDDDDDDDDDDDDDDDDDDDM1133<                  ",
"                  1333&lDDDDDDDDDDDDDDDDDDDDDDDDDDDDDDDDb  $&$                  ",
"                  $1,@ dCDDDDDDDDDDDDDDDDDDDDDDDDDDDDDDZ                        ",
"                        dBDDDDDDDDDDDDDDDDDDDDDDDDDDDDSf                        ",
"                          cCDDDDDDDDDDDDDDDDDDDDDDDDDCh                         ",
"                           fcCDDDDDDDDDDDDDDDDDDDDDSMd                          ",
"                              hNCSDDDDDDDDDDDDDDDSNf                            ",
"                                 4dcNCCSSDDDSCBMcf                              ",
"                                 ..     ffdhf,+                                 ",
"                                 ..          ..                                 ",
"                                 ..          ..                                 ",
"                                 ..          ..                                 ",
"                                 ..          ..                                 ",
"                                 ..         ....                                ",
"                               ....         .....                               ",
"                              ......       .......                              ",
"                             .......      ..  . ..                              ",
"                                .         .                                     ",
"                                                                                ",
"                                                                                ",
"                                                                                ",
"                                                                                ",
"                                                                                ",
"                                                                                ",
"                                                                                ",
"                                                                                "
};
