/* XPM */
static char *evil2[] = {
/* columns rows colors chars-per-pixel */
"80 80 254 2 ",
"   c None",
".  c #000000",
"X  c #050505",
"o  c #080808",
"O  c #1C1C1C",
"+  c #2A0F0F",
"@  c #391717",
"#  c #222222",
"$  c #282828",
"%  c #2A2929",
"&  c #2A2A2A",
"*  c #2B2A2A",
"=  c #2C2C2C",
"-  c #2D2C2C",
";  c #2E2D2D",
":  c #2E2E2E",
">  c #302F2F",
",  c #303030",
"<  c #313030",
"1  c #313131",
"2  c #323131",
"3  c #323231",
"4  c #323232",
"5  c #333332",
"6  c #343333",
"7  c #343434",
"8  c #353534",
"9  c #353535",
"0  c #363535",
"q  c #363635",
"w  c #363636",
"e  c #373636",
"r  c #373736",
"t  c #383636",
"y  c #383736",
"u  c #393838",
"i  c #393939",
"p  c #3A3939",
"a  c #3A3A3A",
"s  c #3B3B3A",
"d  c #3D3C3C",
"f  c #3D3D3D",
"g  c #3E3E3D",
"h  c #570202",
"j  c #580303",
"k  c #531B1A",
"l  c #700303",
"z  c #403F3F",
"x  c #414140",
"c  c #414141",
"v  c #424141",
"b  c #434343",
"n  c #444343",
"m  c #444443",
"M  c #444444",
"N  c #454444",
"B  c #464545",
"V  c #474746",
"C  c #484747",
"Z  c #494848",
"A  c #494949",
"S  c #4A4949",
"D  c #4A4A49",
"F  c #4B4A4A",
"G  c #4B4B4A",
"H  c #4C4B4B",
"J  c #4D4C4C",
"K  c #4D4D4D",
"L  c #4E4D4D",
"P  c #4E4E4E",
"I  c #4F4E4E",
"U  c #504F4F",
"Y  c #505050",
"T  c #515050",
"R  c #515151",
"E  c #525151",
"W  c #535252",
"Q  c #535352",
"!  c #545353",
"~  c #555454",
"^  c #555554",
"/  c #565656",
"(  c #575757",
")  c #585857",
"_  c #595858",
"`  c #5A5959",
"'  c #5B5A5A",
"]  c #5C5C5C",
"[  c #5D5C5C",
"{  c #5D5D5C",
"}  c #5E5D5D",
"|  c #5F5F5F",
" . c #616060",
".. c #626262",
"X. c #646464",
"o. c #666666",
"O. c #686868",
"+. c #6A6A6A",
"@. c #6B6A6A",
"#. c #727171",
"$. c #727272",
"%. c #737373",
"&. c #767676",
"*. c #7A7979",
"=. c #7D7D7C",
"-. c #7E7E7D",
";. c #7E7E7E",
":. c #7F7F7F",
">. c #880000",
",. c #AA0000",
"<. c #9E2828",
"1. c #A92B28",
"2. c #CC0000",
"3. c #E80B0B",
"4. c red",
"5. c #F31616",
"6. c #884F4F",
"7. c #977977",
"8. c #BA6565",
"9. c #C77272",
"0. c #808080",
"q. c #818080",
"w. c #828282",
"e. c #868686",
"r. c #898888",
"t. c #8A8A8A",
"y. c #8B8B8B",
"u. c #8C8C8C",
"i. c #8D8D8D",
"p. c #8E8E8E",
"a. c #8F8F8F",
"s. c #909090",
"d. c #919090",
"f. c #929191",
"g. c #939392",
"h. c #939393",
"j. c #949494",
"k. c #989898",
"l. c #9A9A99",
"z. c #9A9A9A",
"x. c #9D9C9C",
"c. c #9D9D9C",
"v. c #9D9D9D",
"b. c #9E9E9E",
"n. c #9F9F9E",
"m. c #9F9F9F",
"M. c #A88A8A",
"N. c #A09F9F",
"B. c #A0A09F",
"V. c #A0A0A0",
"C. c #A1A1A1",
"Z. c #A2A2A2",
"A. c #A3A2A2",
"S. c #A3A3A3",
"D. c #A4A4A4",
"F. c #A5A5A5",
"G. c #A7A7A7",
"H. c #ADA7A5",
"J. c #A8A8A8",
"K. c #A9A8A8",
"L. c #A9A9A8",
"P. c #AAAAA9",
"I. c #AAAAAA",
"U. c #ABABAA",
"Y. c #ABABAB",
"T. c #ACACAC",
"R. c #ADADAD",
"E. c #AEAEAE",
"W. c #AFAFAF",
"Q. c #B0ACAC",
"!. c #B0B0B0",
"~. c #B1B0B0",
"^. c #B1B1B1",
"/. c #B2B2B2",
"(. c #B3B3B3",
"). c #B4B4B4",
"_. c #B5B5B4",
"`. c #B5B5B5",
"'. c #B7B6B6",
"]. c #B8B8B7",
"[. c #B8B8B8",
"{. c #B9B8B8",
"}. c #B9B9B9",
"|. c #BABABA",
" X c #BBBBBB",
".X c #BCBCBC",
"XX c #BDBDBD",
"oX c #BEBEBE",
"OX c #BFBFBF",
"+X c #C1B0AF",
"@X c #C0C0C0",
"#X c #C1C1C0",
"$X c #C1C1C1",
"%X c #C2C1C1",
"&X c #C2C2C2",
"*X c #C3C3C3",
"=X c #C4C3C3",
"-X c #C4C4C4",
";X c #C5C5C5",
":X c #C6C6C6",
">X c #C7C6C6",
",X c #C7C7C6",
"<X c #C7C7C7",
"1X c #C8C7C7",
"2X c #C8C8C7",
"3X c #CAC8C7",
"4X c #C8C8C8",
"5X c #C9C9C9",
"6X c #CBCBCB",
"7X c #CCCCCC",
"8X c #CDCDCD",
"9X c #CECECE",
"0X c #CFCECE",
"qX c #CFCFCF",
"wX c #D0CFCF",
"eX c #D0D0D0",
"rX c #D1D1D0",
"tX c #D1D1D1",
"yX c #D2D2D1",
"uX c #D2D2D2",
"iX c #D3D2D2",
"pX c #D3D3D3",
"aX c #D4D3D3",
"sX c #D4D4D4",
"dX c #D5D5D5",
"fX c #D6D6D5",
"gX c #D6D6D6",
"hX c #D7D7D7",
"jX c #D8D8D8",
"kX c #D9D9D9",
"lX c #DADAD9",
"zX c #DADADA",
"xX c #DBDBDB",
"cX c #DCDCDC",
"vX c #DDDDDD",
"bX c #DEDEDE",
"nX c #DFDEDE",
"mX c #DFDFDE",
"MX c #DFDFDF",
"NX c #E0DEDE",
"BX c #E0E0E0",
"VX c #E1E1E1",
"CX c #E2E2E2",
"ZX c #E3E2E2",
"AX c #E3E3E3",
"SX c #E4E4E4",
"DX c #E5E5E5",
"FX c #E6E6E6",
"GX c #E7E7E7",
"HX c #E8E8E8",
"JX c #E9E9E9",
"KX c #EAEAEA",
"LX c #EBEBEB",
"PX c #ECECEC",
/* pixels */
"                                                                                                                                                                ",
"                                                                                                                                                                ",
"                                                                                                                                                                ",
"                                                                                                                                                                ",
"                                                                                                                                                                ",
"                                                                                                                                                                ",
"                                                                                                                                                                ",
"                                                                                                                                                                ",
"                                                                                                              N                                                 ",
"                                              +.                          d.b.E.).E.E.Q.V.b.              &.{.                                                  ",
"                                              E.sXV.w.          t.V.2XsXxXVXVXPXPXPXPXPXVXVXVXxXqXE.w.  b.xXsX                                                  ",
"                                              ).PXPXVXsXsXsXsXxXPXPXPXPXPXPXPXPXPXPXPXPXPXPXPXPXPXPXVXxXPXPXsX                                                  ",
"                                              ).PXPXPXPXPXPXPXPXPXPXPXPXPXPXPXPXPXPXPXPXPXPXPXPXPXPXPXPXPXPXqX                                                  ",
"                                              E.PXPXPXPXPXPXPXPXPXPXPXPXPXPXPXPXPXPXPXPXPXVXsX;XqXxXPXPXPXPX{.                                                  ",
"                                              V.PXPXPXPXPXPXPXPXPXPXPXPXPXPXPXPXPXPXPXPXsX{.sXVXsX{.;XPXPXPXE.                                                  ",
"                                              V.PXPXPXPXPXPXPXPXPXPXPXPXPXPXPXPXPXPXPXsX).PXPXVXPXPX{.xXPXPXV.                                                  ",
"                                              V.PXPXPXPXPXPXPXPXPXPXPXPXPXPXPXPXPXPXPXxXVX;X;XqX{.1XVXVXPXPXV.                                                  ",
"                                              B.PXPX;X;XVXPXPXPXPXPXPXPXVXqX;XPXPXPXPXPX{.xXxX{.xXxXqXPXPXPXb.                                                  ",
"                                              b.PXPXxXqX).b.E.&.9.8.6.E E.b.VXPXPXPXPXxX;XM.5.3.<.qX;XVXPXPXd.                                                  ",
"                                              b.PXPXPXPXVX;X{.. 4.4.,.O sXE.PXPXPXPXPX;X{.@ 4.4.>.+.sXxXPXPXt.                                                  ",
"                                              V.PXPXPXPXPX;Xb.. 4.4.,.# qX{.PXPXPXPXPX{.;X+ 2.2.l =.sXxXPXPXd.                                                  ",
"                                              V.PXPXPXPXPX;X;X= j h k d.xXqXPXPXPXPXPX;XxXb.L g &.sX;XVXPXPXV.                                                  ",
"                                              V.PXPXPXPXPXxX).xXb.b.wXPX{.VXPXPXPXPXPXVX).qXVXxX{.{.VXPXPXPX).                                                  ",
"                                              E.PXPXPXPXPXPXsX].;X;X;X;XVXPXPXPXPXPXPXPXPXsX{.;XVXPXPXPXPXPXqX                                                  ",
"                                              ).PXPXPXPXPXPXPXPXPXPXPXPXPXPXPXsXQ.2XPXPXPXPXPXPXPXPXPXPXPXPXVX                                                  ",
"                                              {.PXPXPXPXPXPXPXPXPXPXPXPXPXPXPXH.1.+XPXPXPXPXPXPXPXPXPXPXPXPXPXV.                                                ",
"                                              qXPXPXPXPXPXPXPXPXPXPXPXPXPXPXPXVX7.NXPXPXPXPXPXPXPXPXPXPXPXPXPX;X                                                ",
"                                              xXPXPXPXPXPXPXPXPXPXPXPXPXPXPXPXPXVXPXPXPXPXPXPXPXPXPXPXPXPXPXsX).g 5 5                                           ",
"                                              qXPXPXPXPXPXPXPXPXPXPXPXPXPXPXPXPXPXPXPXPXPXPXPXPXPXPXPXPXsXd. .E L E E L L z 5                                   ",
"                                      5 g N N  .&.{.VXPXPXPXPXPXPXPXPXPXPXPXPXPXPXPXPXPXPXPXPXPXPXPXPXqX+.E E E E E E E E E E N =                               ",
"                                5 N L E E E E E E L &.;XPXPXPXPXPXPXPXPXPXPXPXPXPXPXPXPXPXPXPXPXPXPXsX .E E E E E E E E E E E E E z                             ",
"                              N E E E E E E E E E E E _ ;XPXPXPXPXPXPXPXPXPXPXPXPXPXPXPXPXPXPXPXPXPXt.E E E E E E E E E E E E E E E L 5                         ",
"                          u E E E E E E E E E E E E E E _ sXPXPXPXPXPXPXPXPXPXPXPXPXPXPXPXPXPXPXPXsX_ E E E E E E E E E E E E E E E E E N                       ",
"                        N E E E E E E E E E E E E E E E E t.PXPXPXPXPXPXPXPXPXPXPXPXPXPXPXPXPXPXPX).E E E E E E E E E E E E E E E E E E E L =                   ",
"                    = L E E E E E E E E E E E E E E E E E  .xXPXPXPXPXPXPXPXPXPXPXPXPXPXPXPXPXPXPXE.E E E E E E E E E E E E E E E E E E E E U 5                 ",
"                  5 L E E E E E E E E E E E E E E E E E E E sXPXPXPXPXPXPXPXPXPXPXPXPXPXPXPXPXPXPXE.E E E E E E E E E E E E E E E E E E E E E E 5               ",
"                5 E E E E E E E E E E E E E E E E E E E E E qXPXPXPXPXPXPXPXPXPXPXPXPXPXPXPXPXPXPXqX_ E E E E E E E E E E E E E E E E E E E E E E 5             ",
"              5 E E E E E E E E E E E E E E E E E E E E E _ xXPXPXPXPXPXPXPXPXPXPXPXPXPXPXPXPXPXPXVXw.E E E E E E E E E E E E E E E E E E E E E E U 5           ",
"            5 E E E E E E E E E E E E E E E E E E E E E E w.PXPXPXPXPXPXPXPXPXPXPXPXPXPXPXPXPXPXPXPXxX=.L E E E E E E E E E E E E E E E E E E E E E L =         ",
"          = U E E E E E E E E E E E E E E E E E E E E E  .qXPXPXPXPXPXPXPXPXPXPXPXPXPXPXPXPXPXPXPXPXPXPX;X=.E E E E E E E E E E E E E E E E E E E E E C         ",
"          L E E E E E E E E E E E E E E E E E E E E E b.xXPXPXPXPXPXPXPXPXPXPXPXPXPXPXPXPXPXPXPXPXPXPXPXPXPXsXb._ L E E E E E E E E E E E E E E E E E E g       ",
"        N E E E E E E E E E E E E E E E E E E E _ t.xXPXPXPXPXPXPXPXPXPXPXPXPXPXPXPXPXPXPXPXPXPXPXPXPXPXPXPXPXPXVX).=._ L E E E E E E E E E E E E E E E C       ",
"      5 E E E E E E E E E E E E E E E E E U +.V.sXPXPXPXPXPXPXPXPXPXPXPXPXPXPXPXPXPXPXPXPXPXPXPXPXPXPXPXPXPXPXPXPXPXVX;XN 5 g N L E E E E E E E E E E L 5       ",
"      N E E E E E E E E E E E E E E L L &.{.xXPXPXPXPXPXPXPXPXPXPXPXPXPXPXPXPXPXPXPXPXPXPXPXPXPXPXPXPXPXPXPXPXPXPXPXPXsX          = g C L U E E U L g           ",
"      g U E E E E E E E E E E L N t     sXPXPXPXPXPXPXPXPXPXPXPXPXPXPXPXPXPXPXPXPXPXPXPXPXPXPXPXPXPXPXPXPXPXPXPXPXPXPXqX                                        ",
"        = N U E E E E L L g 5           xXPXPXPXPXPXPXPXPXPXPXPXPXPXPXPXPXPXPXPXPXPXPXPXPXPXPXPXPXPXPXPXPXPXPXPXPXPXPX{.                                        ",
"              5 5 5                     xXPXPXPXPXPXPXPXPXPXPXPXPXPXPXPXPXPXPXPXPXPXPXPXPXPXPXPXPXPXPXPXPXPXPXPXPXPXPXE.                                        ",
"                                        sXPXPXPXPXPXPXPXPXPXPXPXPXPXPXPXPXPXPXPXPXPXPXPXPXPXPXPXPXPXPXPXPXPXPXPXPXPXVXt.                                        ",
"                                        qXPXPXPXPXPXPXPXPXPXPXPXPXPXPXPXPXPXPXPXPXPXPXPXPXPXPXPXPXPXPXPXPXPXPXPXPXPXxX                                          ",
"                                        {.PXPXPXPXPXPXPXPXPXPXPXPXPXPXPXPXPXPXPXPXPXPXPXPXPXPXPXPXPXPXPXPXPXPXPXPXPX;X                                          ",
"                                        E.PXPXPXPXPXPXPXPXPXPXPXPXPXPXPXPXPXPXPXPXPXPXPXPXPXPXPXPXPXPXPXPXPXPXPXPXPXE.                                          ",
"                                          VXPXPXPXPXPXPXPXPXPXPXPXPXPXPXPXPXPXPXPXPXPXPXPXPXPXPXPXPXPXPXPXPXPXPXPXVXw.                                          ",
"                                          ;XPXPXPXPXPXPXPXPXPXPXPXPXPXPXPXPXPXPXPXPXPXPXPXPXPXPXPXPXPXPXPXPXPXPXPXqX                                            ",
"                                          t.VXPXPXPXPXPXPXPXPXPXPXPXPXPXPXPXPXPXPXPXPXPXPXPXPXPXPXPXPXPXPXPXPXPXPXE.                                            ",
"                                            {.PXPXPXPXPXPXPXPXPXPXPXPXPXPXPXPXPXPXPXPXPXPXPXPXPXPXPXPXPXPXPXPXPXVX                                              ",
"                                              sXPXPXPXPXPXPXPXPXPXPXPXPXPXPXPXPXPXPXPXPXPXPXPXPXPXPXPXPXPXPXPXPX).                                              ",
"                                                sXPXPXPXPXPXPXPXPXPXPXPXPXPXPXPXPXPXPXPXPXPXPXPXPXPXPXPXPXPXPXsX                                                ",
"                                                  qXPXPXPXPXPXPXPXPXPXPXPXPXPXPXPXPXPXPXPXPXPXPXPXPXPXPXPXPXxX=.                                                ",
"                                                    V.sXPXPXPXPXPXPXPXPXPXPXPXPXPXPXPXPXPXPXPXPXPXPXPXPXPXqXw.                                                  ",
"                                                        V.sXVXPXPXPXPXPXPXPXPXPXPXPXPXPXPXPXPXPXPXPXPXVX).                                                      ",
"                                                            t.{.qXxXVXPXPXPXPXPXPXPXPXPXPXPXPXPXVXsX).=.                                                        ",
"                                                                  5 _ b.).qXjXxXxXVXVXVXxXxX;X).b.                                                              ",
"                                                                  . .             t.d.s.  = o                                                                   ",
"                                                                  . .                     . .                                                                   ",
"                                                                  . .                     . .                                                                   ",
"                                                                  . .                     . .                                                                   ",
"                                                                  . .                     . .                                                                   ",
"                                                                . . .                   . . . .                                                                 ",
"                                                              . . . .                 . . . . . .                                                               ",
"                                                            . . . . . .             . . . . . . . .                                                             ",
"                                                            . . .   . .             . .     .     .                                                             ",
"                                                                .                                                                                               ",
"                                                                                                                                                                ",
"                                                                                                                                                                ",
"                                                                                                                                                                ",
"                                                                                                                                                                ",
"                                                                                                                                                                ",
"                                                                                                                                                                ",
"                                                                                                                                                                ",
"                                                                                                                                                                "
};
