/* XPM */
static char *floor1[] = {
/* columns rows colors chars-per-pixel */
"80 80 17 1 ",
"  c #4A332E",
". c #4E3630",
"X c #503731",
"o c #543A33",
"O c #5A3E36",
"+ c #5D4037",
"@ c #5E4138",
"# c #64453B",
"$ c #68473D",
"% c #66493E",
"& c #69493E",
"* c #674B40",
"= c #6D4D41",
"- c #6E5043",
"; c #715345",
": c #735748",
"> c #765A4B",
/* pixels */
"####=>>;$#O.oO##;>>>>:$####O       .+#############O     O#####o       o#####O   ",
"####=>>;##o  O##;>>>>:$####O        O#############O     O#####X       o#####O   ",
"=====;;=++oooO++=----=====$#ooooX   o++######@+###+oooooO##$$$ooooooXooO++++oooo",
">>>>;$#+  O##o  .....o;>>>>;#####o    .@#####. o###########;>>$#######O     o##-",
">>>>;##O  O##o       o;>>>>;#####o     +####@  X###########;>>$#######+     o##;",
">>>>:==#oo+##Ooo   oo+:>>>>;#####o     +##OOOooO##$========;;;$#######+     O==;",
">>>>>>>;########X  @#$>>>>>;#####o     +##. .#####=>>>>>>>>=##########+     #>>>",
">>>>>>>;########o .##$>>>>>;#####o     +##. .#####=>>>>>>>>=##########+     #>>>",
";;>>>>>=OOOOO###OooOO+=;;;;;--$##Oooooo###OoO###OO#-;;>>>>>=##=----=###Ooo  @-;:",
"#$>>>>>$     O#####. .#####=>>;################+  o##=>>>>>=##:>>>>:$####O  o##;",
"#$>>>>>$     O#####. .#####=>>;################+  o##=>>>>>=##:>>>>:$####O  o##;",
";;>>:-=#     O#####OOO##$;;;==#oo@##OooooO#####+  .oo#==$#@OoO;>>>>>;;=###OOOoo#",
">>>>;##O     O##########$>>;##O  O##o    .#####+     o##o    .->>>>>>>;#####O  O",
">>>>;##O     O##########$>>;##O  O##o    .#####+     o##o    .->>>>>>>;#####O  O",
"=$@@OoooOOOOO############==#oo.  O##o    .######OOOOOOoo.     #==>>>>>;######OO#",
"#@     o###################O     O##o    .###########O        @#$>>>>>;#########",
"#O     o###################O     O##o    X###########O        +##;>>>>;#########",
"X.     o##=:::::$##########O  o@@####@@@@#######oXXXXo+@@@@@@+oXoooO$$$#########",
"       o##;>>>>>$##########O  o################+     o########X    .############",
"       o$$;>>>>>$#####$$$##O..o################@.    o########X    .############",
"#O     @:>>>>>>>$####$;>;#####O..O#####o o###########O    .+##.    .#####O.   XO",
"#@     @>>>>>>>>$####$>>:#####O  O#####X  ###########O     O##.    .#####O     O",
"$#ooo.X#>>>>>>::$####$>>:$$$$$@X.O#####X  ###$$$$$$$$O     O@+o..  X###$$#X.   O",
">>::-##=>>>>>=$######$>>>>>>>>-########X  ##$:>>>>>>>$       .+#@. .##$>>-##o  O",
">>>>;##=>>>>>=#######$>>>>>>>>;########X .##$>>>>>>>>$        @##. .##=>>;##O  O",
">>>>;##=;;;;;$###+@++#:>>>>>;;=#####$=$Ooo##$>>>>>>>>=oX   .XoO+Oooo$$->>;##OooO",
">>>>;###########o    o:>>>>;$#######;>>$####$>>>>>>>>-##o  O##o .@#$:>>>>;#####o",
">>>>;###########X    o;>>>>;########;>>$####$>>>>>>>>;##o  O##X .##$>>>>>;#####o",
">>;;;==$########X    o=;;;;=###OO#==;;;$####$;;;>>>;;=##Ooo###X  oO#:>>>>;#####o",
">:$#=>>;########X    .########O  $>>=##########$>>;###########.    o:>>>>;#####o",
">:##=>>;########o    .########O  $>>=##########$>>;###########.    o:>>>>;#####o",
">>;-;;;$OOOOO###OooooO######OOo  O$$######OOO##$;;$OOOOO###OOo   oo+=;;;;$OOOOo.",
">>>>;##O     O#############O        O#####. .#####O     O##o     ########O      ",
">>>>;##O     O#############O        O#####. .#####O     O##o     ########O      ",
"==@@+ooX     O#####OoO=;;;;$OOo  oOO$;;;;=@OO#####O  oOO$;-O     ######ooX     o",
"#@           O#####. o:>>>>;##O  O##;>>>>>$#######O  o##;>>@     #####+        O",
"#@.          O#####X o:>>>>;##O  O#$;>>>>>$#######O  O##;>>@.   X#####O        O",
"##+Oo     oO+###oooOO#>>>>>=oo.  #;;>>>>>>$#$;;;###++$;;>>>-==@O+#####O        #",
"####O     O#####X .##$>>>>>=     *>>>>>>>>$#$>>;#####=>>>>>>>>$#######+        $",
"####O    .O#####o .##$:>>>>$     *>>>>>>>>$#$>>;#####=>>>>>>>>$#######+        *",
":;#####$--;:;=###@####$$#ooo     *>>>>>>>>>:;$$$##OX.ooo#$$$$$o.o#######@@@@@@#-",
">:#####=>>>>>=##########+        *>>>>>>>>>>:$####O     O#####.  ##############;",
">;#####=>>>>>=###$$$$$##+        $:>>>>>>:;;-#####o     o#####o.o+#############=",
"$$#####=>>>>>@..=>>>>;$#+        O$$;>>=$#ooo##@.         .+####+X    o#####O .@",
"#######=>>>>>@  ->>>>>$#+        O##;>>$##. .##+           O#####     o#####o  O",
"#####$$-::;--@oo->>>>>$##oX      o@#=:;$##oXo##@oX       XX@###@O     o#####O  o",
"####=>>;$#O.oO##;>>>>:$####O       .@$############O     O#####o       o#####O   ",
"####=>>;##o  O##;>>>>:$####O        O#############O     O#####X       o#####O   ",
"$$$$=;;=@+oooO+@=----==$$$$#ooooX   o+@######@+@##+ooooo+##$$$oooooooooO++++Oooo",
">>>>;##O  O##o       o;>>>>;#####o     @####@. o###########;>>$#######O     o##;",
">>>>;##O  O##o       o:>>>>;#####o     +####@  X###########;>>$#######O     o##;",
">>>>:==#oo@##Ooo   oo@:>>>>;#####o     +##OOOooO##$========;;;$#######O     +==:",
">>>>>>>;########X  @#$>>>>>;#####o     +##X X#####=>>>>>>>>=##########+     #>>>",
">>>>>>>;########o .@#$>>>>>;#####o     @##. X#####=>>>>>>>>=##########+     #>>>",
";;>>>>>=OOOOO###OoooO+=;;;;;-=$##Oooooo###OoO###OO#-;;>>>>>=##=----=###Ooo  @-;:",
"#$>>>>>$     O#####. .#####=>>;################+  o##=>>>>>=##:>>>>:#####O  o##;",
"#$>>>>>$     O#####X .#####=>>;################+  o##=>>>>>=##:>>>>:$####O  o##;",
";;>>:==@     O#####+O+##$;;;==#oo@##Oooooo#####+   oo@==#@@ooo;>>>>>;;-###OOOoo#",
">>>>;##O     O##########$>>;##O  O##o     #####+     o##o    .->>>>>>>;#####O  O",
">>>>-##O     O##########$>>;##O  O##o     #####@     o##o    .->>>>>>>;#####O  O",
"=$@+OoooO++++############==#oo.  O##o    .######OOOOOOoo      #==>>>>>;######OO#",
"#@     o###################O     O##o    .###########O        @#$>>>>>;#########",
"#O     o###################O     O##o    X###########O       .+##;>>>>;#########",
"..     o##=::>::$##########O  o@@####@@+@#######XX...o@@@@@@@+o.oooO$$$#########",
"       o##;>>>>>$##########O  o################@     o########X    .############",
".      o$$;>>>>>$#####$$$##+X.o#################.....o@#######.    .############",
"#O     @>>>>>>>>$####$;>;#####O .O#####o X###########O    .+##.    .#####O.   .O",
"#@     @>>>>>>>>$####$>>:#####O  O#####X  ###########O     O##.    .#####O     O",
"$$Ooooo#>>>>>>:;$####$>>>=$$$$#Xo+#####X  ###$$$$$$$$+     o+OoX.  .###$$#oX   O",
">>::-##=>>>>>=$$#####$>>>>>>>>-########X  ##$:>>>>>>>$       .+#@  .##$>>-##o  O",
">>>>;##=>>>>>=#######$>>>>>>>>;########X  ##$>>>>>>>>$        +##. X##=>>;##O  O",
">>>>;##=;;;;;=###++++#>>>>>>;;=#####$$$Ooo##$>>>>>>>>*oX   .ooOOOooo$$->>;##OooO",
">>>>;###########X    o:>>>>;########;>>$####$>>>>>>>>;##o  O##X .##$>>>>>;#####o",
">>>>;###########X    o:>>>>;########;>>$####$>>>>>>>>;##o  O##X  ##$>>>>>;#####o",
">>;;;==$########X    o=;;;;=###OO$==;;;$####$-;;>>>;;=##Ooo###X  oO#:>>>>;#####o",
">:$#=>>;########X    .########O  $>>=##########=>>;###########X    o:>>>>;#####o",
">:$#=>>;########X    X########O  $>>=##########$>>;###########.    o:>>>>;#####o",
">>;-;;-$OOooO###OooooO######Ooo  O########OOO##$--$OOOoO###Ooo   oo@=----$OoOoo.",
">>>>;##O     O#############O        O#####. .#####O     O##o    .########O      ",
">>>>;##O     O#############O        O#####. X#####O     O##o    .########O      "
};
