/* XPM */
static char *flower[] = {
/* columns rows colors chars-per-pixel */
"80 80 116 2 ",
"   c None",
".  c black",
"X  c #130F0E",
"o  c #1A1411",
"O  c #1D1512",
"+  c #210D0B",
"@  c #261714",
"#  c #2A1A17",
"$  c #391611",
"%  c #331915",
"&  c #391B17",
"*  c #3A1C19",
"=  c #3C1C18",
"-  c #3E1F1B",
";  c #35201C",
":  c #3E221A",
">  c #2A2320",
",  c #3D2220",
"<  c #441F19",
"1  c #491F1B",
"2  c #521B19",
"3  c #561E19",
"4  c #5E1F1A",
"5  c #621614",
"6  c #701513",
"7  c #711715",
"8  c #43211D",
"9  c #40221D",
"0  c #4F201B",
"q  c #51231D",
"w  c #59201B",
"e  c #59231E",
"r  c #622019",
"t  c #61221D",
"y  c #62241F",
"u  c #63241F",
"i  c #6A201B",
"p  c #6E241F",
"a  c #7D241F",
"s  c #7F281E",
"d  c #472320",
"f  c #412723",
"g  c #462821",
"h  c #472824",
"j  c #5B2823",
"k  c #662823",
"l  c #692922",
"z  c #6B2822",
"x  c #6F2822",
"c  c #642C28",
"v  c #702420",
"b  c #7F2521",
"n  c #7D2720",
"m  c #7A2927",
"M  c #673430",
"N  c #6D3530",
"B  c #851B18",
"V  c #8E1B18",
"C  c #881E1A",
"Z  c #A61D1A",
"A  c #AE1D1B",
"S  c #B51C1B",
"D  c #B71D1B",
"F  c #B11D1C",
"G  c #B61F1C",
"H  c #B91B1B",
"J  c #BC1B1A",
"K  c #BD1B1A",
"L  c #BF1B1B",
"P  c #BB1C1B",
"I  c #BD1C1B",
"U  c #B81F1D",
"Y  c #BC1E1C",
"T  c #BE1E1D",
"R  c #83241F",
"E  c #8E261F",
"W  c #92211C",
"Q  c #93221F",
"!  c #94221D",
"~  c #94231F",
"^  c #A1211E",
"/  c #A4221E",
"(  c #A5221F",
")  c #A6221E",
"_  c #AC201C",
"`  c #AD231E",
"'  c #AF221E",
"]  c #B4211D",
"[  c #B1261E",
"{  c #BC221D",
"}  c #BC201E",
"|  c #822723",
" . c #8F2520",
".. c #892A26",
"X. c #9E2B25",
"o. c #833B34",
"O. c #A82923",
"+. c #B52321",
"@. c #B02721",
"#. c #C61617",
"$. c #C71617",
"%. c #C71717",
"&. c #C61718",
"*. c #C11919",
"=. c #C31919",
"-. c #C51818",
";. c #C41919",
":. c #C51919",
">. c #C61818",
",. c #C61918",
"<. c #C51A19",
"1. c #C51B19",
"2. c #C41A1A",
"3. c #C41B1A",
"4. c #C41C1A",
"5. c #C11F1C",
/* pixels */
"                                                                                                                                                                ",
"                                                                                                                                                                ",
"                                                                                                                                                                ",
"                                                                                                                                                                ",
"                                                                                                                                                                ",
"                                                                                                                                                                ",
"                                                                                                                                                                ",
"                                                                                                                                                                ",
"                                                                                                                                                                ",
"                                                                                                                                                                ",
"                                                                                                                                                                ",
"                                                                                                                                                                ",
"                                                                                                                                                                ",
"                                                                                                                                                                ",
"                                                                                                                                                                ",
"                                                                                                                                                                ",
"                                                                                                                                                                ",
"                                                                                                                                                                ",
"                                                                                                                                                                ",
"                                                                                                                                                                ",
"                                                                                                                                                                ",
"                                                                                                                                                                ",
"                                                                                                                                                                ",
"                                                                            > l C R d                                                                           ",
"                                                                          & ) $.$.$.} 0                                                                         ",
"                                                                        - ) $.$.$.$.$._ -                                                                       ",
"                                                                  - N M % ) $.$.$.$.$.$.2   e r ,                                                               ",
"                                                                v A K K ~ l >.$.$.$.$.>.4 ~ K >.B                                                               ",
"                                                              | >.$.$.$.$.K >.>.>.$.$.&.} >.$.$.C                                                               ",
"                                                            ; +.$.$.$.$.$.$.K e $  .>.$.$.$.$.G h                                                               ",
"                                                              ~ $.$.$.$.$.>.i . . @ G $.$.$._ d                                                                 ",
"                                                              < ] &.$.$.$.>.2 . . o G $.$.>.s l                                                                 ",
"                                                                # r O.>. .Z ) o . k >.$.$.$.$.$.r                                                               ",
"                                                                      + n } $.K ] >.$.$.$.$.$.$.m                                                               ",
"                                                                      c >.$.$.$.$._ @.$.$.$.$.$.5                                                               ",
"                                                                      o.$.$.$.$.$.a j K $.$.$.>.h                                                               ",
"                                                                      1 K $.$.$.K 9   i G >.>.X.                                                                ",
"                                                                        n >.$.>.k       q 6 6 9                                                                 ",
"                                                                           .K ..X                                                                               ",
"                                                                            :                                                                                   ",
"                                                                                                                                                                ",
"                                                                                                                                                                ",
"                                                                                                                                                                ",
"                                                                                                                                                                ",
"                                                                                                                                                                ",
"                                                                                                                                                                ",
"                                                                                                                                                                ",
"                                                                                                                                                                ",
"                                                                                                                                                                ",
"                                                                                                                                                                ",
"                                                                                .                                                                               ",
"                                                                                .                                                                               ",
"                                                                                .                                                                               ",
"                                                                                .                                                                               ",
"                                                                                .                                                                               ",
"                                                                                .                                                                               ",
"                                                                                .                                                                               ",
"                                                                                                                                                                ",
"                                                                                                                                                                ",
"                                                                                                                                                                ",
"                                                                                                                                                                ",
"                                                                                                                                                                ",
"                                                                                                                                                                ",
"                                                                                                                                                                ",
"                                                                                                                                                                ",
"                                                                                                                                                                ",
"                                                                                                                                                                ",
"                                                                                                                                                                ",
"                                                                                                                                                                ",
"                                                                                                                                                                ",
"                                                                                                                                                                ",
"                                                                                                                                                                ",
"                                                                                                                                                                ",
"                                                                                                                                                                ",
"                                                                                                                                                                ",
"                                                                                                                                                                ",
"                                                                                                                                                                ",
"                                                                                                                                                                ",
"                                                                                                                                                                ",
"                                                                                                                                                                "
};
