/* XPM */
static char *flower_light[] = {
/* columns rows colors chars-per-pixel */
"80 80 143 2 ",
"   c None",
".  c #000000",
"X  c #10100F",
"o  c #141313",
"O  c #1C1C1B",
"+  c #232323",
"@  c #292927",
"#  c #2E2D2C",
"$  c #2F3030",
"%  c #27333B",
"&  c #383736",
"*  c #3A3937",
"=  c #3D3C3A",
"-  c #39484E",
";  c #314B5C",
":  c #315065",
">  c #36516F",
",  c #2B5E78",
"<  c #395D75",
"1  c #3C5778",
"2  c #2F6078",
"3  c #424240",
"4  c #424849",
"5  c #4C5252",
"6  c #4C545A",
"7  c #5B5854",
"8  c #5D5B59",
"9  c #4B5860",
"0  c #536675",
"q  c #596C79",
"w  c #647075",
"e  c #65727D",
"r  c #1B6A8E",
"t  c #2D6686",
"y  c #3D6785",
"u  c #346D92",
"i  c #337295",
"p  c #3A759F",
"a  c #357D99",
"s  c #1E7EA2",
"d  c #3C6DA2",
"f  c #207BA3",
"g  c #43728C",
"h  c #55738C",
"j  c #4D7797",
"k  c #457D91",
"l  c #4D7D9D",
"z  c #567394",
"x  c #557996",
"c  c #587997",
"v  c #5C7E9F",
"b  c #617C96",
"n  c #4E7DA5",
"m  c #507AA0",
"M  c #407DB2",
"N  c #4D7BB0",
"B  c #437EC2",
"V  c #3E849F",
"C  c #1980A8",
"Z  c #1F86B4",
"A  c #288EB5",
"S  c #2686B8",
"D  c #2A83BA",
"F  c #3984B8",
"G  c #3C92B4",
"H  c #3D95B8",
"J  c #77898E",
"K  c #6F8492",
"L  c #6C8992",
"P  c #708291",
"I  c #5889AB",
"U  c #5591A5",
"Y  c #4481B2",
"T  c #4786BF",
"R  c #418ABA",
"E  c #4194BD",
"W  c #608FA6",
"Q  c #6B8CA1",
"!  c #6F90AD",
"~  c #7C93A9",
"^  c #7F9EA8",
"/  c #699AB6",
"(  c #1593C6",
")  c #1F96D5",
"_  c #3685C1",
"`  c #3C86CF",
"'  c #308CCD",
"]  c #3F89C8",
"[  c #239CCD",
"{  c #389CC7",
"}  c #3496CD",
"|  c #3E90CC",
" . c #358DD2",
".. c #3A89D4",
"X. c #3E8EDE",
"o. c #2294D4",
"O. c #2A91D3",
"+. c #239ED3",
"@. c #239DDD",
"#. c #2D9CDE",
"$. c #3592D5",
"%. c #3B94D5",
"&. c #3394DB",
"*. c #3A91DE",
"=. c #349ADA",
"-. c #1FA1D4",
";. c #11A2DE",
":. c #18A5DB",
">. c #3C8FE0",
",. c #2E99E7",
"<. c #269EEB",
"1. c #2B9CE9",
"2. c #3396E4",
"3. c #3992E2",
"4. c #3198E6",
"5. c #09AAEA",
"6. c #10A7E1",
"7. c #12A9E7",
"8. c #1AABE7",
"9. c #1DA4EE",
"0. c #14ACEC",
"q. c #0EAEF6",
"w. c #0FAFF8",
"e. c #1CA6F1",
"r. c #14ACF5",
"t. c #19A8F2",
"y. c #07B1F3",
"u. c #0DB0F6",
"i. c #05B5FC",
"p. c #0AB2FA",
"a. c #23A2E7",
"s. c #26A9E0",
"d. c #22A2ED",
"f. c #28A0E9",
"g. c #4783C5",
"h. c #4384CE",
"j. c #4889CB",
"k. c #4795C8",
"l. c #4586D1",
"z. c #4489D3",
"x. c #418CDD",
"c. c #41A3CB",
"v. c #90A0A7",
/* pixels */
"                                                                                                                                                                ",
"                                                                                                                                                                ",
"                                                                                                                                                                ",
"                                                                                                                                                                ",
"                                                                                                                                                                ",
"                                                                                                                                                                ",
"                                                                                                                                                                ",
"                                                                                                                                                                ",
"                                                                                                                                                                ",
"                                                                                                                                                                ",
"                                                                                                                                                                ",
"                                                                                                                                                                ",
"                                                                      < p u                                                                                     ",
"                                                                    y ' ,.,.O.D t                                                                               ",
"                                                                    _ ,.1.1.<.d.d.o.,                                                                           ",
"                                                                     .,.1.1.<.d.d.9.) 2                                                                         ",
"                                                                  0 &.,.1.1.<.d.d.e.e.S                                                                         ",
"                                                                  j 2.,.1.1.<.d.d.e.e.@.    Z r f ;.q.(                                                         ",
"                                                                  n 2.,.1.1.<.d.d.e.e.9.@.9.r.q.u.p.p.i.5.C                                                     ",
"                                                                  l 2.,.1.1.<.d.d.e.e.t.r.r.r.w.p.p.p.i.i.y.s                                                   ",
"                                                                  x 2.,.1.1.<.d.d.e.e.t.r.r.r.w.p.p.p.i.i.i.6.                                                  ",
"                                                    > d ` ....*.] Y 2.1.1.1.<.d.d.e.e.t.r.r.r.w.p.p.p.i.i.i.;.                                                  ",
"                                                  1 h.x.X.3.3.3.2.2.2.,.1.1.<.d.d.9.e.t.r.r.r.q.p.p.p.i.i.i.A                                                   ",
"                                                  B x.x.X.3.3.3.2.2.2.,.1.1.1.f.d.9.e.t.r.r.r.q.p.p.p.i.i.u.k                                                   ",
"                                                  h.x.x.X.>.3.3.2.2.2.,.1.R 8 7 q #.e.e.r.r.r.q.p.p.p.i.i.-.                                                    ",
"                                                6 l.x.x.X.3.3.3.2.2.2.,.$.9 = & 3 g 9.t.r.r.r.q.p.p.p.i.0.U                                                     ",
"                                                  l.x.X.X.>.3.3.2.2.2.,.F * + O @ 4 @.t.r.r.r.q.p.p.p.u.G                                                       ",
"                                                  N x.X.X.>.3.3.2.2.2.,.F $ o o O - 1.t.r.r.r.w.u.u.8.H                                                         ",
"                                                  z l.x.X.>.3.3.2.2.2.,.&.; O o + i 9.t.r.r.r.w.r.c.^                                                           ",
"                                                    g.x.X.>.3.3.2.2.2.,.1.' : % u a.e.t.r.r.r.q.u.s.                                                            ",
"                                                    v l.X.>.3.3.2.2.4.,.1.1.<.d.d.9.e.t.r.r.r.w.p.p.[                                                           ",
"                                                      b j.>.*.3.2.2.2.,.1.1.<.d.d.9.e.t.r.r.r.q.p.p.7.                                                          ",
"                                                          ~ ! *.2.2.2.,.1.1.<.d.d.e.e.t.r.r.r.r.p.p.p.a                                                         ",
"                                                            P *.2.2.2.,.1.1.<.d.d.e.e.t.r.r.r.w.p.p.p.V                                                         ",
"                                                            c 3.2.2.2.,.1.1.<.d.d.9.e.t.r.r.r.w.p.p.0.                                                          ",
"                                                            n 3.2.2.2.1.,.k.=.d.d.e.e.t.r.r.r.q.p.p.+.                                                          ",
"                                                            m 3.2.2.2.,.%.v./ #.d.9.e.t.r.r.r.q.p.u.G                                                           ",
"                                                            h 3.2.2.4.2.I     l } d.e.e.r.r.r.w.u.[                                                             ",
"                                                            q *.2.2.2.|       5 w } d.e.r.r.r.q.+.L                                                             ",
"                                                              T 2.2.%.Q       #     W E a.r.0.{ J                                                               ",
"                                                              e M Y K         o                                                                                 ",
"                                                                              .                                                                                 ",
"                                                                              .                                                                                 ",
"                                                                              .                                                                                 ",
"                                                                              .                                                                                 ",
"                                                                              .                                                                                 ",
"                                                                              .                                                                                 ",
"                                                                              .                                                                                 ",
"                                                                              .                                                                                 ",
"                                                                              .                                                                                 ",
"                                                                              .                                                                                 ",
"                                                                              .                                                                                 ",
"                                                                              .                                                                                 ",
"                                                                              .                                                                                 ",
"                                                                              .                                                                                 ",
"                                                                              .                                                                                 ",
"                                                                              .                                                                                 ",
"                                                                              .                                                                                 ",
"                                                                              .                                                                                 ",
"                                                                              .                                                                                 ",
"                                                                                                                                                                ",
"                                                                                                                                                                ",
"                                                                                                                                                                ",
"                                                                                                                                                                ",
"                                                                                                                                                                ",
"                                                                                                                                                                ",
"                                                                                .                                                                               ",
"                                                                                .                                                                               ",
"                                                                                                                                                                ",
"                                                                                                                                                                ",
"                                                                                                                                                                ",
"                                                                                                                                                                ",
"                                                                                                                                                                ",
"                                                                                                                                                                ",
"                                                                                                                                                                ",
"                                                                                                                                                                ",
"                                                                                                                                                                ",
"                                                                                                                                                                ",
"                                                                                                                                                                ",
"                                                                                                                                                                "
};
