/* XPM */
static char *forest[] = {
/* columns rows colors chars-per-pixel */
"80 80 200 2 ",
"   c #5C3B38",
".  c #5D3B38",
"X  c #5D3C38",
"o  c #5D3C39",
"O  c #5E3C39",
"+  c #5E3D39",
"@  c #5F3D39",
"#  c #5E3D3A",
"$  c #5F3D3A",
"%  c #5F3E3A",
"&  c #603D3A",
"*  c #603E3A",
"=  c #613E3A",
"-  c #603F3A",
";  c #613F3A",
":  c #603E3B",
">  c #613E3B",
",  c #603F3B",
"<  c #613F3B",
"1  c #623F3B",
"2  c #61403B",
"3  c #62403B",
"4  c #63403B",
"5  c #62403C",
"6  c #63403C",
"7  c #62413C",
"8  c #63413C",
"9  c #63423D",
"0  c #64403C",
"q  c #64413C",
"w  c #64413D",
"e  c #65413D",
"r  c #64423D",
"t  c #65423D",
"y  c #64433D",
"u  c #66423D",
"i  c #66433D",
"p  c #64433E",
"a  c #65433E",
"s  c #66423E",
"d  c #66433E",
"f  c #67433E",
"g  c #65443E",
"h  c #65443F",
"j  c #66443E",
"k  c #67443E",
"l  c #66443F",
"z  c #67443F",
"x  c #66453F",
"c  c #67453F",
"v  c #68443E",
"b  c #68443F",
"n  c #69443F",
"m  c #68453F",
"M  c #69453F",
"N  c #6A453F",
"B  c #6A463F",
"V  c #694540",
"C  c #6A4540",
"Z  c #684640",
"A  c #694640",
"S  c #684740",
"D  c #694740",
"F  c #694741",
"G  c #6A4640",
"H  c #6B4640",
"J  c #6B4740",
"K  c #6B4641",
"L  c #6B4741",
"P  c #6C4640",
"I  c #6C4741",
"U  c #6D4741",
"Y  c #6A4841",
"T  c #6B4842",
"R  c #6A4942",
"E  c #6B4942",
"W  c #6C4841",
"Q  c #6D4841",
"!  c #6C4842",
"~  c #6D4842",
"^  c #6C4942",
"/  c #6D4942",
"(  c #6E4842",
")  c #6E4942",
"_  c #6F4942",
"`  c #6F4943",
"'  c #6C4A42",
"]  c #6C4A43",
"[  c #6D4A43",
"{  c #6D4B43",
"}  c #6F4A42",
"|  c #6E4A43",
" . c #6F4A43",
".. c #6E4B43",
"X. c #6D4B44",
"o. c #6F4B44",
"O. c #6E4C44",
"+. c #6F4C44",
"@. c #6F4C45",
"#. c #6F4D45",
"$. c #704A43",
"%. c #704B43",
"&. c #714B43",
"*. c #704B44",
"=. c #714B44",
"-. c #704C44",
";. c #714C44",
":. c #704C45",
">. c #714C45",
",. c #714D45",
"<. c #724C44",
"1. c #724D44",
"2. c #724C45",
"3. c #724D45",
"4. c #734D45",
"5. c #704E45",
"6. c #714E45",
"7. c #724E45",
"8. c #734E45",
"9. c #734D46",
"0. c #714F46",
"q. c #724E46",
"w. c #734E46",
"e. c #724F46",
"r. c #734F46",
"t. c #724F47",
"y. c #734F47",
"u. c #744E46",
"i. c #744F46",
"p. c #754F46",
"a. c #744F47",
"s. c #754F47",
"d. c #735047",
"f. c #755046",
"g. c #745047",
"h. c #755047",
"j. c #745147",
"k. c #755147",
"l. c #765147",
"z. c #735148",
"x. c #745048",
"c. c #755048",
"v. c #745148",
"b. c #755148",
"n. c #765048",
"m. c #765148",
"M. c #745248",
"N. c #755248",
"B. c #745249",
"V. c #755249",
"C. c #755349",
"Z. c #765248",
"A. c #775248",
"S. c #765249",
"D. c #775249",
"F. c #765349",
"G. c #775349",
"H. c #765449",
"J. c #76544A",
"K. c #77544A",
"L. c #785349",
"P. c #78534A",
"I. c #78544A",
"U. c #79544A",
"Y. c #78554A",
"T. c #79554A",
"R. c #79544B",
"E. c #79554B",
"W. c #7A554B",
"Q. c #78564B",
"!. c #79564B",
"~. c #7A564B",
"^. c #79564C",
"/. c #7A564C",
"(. c #7B564C",
"). c #7A574C",
"_. c #7B574C",
"`. c #7B574D",
"'. c #7B584C",
"]. c #7B584D",
"[. c #7C584C",
"{. c #7C584D",
"}. c #7C594D",
"|. c #7D594D",
" X c #7C584E",
".X c #7C594E",
"XX c #7D594E",
"oX c #7D5A4E",
"OX c #7D5A4F",
"+X c #7E5A4E",
"@X c #7E5A4F",
"#X c #7E5B4F",
"$X c #7F5B4F",
"%X c #7F5C4F",
"&X c #7F5C50",
"*X c #805C50",
"=X c #805D50",
"-X c #805D51",
";X c #815D51",
":X c #815E51",
/* pixels */
"$.$.$.P.*X*X*X*X*XZ   f P.&X&X&X%XP.$.$.M                 _ $.$.*X*X%X$.$._ ; f M $.$.f                     f $.$._ _ _ f         ; Z $.$.$.$.Z     f $.$.$.$.$.",
"$.$.$.P.*X*X*X*X*Xf   ; %X*X*X*X*X%X$.$.M                 Z $.$.&X*X%X$.$.Z     f $.$.f                     ; _ $.$.$.$.f           Z $.$.$.$.Z     f $.$.$.$.$.",
"$.$.$.P.%X%X%XP.P.M ; f %X*X*X*X*X%X$.$.Z ; ;             M Z _ %X%XP.$.$.Z ; ; M $.$.f ; ;             ; ; f $.$._ Z Z f           Z $.$.$.$.Z     ; Z Z _ $.$.",
"f.%X*XP.$.$.f     Z _ $.%X*X*X*X*X%X$.$.$._ _ f                 $.$.$.$.$.$._ _ _ $.$._ _ _ ;           _ _ _ $.$.M                 Z $.$.$.$.Z           f $.$.",
"f.*X*XP.$.$.f     Z $.$.%X*X*X*X*X%X$.$.$.$.$.f                 _ $.$.$.$.$.$.$.$.$.$.$.$._ ;           _ $.$.$.$.f                 Z $._ _ $.Z           f $.$.",
"P.P.%X$.M M f f f f Z Z f.M.M.M.M.M.M.M.M.M.M._ f f f f f       M M Z _ $.$.$.$.Z M M _ $._ f f f f f f _ _ $.M.M._ f f f f f f f f M M M M M M f f f Z Z _ $.$.",
"%X$.$.f     M $._ ;               f &X*X*X*X*XP.$.$.$._ _ ;         ; _ $.$.$.$.f     M $.$.$.$.$.$.$.$.$.$.$.*X*XP.$._ _ _ _ _ $._ ;         ; _ $.M.*X*XP.$.$.",
"%X$.$.f     M $.$.;               f &X*X*X*X*XP.$.$.$.$._ ;         ; _ $.$.$.$.f     M $.$.$.$.$.$.$.$.$.$.$.*X*XP.$.$.$.$.$.$.$._ ;         ; $.$.M.*X*XP.$.$.",
"%XP.P._ f f Z $.$.M f f       f f _ *X*X*X*X*XP.$.$.$.$._ ;         ; _ $.Z f f f f f Z $.$.M.P.P.P.P.P.P.P.P.P.P.f.$.$.$.$.$.$.$._ ;         f P.P.%X*X*X%XP.P.",
"*X*X*XP.$.$.$.$.$.$.$._ ;     _ $.$.*X*X*X*X*XP.$.$.$.$._ ;         ; _ $.M     f _ $.$.$.$.%X*X*X*X*X*X*X*X%X$.$.$.$.$.$.$.$.$.$._ ;         f *X*X*X*X*X*X*X*X",
"*X*X*XP.$.$.$.$.$.$.$._ ;     _ $.$.*X*X*X*X*XP.$.$.$.$._ ;         ; _ $.M     f $.$.$.$.$.%X*X*X*X*X*X*X*X%X$.$.$.$.$.$.$.$.$.$._ ;         f *X*X*X*X*X*X*X*X",
"*X*X*Xf.f f f f f Z $._ M M f f f Z M.M.M.M.M.P.P.P.$.$._ Z M M M M Z _ $._ M M Z $.$.M f f $.M.P.*X*X*X*X*X%X$.$.$.P.P.P.P.P.$.$._ Z M f     f M.P.P.*X*X*X*X*X",
"*X*X*X$.          Z $.$.$.$._     ; _ $.$.$.$.P.*X*XM.$.$.$.$.$.$.$.$.$.$.$.$.$.$.$.$.f     Z $.$.%X*X*X*X*X%X$.$.P.*X*X*X*X*Xf.$.$.$.$._     ; $.$.M.*X*X*X*X*X",
"*X*X*X_           Z $.$.$.$._     ; _ $.$.$.$.P.*X*Xf._ _ $.$.$._ _ _ _ _ _ $.$.$.$.$.f     Z _ $.%X*X*X&X&XP._ $.M.*X*X*X*X*XM.$.$.$.$._ ;   ; _ _ M.&X*X*X*X*X",
"%Xf.f.Z           Z $.$.$.$._ Z Z Z $.$.M.%X%XP.f.$.M ; ; _ $._ f ; ; ; ; f $.$.$.$.$.f     ; ; f $.f.$.Z f f ; ; $.*X*X*X*X*X%X%X%X$.$.$.Z Z M ; ; Z $.$.$.$.$.",
"%X$.$.f           Z $.$.$.$.$.$.$.$.$.$.M.*X*XP.$.$.f     Z $._           f $.$.$.$.$.f           _ $._           _ *X*X*X*X*X*X*X*X$.$.$.$.$.Z     f $.$.$.$.$.",
"P._ _ f           Z $.$.$.$.$.$.$.$.$.$.M.&X%XM._ _ f     Z $._           f $.$.$.$.$.f         ; Z _ Z           _ %X&X*X*X*X*X*X*X$.$.$.$.$.Z     f _ $.$.$.$.",
"f ;   f Z Z _ _ _ _ $.$.$.$.$.$.$.$.$.$.$.$.$.Z           Z $._           f $.$.$.$.$._ _ _ _ Z Z ;               f $.$.P.*X*X*X*X*X$.$.$.$.$.$._ _ _ $.$.$.$.$.",
"      f $.$.$.$.$.$.$.$.$.$.$.$.$.$.$.$.$.$.$.f           Z $._           f $.$.$.$.$.$.$.$.$.$._                 f _ $.P.*X*X*X*X*X$.$.$.$.$.$.$.$.$.$.$.$.$.$.",
"      f $.$.$.$.$.$.$.$.$.$.$.$.$.$.$.$.$.$.$.f       ; ; _ $._ ;   ; ; ; f $.$.$.$.$._ _ _ Z Z Z ; ; ; ; ; ; ; ; f Z _ f.%X%X%X%X%X$.$.$.$.$.$.$.$.$.$.$._ _ _ ",
"      f $.$.P.%X*X*X*X%X$.$.$.$.$.$.$.$.$.$.$.f     M _ _ $.$.$._ _ _ _ _ _ $.$.$.$.$.f         ; Z _ _ _ _ _ _ _ f       ; ; _ $.$.$.$.$.$.$.$.$.$.$.$.$.M     ",
"      f $.$.P.*X*X*X*X*X$.$.$.$.$.$.$.$.$.$.$.f     M $.$.$.$.$.$.$.$.$.$.$.$.$.$.$.$.f           _ $.$.$.$.$.$.$.M           Z $.$.$.$.$.$.$.$.$.$.$.$.$.f     ",
"      M f.M.%X*X*X*X*X%X$.$.$.$.$.$.$.f.$.$.$.M ; ; f Z Z _ $.$.$.$._ Z Z Z $.$.$.$.$.f f f f f f M Z Z Z Z Z $.$.M           Z $.$.$.$._ Z Z Z Z Z Z $.$.f     ",
"      _ *X*X*X*X*X*X*X%X$.$.$.$.$.f.*X*XP.$.$.$.$._ f     Z $.$.$.$.Z     f _ $.$.$.$.$.$.$.$.$._ ;         ; $.$.M           Z $.$.$.$._           f _ $.f     ",
"      _ *X*X*X*X*X*X*X*X$.$.$.$.$.$.*X*XP.$.$.$.$.$.f     Z $.$.$.$.Z     f $.$.$.$.$.$.$.$.$.$._           ; $.$.M           Z $.$.$.$._           f _ $.f     ",
"_ f f $.*X*X*X*X*X%XP.P.$.$.$.$.$.f.*X*X%XP.P.P.P.M.Z f f _ $.$.$.$.Z     f $.$.$.P.P.P.P.P.M.M.f.;           M M f f f ;     Z $.$.M.P.M.f f f     f _ $.Z f f ",
"P.$._ P.*X*X*X*X*XM.$.$.$.$.$.$.$.f.*X*X*X*X*X*X*X*XM.$.$.$.$.$.$.$.Z     f $.$.P.*X*X*X*X*X*X*X%Xf               f _ _ f     Z $.$.%X*X%X$.$.Z     f _ $.$._ _ ",
"%X$.$.P.*X*X*X*X*XM.$.$.$.$.$.$.$.f.*X*X*X*X*X*X*X*XM.$.$.$.$.$.$.$.Z     f $.$.P.*X*X*X*X*X*X*X%Xf               f _ _ f     Z $.$.%X*X&X$.$.Z     f _ $.$.$.$.",
"%X$.$.$.P.P.P.P.P.$.$._ f f f f f _ &X*X*X*X*X%XP.P.$.$.$.$.$.$.P.P.M.M f M $.$.P.*X*X*X*X*X*X*X%X_ f f       f f f f f f f f $.P.P.&X*X%X$.$._ f f f f f f f f ",
"%X$.$.$.$.$.$.$.$.$.$._ ;         f &X*X*X*X*XP.$.$.$.$.$.$.$.$.%X*X%X$.$.$.$.$.P.*X*X*X*X*X*X*X&X$.$._     ; $.$.f     f $.$.%X*X*X*X*X%X$.$.$._ $.M           ",
"%X$.$.$.$.$.$.$.$.$.$._ ;         f %X*X*X*X*XP.$.$.$.$.$.$.$.$.%X*X%X$.$.$.$.$.P.*X*X*X*X*X*X*X%X$.$._     ; $.$.M     f _ $.%X*X*X*X*X%X$.$.$.$.$.M           ",
"M.%X%XM.$.$.$.$.$.$.$._ ;         f $.f.f.f.f.$.$.$.f ; f M.%XP.M.f.$.$.$.$.$.$.$.f.f.%X*X*XP.f.$.$._ _ Z Z Z $.$.M       ; f P.*X*X*X*X%X$.$.$.$.$.M           ",
"f.*X*XP.$.$.$.$.$.$.$._ ;         ; _ $.$.$.$.$.$.$.f     P.*X&X$.$.$.$.$.$.$.$.$.$.$.P.*X*Xf.$.$.$.$.$.$.$.$.$.$.M           M.*X*X*X*X&X$.$.$.$.$.M           ",
"f.%X&XM._ _ _ _ _ $.$._ ;         f _ $.$.$.$.$._ _ f     M.%X%X$.$.$.$.$._ _ _ _ $.$.P.&X%X$._ _ _ _ _ $.$.$._ _ f           M.&X&X&X*X%X$._ _ _ _ f           ",
"P.$.$.Z ; ; ; ; ; Z $.$.Z Z Z Z Z _ $.$.$.$.$.M ; ;       f f f _ $.$.$.$.Z ; ; M $.$.$.$.$.f ; ; ; ; f _ $.Z ; ;       f Z Z $.$.$.$.$.$.f ; ; ; ;       f Z Z ",
"%X$.$.f           Z $.$.$.$.$.$.$.$.$.$.$.$.$.f                 _ $.$.$.$.M     f $.$.$.$._ ;         ; _ $.Z           f $.$.$.$.$.$.$._                 f $.$.",
"P._ _ f           Z $.$.$.$.$._ _ _ $.$.$.$.$.M             ; ; $.$.$.$.$.Z     f $.$.$.$._ ;         f $.$._           f $.$.$.$.$._ _ Z                 M $.$.",
";                 Z $.$.$.$._ ;   f %X%X%X%X%XM._ _ ;     Z _ $.%X%X%X%X%XP._ _ _ $.$.$.$._ ;     Z _ $.%X%XM.          f $.$.$.$._ f               f Z _ M.%X%X",
"                  Z $.$.$.$.Z     f &X*X*X*X*XP.$.$.f     _ $.$.*X*X*X*X*XP.$.$.$.$.$.$.$._ ;     Z $.$.&X*XM.          f $.$.$.$._ ;               f _ $.P.*X*X",
"              ; ; Z $.$.Z Z Z ; ; Z &X*X*X*X*XM.Z Z ;     _ $.M.*X*X*X*X*XP.$.$.$.$.$.$.$._ f ; f $.$.M.*X*XP.f f f ; ; M $.$.$.$._ ;               f $.$.P.*X*X",
"Z           f _ _ $.$._ ;     _ $.$.*X*X*X*X*X_           P.*X*X*X*X*X*X*X%X$.$.P.*X*XM.$.$.$.$.$.%X*X*X*X*X*X*X*XP.$.$.$.$.$.$.$._ ;               _ &X*X*X*X*X",
"Z           f $.$.$.$._ ;     _ $.f.*X*X*X*X*X_           P.*X*X*X*X*X*X*X%X$.$.P.*X*XM.$.$.$.$.$.%X*X*X*X*X*X*X*XP.$.$.$.$.$.$.$._ ;               _ *X*X*X*X*X",
"_ f f f _ _ $.M.M.$.$._ f f f _ $.$.P.P.P.M.M.Z           P.*X*X*X*X*X*X*X%XM.M.P.P.P.$.$.$.Z M Z $.M.M.P.P.P.P.P.$.M M _ $.$.$.$._ f f f f f f f f _ *X*X*X*X*X",
"$.$._ M.&X*X*X*X*Xf.$.$.$._ _ $.$.$.$.$.Z                 P.*X*X*X*X*X*X*X*X*X*XP.$.$.$.$._ ;         f _ $.$.$.$.M     f $.$.$.$.$.$.$._ _ _ _ _ _ M.*X*X*X*X*X",
"$.$.$.P.*X*X*X*X*Xf.$.$.$.$.$.$.$.$.$.$.M                 P.*X*X*X*X*X*X*X*X*X*XP.$.$.$.$._ ;         ; _ $.$.$.$.f     f $.$.$.$.$.$.$.$.$.$.$.$.$.M.*X*X*X*X*X",
"$.$.$.P.*X*X*X*X*X_ f M f.P.P.P.P.M.$.$.M                 $.P.P.*X*X*XP.P.M.$.$.$.$.$.Z f f             f f M $.$.Z f f f f f f f M _ $.$.$.$._ f f _ P.P.P.P.P.",
"$.$.$.P.*X*X*X*X*Xf   ; %X*X*X*X*X%X$.$.M                 Z $.$.*X*X%X$.$.Z     f $.$.f                     ; $.$.$.$.$.f           Z $.$.$.$.Z     f _ $.$.$.$.",
"$.$.$.P.*X*X*X*X*Xf   ; %X*X*X*X*X%X$.$.M                 Z $.$.*X*X%X$.$.Z     f $.$.f                     ; $.$.$.$.$.f           Z $.$.$.$.Z     f _ $.$.$.$.",
"$.P.P.P.f.f._ Z Z Z M _ %X*X*X*X*X%X$.$._ M M f           ; f f $.f.$.$.$._ M M _ $.$.Z M M ;           M M Z $.$.Z f f             Z $.$.$.$.Z       f f M $.$.",
"f.*X*XP.$.$.f     Z $.$.%X*X*X*X*X%X$.$._ $.$.f                 _ $.$.$.$.$.$.$.$.$.$.$.$._ ;         ; _ $.$.$.$.M                 Z $.$.$.$.Z           f $.$.",
"M.*X*XP._ _ f     Z _ $.%X%X%X%X&X%X$.$.$.$.$.f                 Z _ _ $.$.$.$.$.$._ _ $.$._ f         ; _ $.$.$.$.M                 Z _ _ _ _ Z           f $.$.",
"P.f.f._ ; ; f Z Z f ; f f f f f f _ %X%X%X%X%X$.Z Z Z Z M       ; ; f _ $.$.$.$.M ; ; Z $.$.Z Z Z Z Z Z $.$.$.%X%XM.Z Z Z Z Z Z Z Z f ; ; ; ; f Z Z $.M.M.f.$.$.",
"%X$.$.f     M $.$.;               f &X*X*X*X*XP.$.$.$.$._ ;         ; _ $.$.$.$.f     M $.$.$.$.$.$.$.$.$.$.f.*X*XP.$.$.$.$.$.$.$._ ;         ; $.$.M.*X*XP.$.$.",
"%X$.$.M     M $.$.f               Z *X*X*X*X*XP.$.$.$.$._ ;         ; _ $._ _ _ f     M $.$.$.$.$.$.$.$.$.$.M.&X&XP.$.$.$.$.$.$.$._ ;         ; $.$.P.*X*XP.$.$.",
"*X%X%XM._ _ _ $.$._ _ Z       Z _ $.*X*X*X*X*XP.$.$.$.$._ ;         ; _ $.Z ;   f Z _ _ $.$.P.%X%X%X%X%X%X%XP.$.$.$.$.$.$.$.$.$.$._ ;         f %X%X*X*X*X*X%X%X",
"*X*X*XP.$.$.$.$.$.$.$._ ;     _ $.f.*X*X*X*X*XP.$.$.$.$._ ;         ; _ $.M     f $.$.$.$.$.%X*X*X*X*X*X*X*X%X$.$.$.$.$.$.$.$.$.$._ ;         f *X*X*X*X*X*X*X*X",
"*X*X*XP.Z Z Z Z Z _ $._ f ; ; Z Z $.%X%X%X%X%XP.$.$.$.$._ f ; ; ; ; f _ $.Z ; ; f _ $._ Z _ P.%X%X*X*X*X*X*X%X$.$.$.$.$.$.$.$.$.$._ f ; ;     f %X%X&X*X*X*X*X*X",
"*X*X*X$.          Z $.$._ _ Z     f $.$.$.$.$.P.*X*XM.$.$.$._ _ _ _ _ $.$.$._ _ _ $._ f     Z $.$.%X*X*X*X*X%X$.$.M.*X*X*X*X*Xf.$.$.$._ _     ; $.$.M.*X*X*X*X*X",
"*X*X*X$.          Z $.$.$.$._     ; _ $.$.$.$.P.*X*XM.$.$.$.$.$.$.$.$.$.$.$.$.$.$.$.$.f     Z $.$.%X*X*X*X*X%X$.$.P.*X*X*X*X*Xf.$.$.$.$._     ; $.$.M.*X*X*X*X*X",
"*X%X%X_           Z $.$.$.$._ f f f _ $.$.f.M.P.%XP.$.Z Z _ $.$.Z Z Z Z M Z $.$.$.$.$.f     f Z Z P.%XP.M.M.$.Z Z f.*X*X*X*X*XP.M.f.$.$._ f f f M M $.P.%X%X%X%X",
"%X$.$.M           Z $.$.$.$.$.$.$.$.$.$.M.*X*XP.$.$.f     Z $._           f $.$.$.$._ f           _ $._ ;         _ *X*X*X*X*X*X*X%X$.$.$._ _ Z     f $.$.$.$.$.",
"%X$.$.f           Z $.$.$.$.$.$.$.$.$.$.M.*X*XP.$.$.f     Z $._           f $.$.$.$._ f           _ $._           _ *X*X*X*X*X*X*X&X$.$.$.$.$.Z     f _ $.$.$.$.",
"_ M M f f f f f f _ $.$.$.$.$.$.$.$.$.$.$.P.P.$.M M ;     Z $._           f $.$.$.$.$.M f f f f f f M f           Z P.P.%X*X*X*X*X&X$.$.$.$.$._ f f M _ $.$.$.$.",
"      f $.$.$.$.$.$.$.$.$.$.$.$.$.$.$.$.$.$.$.f           Z $._           f $.$.$.$.$.$.$.$.$.$._ ;               f $.$.P.*X*X*X*X*X$.$.$.$.$.$.$.$.$.$.$.$.$.$.",
"      f $.$.$.$.$.$.$.$.$.$.$.$.$.$.$.$.$.$.$.f           Z $._           f _ $.$.$.$.$.$.$.$.$._                 f $.$.P.*X*X*X*X&X$.$.$.$.$.$._ _ $.$.$.$.$.$.",
"      f $.$.M.P.P.P.P.P.$.$.$.$.$.$.$.$.$.$.$.f     f M M _ $._ M M M M M Z $.$.$.$.$.M f f f f f f M M M M M M M f f f f _ _ $.M.M.$.$.$.$.$.$._ $.$.$.$.Z f f ",
"      f $.$.P.*X*X*X*X*X$.$.$.$.$.$.$.$.$.$.$.f     M $.$.$.$.$.$.$.$.$.$.$.$.$.$.$.$.f           Z $.$.$.$.$.$.$.f           Z $.$.$.$.$.$.$.$.$.$.$.$.$.f     ",
"      f $.$.P.*X*X*X*X*X$.$.$.$.$.$.$.$.$.$.$.f     M _ _ $.$.$.$.$.$._ _ _ $.$.$.$.$.f           Z _ _ _ _ _ $.$.f           Z $.$.$.$.$._ _ _ _ _ _ $.$.f     ",
"      _ %X%X%X*X*X*X*X*X$.$.$.$.$.$.P.%XM.$.$.Z Z Z f f f _ $.$.$.$._ f f f $.$.$.$.$.Z M M Z Z M f f f f f f $.$.M           Z $.$.$.$._ f f f f f M _ $.f     ",
"      _ *X*X*X*X*X*X*X*X$.$.$.$.$.f.*X*XP.$.$.$.$.$.f     Z $.$.$._ Z     f $.$.$.$.$.$.$.$.$.$._           ; _ $.M           Z $.$.$.$._           f _ $.f     ",
"      _ *X*X*X*X*X*X*X%X$.$.$.$.$.f.*X*XP.$.$.$.$.$.f     Z $.$.$.$.Z     f $.$.$.$.$.$.$.$.$.$._           ; _ _ f           Z $.$.$.$._ ;         f $.$.f     ",
"M._ _ M.*X*X*X*X*XM.$.$.$.$.$.$.$.$.*X*X*X%X%X%X%X%X$.Z Z _ $.$.$.$.Z     f _ $.M.%X%X%X%X%X%X%XP.f           ; ; f Z Z f     Z $.$.P.%XP._ Z M     f $.$._ Z Z ",
"%X$.$.P.*X*X*X*X*Xf.$.$.$.$.$.$.$.f.*X*X*X*X*X*X*X*XM.$.$.$.$.$.$.$.Z     f $.$.P.*X*X*X*X*X*X*X%Xf               f $.$.f     Z $.$.%X*X&X$.$.Z     f _ $.$.$.$.",
"%X$.$.M.%X%X%X%X%X$.$.$._ Z _ _ _ $.*X*X*X*X*X*X%X%Xf.$.$.$.$.$.$.$._ ;   f $.$.P.*X*X*X*X*X*X*X%Xf               f Z _ f   ; _ $.$.%X*X&X$.$.Z ;   f Z Z Z _ _ ",
"%X$.$.$.$.$.$.$.$.$.$._ ;         Z &X*X*X*X*XP.$.$.$.$.$.$.$.$.%X&X%X_ _ _ $.$.P.*X*X*X*X*X*X*X%X$._ Z     ; _ _ f     f _ _ P.*X*X*X*X%X$.$.$._ _ M           ",
"%X$.$.$.$.$.$.$.$.$.$._           f &X*X*X*X*XP.$.$.$.$.$.$.$.$.&X*X%X$.$.$.$.$.P.*X*X*X*X*X*X*X&X$.$._     ; _ $.M     f $.$.%X*X*X*X*X%X$.$.$.$.$.M           ",
"P.$.$.$.$.$.$.$.$.$.$._ ;         f %X%X%X%X%XM.$.$._ Z Z $.$.M.%X%XP.$.$.$.$.$.M.%X%X*X*X*X%X%XP.$.$._ f ; f $.$.M     f Z Z P.*X*X*X*X&X$.$.$.$.$.M           ",
"f.&X*XP.$.$.$.$.$.$.$._ ;         f $.$.$.$.$.$.$.$.f   ; P.*X%X$.$.$.$.$.$.$.$.$.$.$.P.*X*Xf.$.$.$.$.$._ _ _ $.$.f           M.*X*X*X*X%X$.$.$.$.$.M           ",
"f.*X*XP.$.$.$.$.$.$.$._ ;         ; _ $.$.$.$.$.$.$.f     P.*X&X$.$.$.$.$.$.$.$.$.$.$.P.*X*X$._ $.$.$.$.$.$.$.$.$.M           M.*X*X*X*X%X$.$.$.$.$.M           ",
"M.P.P.$.Z Z Z Z Z _ $._ f f f f f f _ $.$.$.$.Z M M ;     $.M.M.$.$.$.$.$._ Z M _ $.$.M.P.P._ M M M M Z _ $._ Z M f       f f f.%X%X%X%XP._ M M M M f       f f "
};
