/* XPM */
static char *four[] = {
/* columns rows colors chars-per-pixel */
"80 80 88 1 ",
"  c None",
". c #1B1B1B",
"X c #252525",
"o c #2C2C2C",
"O c #352D2D",
"+ c #3A2B2B",
"@ c #31302F",
"# c #303030",
"$ c #3F3736",
"% c #383837",
"& c #3C3C3B",
"* c #402221",
"= c #452B2B",
"- c #492C2B",
"; c #5A2626",
": c #572928",
"> c #403938",
", c #513433",
"< c #6B2423",
"1 c #622C2A",
"2 c #6B2C2B",
"3 c #722423",
"4 c #742C2B",
"5 c #40403F",
"6 c #434343",
"7 c #4C4C4C",
"8 c #545353",
"9 c #5D5857",
"0 c #5A5A5A",
"q c #676666",
"w c #6C6B6B",
"e c #747373",
"r c #787777",
"t c #7C7B7B",
"y c #841E1C",
"u c #891A18",
"i c #931716",
"p c #9B1717",
"a c #961F1D",
"s c #9D1D1C",
"d c #AD1617",
"f c #A01817",
"g c #AE1817",
"h c #A41B1A",
"j c #AA1A19",
"k c #B01616",
"l c #BE1617",
"z c #BB1718",
"x c #B31A1A",
"c c #BC1919",
"v c #8C201D",
"b c #94201E",
"n c #9A201D",
"m c #832522",
"M c #8A2423",
"N c #932322",
"B c #823130",
"V c #B42424",
"C c #B82727",
"Z c #B13B3B",
"A c #C71617",
"S c #C31718",
"D c #C11818",
"F c #AE4747",
"G c #AD4848",
"H c #807F7F",
"J c #9A7877",
"K c #BA6464",
"L c #AC7271",
"P c #858484",
"I c #8B8A8A",
"U c #908F8F",
"Y c #959494",
"T c #989797",
"R c #9C9C9C",
"E c #A39190",
"W c #A19F9F",
"Q c #B19695",
"! c #A4A3A3",
"~ c #A8A7A7",
"^ c #ADACAC",
"/ c #B2ADAC",
"( c #B5B3B3",
") c #B8B7B7",
"_ c #BCBBBB",
"` c #C0BFBF",
"' c #C2C1C1",
"] c #C8C8C8",
/* pixels */
"                                                                                ",
"                                                                                ",
"                                                                                ",
"                                                                                ",
"                                     %%%%o                                      ",
"                                    %%%%%%%                                     ",
"                                   %%%%%%%%%%                                   ",
"                                  %%%%%%66%%%%o                                 ",
"                                  %%%%%6Rt%%%%%                                 ",
"                                 %%%%%0!'^7%%%%%                                ",
"                                 7P!!!]_''r%%%%%                                ",
"                                %8I`_WP('_^8%%%%o                               ",
"                                %%q__!!_'^tR7%%%@                               ",
"                                @%9(__(_(YR_R75%o                               ",
"                                %>MZFL/W_(^__!q%                                ",
"                                %1SAAAxGKLE_!R0%                                ",
"                                %MAAAAAAASSV4%%                                 ",
"                                %hAAAAAAAAAAm%%                                 ",
"                                %sAAAAAAAAAA3%                                  ",
"                                %1xcSAAAAAAA2%                                  ",
"                                *jlcxjxccAAx,%@                                 ",
"                  PrI           kAAAAAAcxccN%%                                  ",
"                  rIPPR        iAAAAAAAAAAAN%%                                  ",
"                  rtY^(        cAAAAAAAAAAAc1$<                                 ",
"                  rY_''^      hAAAAAAAAAAAAAAxkb                                ",
"                   !'''Jx     cAAAAAAAAAAAAAAAAc                                ",
"                    R^QVAj   jAAAAAAAAAAAAAAAAAAa                               ",
"                     BCAAA   xAAAAAAAAAAAAAAAAAAj                               ",
"                     jAAAAx  AAAlAAAAAAAAAAAAAAAc                               ",
"                      jAAAAfiAAAuAAAAAAAAAAAAAAAA                               ",
"                       dAAAlcAAAyAAAAAAAAAAAAAAAAx                              ",
"                        cAAAAAAdjAAAAAAAAAAASAAAAx                              ",
"                         AAAAAA jAAAAAAAAAAAccAAAA                              ",
"                         sAAAAj hAAAAAAAAAAAScAAAAs                             ",
"                          hAAl  cAAAAAAAAAAASxAAASb                             ",
"                           hd   AAAAAAAAAAAAAjAAAh                              ",
"                                AAAAAAAAAAAAAcSAc                               ",
"                                AAAAAAAAAAAAAcxAn                               ",
"                               pAAAAAAAAAAAAAAxS                                ",
"                               xAAAAAAAAAAAAAAxn                                ",
"                               AAAAAAAAAAAAAAASm                                ",
"                              jAAAAAAAAAAAAAAAAs                                ",
"                               hAAAAAAAAAAAAcjjv                                ",
"                               +<hxAAAAAAxh<-+                                  ",
"                               oOO=;<33<:=Oooo                                  ",
"                              Xo%%oooo%%%%oooo                                  ",
"                              oo%%%ooo%%%%%#ooX                                 ",
"                             Xoo%%##oo%%%%##ooo                                 ",
"                             o%#%%%%oo#%oooo%%o                                 ",
"                            o%%%%%%#ooo%oooo%%%                                 ",
"                           X%%#o%%oooo%%oooo%%oX                                ",
"                           o%%%o%%oooo%%oo%%%%oo                                ",
"                          o%%%oo#ooo#%%%%%%%ooooo                               ",
"                          o%%%oooooooo%%%%%%ooooo                               ",
"                         Xo%oooo#ooooooooo%%%%%%%o                              ",
"                           ooooo%oooooooo#%%%%%%oo                              ",
"                                o%%%0qrIH0ooooo                                 ",
"                                  (___(''R                                      ",
"                                  !'''(''                                       ",
"                                  !'''(''                                       ",
"                                  !'''^'^                                       ",
"                                  Y'''/'~                                       ",
"                                  I'''('P                                       ",
"                                   _''()                                        ",
"                                   ('`(Y                                        ",
"                                   !'_!                                         ",
"                                    '_P                                         ",
"                                    (_                                          ",
"                                    (`                                          ",
"                                   ^^'R                                         ",
"                                  P`R'_                                         ",
"                                  ^'__`P                                        ",
"                                 %('(('U                                        ",
"                                 orI8R`rX                                       ",
"                                 o%%X%7%X                                       ",
"                                 .oX Xoo                                        ",
"                                                                                ",
"                                                                                ",
"                                                                                ",
"                                                                                "
};
