/* XPM */
static char *Marvin80[] = {
/* columns rows colors chars-per-pixel */
"70 80 154 2 ",
"   c None",
".  c #070707",
"X  c #0D0D0E",
"o  c #131313",
"O  c #181817",
"+  c #1C1C1C",
"@  c #20201F",
"#  c #1F1F20",
"$  c #242424",
"%  c #282827",
"&  c #2C2C2C",
"*  c #2D302B",
"=  c #30302F",
"-  c #333333",
";  c #3C3C3C",
":  c #455738",
">  c #4C6339",
",  c #424242",
"<  c #484748",
"1  c #4A4A4A",
"2  c #4F4F50",
"3  c #535353",
"4  c #585758",
"5  c #5B5B5C",
"6  c #636364",
"7  c #676768",
"8  c #6A6A6B",
"9  c #6F6F70",
"0  c #737374",
"q  c #7C7C7C",
"w  c #669235",
"e  c #6EB329",
"r  c #70B12D",
"t  c #73BA2C",
"y  c #6FA53B",
"u  c #74B334",
"i  c #7EC52E",
"p  c #7E8779",
"a  c #84D433",
"s  c #82B847",
"d  c #80B54E",
"f  c #80BA49",
"g  c #8EBC5D",
"h  c #8B9C7F",
"j  c #8CB766",
"k  c #96BF6D",
"l  c #7F7F80",
"z  c #7F8080",
"x  c #858486",
"c  c #878788",
"v  c #8D8D8D",
"b  c #8C9488",
"n  c #939394",
"m  c #989997",
"M  c #979798",
"N  c #989799",
"B  c #9B9B9C",
"V  c #9DA19C",
"C  c #A0B68E",
"Z  c #A2A69F",
"A  c #A3AD9C",
"S  c #A6B89B",
"D  c #A09FA1",
"F  c #A4A4A4",
"G  c #A7ACA5",
"H  c #A8A9A7",
"J  c #A7A7A8",
"K  c #ABABAC",
"L  c #ADBCA4",
"P  c #AEB2AC",
"I  c #ABB4A6",
"U  c #B0B3AF",
"Y  c #B1BCAB",
"T  c #AFAFB0",
"R  c #B0AFB1",
"E  c #B3B3B4",
"W  c #B5BBB3",
"Q  c #B8B8B7",
"!  c #B7B6B8",
"~  c #B8B7B9",
"^  c #BBBBBC",
"/  c #A8CB89",
"(  c #A7C094",
")  c #AEC69B",
"_  c #B4CEA3",
"`  c #B8CFA7",
"'  c #B6C4AC",
"]  c #BACCAD",
"[  c #BDDCA2",
"{  c #BDC5B9",
"}  c #C6DEB5",
"|  c #C7D5BE",
" . c #C9DCBC",
".. c #D0E6BE",
"X. c #BFBFC0",
"o. c #C0BFC1",
"O. c #C3C3C5",
"+. c #C5CBC2",
"@. c #C7C6C8",
"#. c #C8C7CA",
"$. c #C7C8C9",
"%. c #CBCBCC",
"&. c #D0CFCF",
"*. c #C7D3C2",
"=. c #C8D7C0",
"-. c #CBDCC2",
";. c #CED0CE",
":. c #D3DDCE",
">. c #CFCED0",
",. c #D0CFD2",
"<. c #CFD0D1",
"1. c #D3D3D4",
"2. c #D5DAD4",
"3. c #D9DCD7",
"4. c #D6D6D8",
"5. c #D8D7DA",
"6. c #D7D8D9",
"7. c #DBDBDD",
"8. c #CFE4C3",
"9. c #D4E2CB",
"0. c #D7ECC7",
"q. c #DCF3CC",
"w. c #D6E1D1",
"e. c #DAE4D4",
"r. c #DDE2DA",
"t. c #DEEBD6",
"y. c #E0EED6",
"u. c #E0E4DF",
"i. c #E2E9DE",
"p. c #E5F4DB",
"a. c #E8F7DD",
"s. c #DFDEE1",
"d. c #E0DFE2",
"f. c #DFE0E0",
"g. c #E3E3E4",
"h. c #E6EAE5",
"j. c #E7E6E8",
"k. c #E8E7E9",
"l. c #EBEBEC",
"z. c #E7F1E1",
"x. c #EDFBE3",
"c. c #EFF1EE",
"v. c #EFF8E9",
"b. c #F0F5ED",
"n. c #F3FAEE",
"m. c #EEEEF1",
"M. c #F0EFF1",
"N. c #EFF0F0",
"B. c #F3F3F4",
"V. c #F6F9F5",
"C. c #F8FAF6",
"Z. c #F7F6F8",
"A. c #F8F7FA",
"S. c #FBFBFB",
/* pixels */
"                                                                                                                                            ",
"                                                                                                                                            ",
"                                                                                                                                            ",
"                                                                                                                                            ",
"                                                                                                                                            ",
"                                                                                                                                            ",
"                                                          N K K K K ! T K K T K N                                                           ",
"                                                      N K ! ! ! ! ^ ^ ^ ^ ^ ! ! ! K                                                         ",
"                                                    J K ! ^ ^ O.O.$.$.$.#.O.O.O.^ ~ ! K                                                     ",
"                                                N K T ! ^ O.$.>.>.1.1.1.1.1.>.$.$.O.^ ^ !                                                   ",
"                                              J K ! ^ O.$.>.1.4.5.5.5.5.5.5.5.4.1.$.$.O.^ !                                                 ",
"                                            J K ! X.$.>.1.5.5.5.s.g.g.g.g.g.g.s.5.4.1.$.#.X.^                                               ",
"                                          N K ! ^ $.>.4.5.5.g.g.g.g.k.k.k.k.k.g.g.s.5.1.1.$.O.^                                             ",
"                                          K ! ^ $.,.4.5.s.g.g.k.k.k.c.c.k.k.c.k.k.g.g.5.4.1.$.O.^                                           ",
"                                        O.! ! O.>.4.5.s.g.k.k.k.B.B.B.B.B.B.B.c.k.k.g.g.5.1.,.$.$.^                                         ",
"                                        1.! X.$.1.5.5.g.k.k.k.B.B.B.Z.C.B.C.B.Z.B.m.k.k.g.5.1.>.#.o.                                        ",
"                                      O.$.! O.<.5.5.g.g.k.k.B.B.Z.C.C.C.C.C.C.C.B.B.c.k.g.s.5.1.$.$.!                                       ",
"                                      $.~ ^ $.1.5.f.g.k.k.b.B.B.C.C.C.C.C.C.C.C.C.B.B.k.k.g.5.1.>.$.O.                                      ",
"                                    J O.! O.$.1.5.g.g.k.k.B.B.A.C.C.C.C.C.C.C.C.C.C.B.M.k.g.5.5.1.$.O.                                      ",
"                                    J ! ! O.$.4.5.g.g.k.k.B.Z.C.C.C.C.C.C.C.C.C.C.C.B.B.k.g.g.5.1.$.O.                                      ",
"                                    J K ^ O.<.3.5.g.g.k.k.B.B.C.C.C.C.C.C.C.C.C.C.C.B.B.k.h.g.5.4.>.$.                                      ",
"                                    J P ^ O.;.2.5.u.g.h.m.B.B.C.C.C.C.C.C.C.C.C.C.C.B.B.k.k.g.5.1.>.$.!                                     ",
"                                    ! W W { =.-.9.w.i.k.N.B.C.C.C.C.C.C.C.C.C.C.C.n.b.c.k.h.g.5.4.,.$.!                                     ",
"                                    ! W ' ] _ _ ) Y { +.$.$.$.$.;.1.1.5.g.k.B.V.x.x.a.z.i.g.r.5.1.<.$.!                                     ",
"                                    K P p w u u e C *.2.5.5.5.1.$.O.^ ! ! K Z A ] ..0.q.y.r.r.5.1.>.$.                                      ",
"                                    m b L j a a k 8.w.g.k.k.b.B.A.C.C.C.C.C.n. .y t s g ( | 5.3.1.$.O.                                      ",
"                                      W L ) f d } 9.w.g.k.k.k.B.B.A.C.A.V.V.v.p.[ i a u : A V K $.$.X.                                      ",
"                                      G I ' ) _ -.:.r.g.g.k.k.k.B.B.B.B.B.B.c.p.q./ r > S w.1.^ N $.^                                       ",
"                                      Z K Y { | :.2.5.f.g.g.k.k.k.k.k.B.b.N.k.h.t.0.h ' 9.2.1.1.$.$.K                                       ",
"                                        K U { +.1.2.5.5.g.g.g.k.k.k.k.k.k.k.k.h.i.r.w.w.2.2.1.$.$.^                                         ",
"                                        J K W O.;.1.5.5.5.g.g.g.g.k.k.k.k.k.g.g.u.r.r.5.2.1.$.$.$.!                                         ",
"                                        N K ! ^ $.1.1.5.5.5.s.g.g.g.g.g.g.g.g.g.5.r.5.6.1.1.>.$.^                                           ",
"                                          J K ~ O.$.1.1.5.5.5.5.s.d.g.d.d.d.s.5.5.5.5.1.1.1.1.$.                                            ",
"                                            K ! ^ O.$.1.1.4.5.5.5.5.5.5.5.5.5.5.5.1.1.1.5.5.5.O.                                            ",
"                                              ! ! ^ O.$.$.1.1.4.5.5.5.5.5.5.5.4.1.1.,.1.5.g.1.                                              ",
"                                                ! ^ ^ O.O.$.$.,.1.1.1.1.1.1.1.1.,.$.$.4.r.5.                                                ",
"                                                    ^ ^ ^ X.O.$.$.>.$.>.$.$.>.$.$.$.$.1.                                                    ",
"                                                        P ^ O.O.O.$.O.$.$.$.$.#.O.^                                                         ",
"                                                    T + * 8 N J ! ^ O.$.O.! D v                                                             ",
"                                                5.$.$.1 % % q 2 = ; , , ; & o 3 l % - $.                                                    ",
"                                              B.1.4.1.T o % N N 7 % % & % + - J J 5 ; O.5.                                                  ",
"                                              k.1.k.g.4.o % T O.! N 7 ; ; 0 ! O.! N ; O.1.                                                  ",
"                                            B.4.4.k.m.g.% % O.g.5.1.$.O.$.4.5.4.O.! , O.>.                                                  ",
"                                            k.$.5.k.B.$.. 3 s.k.m.k.k.k.k.k.k.g.1.O.0 ^ $.                                                  ",
"                                          B.1.4.k.k.k.N o K k.m.m.m.B.B.B.B.m.g.4.O.N ^ $.d.                                                ",
"                                          d.$.5.k.m.s.4 8 4.k.m.k.B.Z.Z.C.Z.B.k.5.O.~ $.>.1.k.                                              ",
"                                        4.1.5.g.k.k.o.7 $.s.B.m.m.B.C.C.C.A.Z.k.5.O.$.$.1.>.s.5.                                            ",
"                                      k.$.7 3 7 ^ 1.^ >.5.k.B.m.k.g.k.k.k.k.k.k.g.O.1.O.X.n 8 n                                             ",
"                                    Z.5.4.^ N 7 ; 7 O.4.5.k.k.4.4 % % % # # % - v $.>.M & % , n K                                           ",
"                                    g.1.5.g.k.k.4.4 1.5.5.5.>.3 & & - - - - & % & K >.0 8 K g.5.^                                           ",
"                                    k.5.5.s.g.k.k.  5.g.4.$.7 + + + + O O + + + + - 4.N ^ 5.B.g.g.                                          ",
"                                    B.5.5.s.k.k.g.  f.g.#.8 - - & & & & & & % % + + 7 O.^ 5.m.k.4.k.                                        ",
"                                    k.1.5.g.k.B.k.  g.>.$.1.1.1.1.1.1.5.5.4.,.$.O.O.X.^ O.5.k.m.1.g.                                        ",
"                                    g.1.5.g.k.Z.k.  d.$.k.5.5.g.g.k.k.Z.C.C.B.k.g.g.k.5.1.5.k.B.5.4.                                        ",
"                                    5.1.5.s.k.A.k.5.4.s.s.1.4.d.g.k.k.Z.C.C.B.g.5.s.g.m.s.5.k.B.g.1.5.                                      ",
"                                    5.>.5.s.k.C.k.1.4.g.5.1.1.5.g.k.k.B.C.C.B.g.5.5.g.B.5.,.k.B.k.>.5.                                      ",
"                                    4.>.5.s.k.C.m.$.4.g.5.1.4.s.g.k.k.B.C.C.B.g.5.5.d.m.5.^ k.M.m.1.5.                                      ",
"                                    1.>.5.s.k.C.B.q J g.d.4.5.g.g.k.k.B.C.C.m.d.5.5.g.k.g.K s.k.B.4.1.                                      ",
"                                    $.>.g.d.k.C.m.3 + J s.5.s.g.g.k.k.k.A.A.k.k.g.g.g.k.O.N 1.k.Z.5.1.                                      ",
"                                    $.$.g.s.k.C.k.8 % + K 4.5.k.k.k.k.k.B.Z.k.g.g.s.5.5.! n ,.g.Z.s.1.g.                                    ",
"                                    O.$.g.s.k.Z.s.4.0 % % J 4.g.m.m.M.B.B.B.k.k.k.s.4.T { n O.g.B.g.1.5.                                    ",
"                                    $.$.g.g.k.Z.1.5.g.9 % % K g.k.m.B.Z.A.B.B.k.s.1.! n 2.  ^ 5.M.g.1.5.                                    ",
"                                    1.$.g.g.k.g.K >.5.k.8 % + ! g.k.B.B.B.B.m.g.5.$.q 1.5.  ! 1.k.g.4.5.                                    ",
"                                      $.s.k.^ 1 4 ^ $.5.k.7 + - $.s.k.B.B.m.g.s.X.q O.s.    N , - N 1.                                      ",
"                                      $.5.v ; + % x O.4.m.d.3 + 4 ,.5.s.g.5.5.N 8 ^ 5.5.      + + % v                                       ",
"                                      T < + # X O & ! 5.m.m.s.- o N $.$.O.N 4 8 $.g.5.k.    % % o + ,                                       ",
"                                      + + o %   o + K s.k.m.g.1.        v q K g.B.g.g.c.  + % & , + %                                       ",
"                                      + + + %     1 O.g.k.k.g.g.B.    h.1.g.B.C.B.g.k.    % %   1 4 %                                       ",
"                                      % + % % o d.1.5.g.k.g.k.k.k.    c.k.k.5.$.^ K ^           , 3                                         ",
"                                        + % % % 1 5.O.^ O.$.$.^ ^   B.B.k.K m N K G ^         - 4 ,                                         ",
"                                          % % & - ^ $.>.s.g.s.5.5.    k.5.g.g.k.C.g.g.        % ;                                           ",
"                                                J g.B.k.B.A.B.g.g.    k.b.g.g.k.B.k.5.k.                                                    ",
"                                                  B.$.N 0 8 7 7 c   g.C.g.1.1.$.$.$.1.^                                                     ",
"                                                  n q N J ^ 1.>.4.n g.g.5.B.B.N.B.k.k.k.                                                    ",
"                                                  g.k.g.s.k.k.g.g.O.g.5.k.k.k.m.m.k.g.g.                                                    ",
"                                                  k.k.g.5.m.k.g.d.$.! $.5.g.g.k.m.B.k.5.B.                                                  ",
"                                                  5.5.s.5.B.k.g.s.$.  ; 8 ! $.4.g.k.B.g.k.                                                  ",
"                                                  T 1.s.s.k.k.k.5.!       o - 4 0 x x q 7                                                   ",
"                                                  - 1 q v n v q ,                                                                           ",
"                                                                                                                                            "
};
