/* XPM */
static char *Marvin16[] = {
/* columns rows colors chars-per-pixel */
"14 16 79 1 ",
"  c None",
". c #272727",
"X c #333333",
"o c #959597",
"O c #969698",
"+ c #999899",
"@ c #99999A",
"# c #9A9A9A",
"$ c #9E9D9F",
"% c #A1A0A2",
"& c #A1A1A2",
"* c #A8A8A9",
"= c #A9A9AA",
"- c #AAAAAB",
"; c #ACACAD",
": c #ADADAF",
"> c #AFAFAF",
", c #AEAEB0",
"< c #AFAFB0",
"1 c #AFAFB1",
"2 c #B1B1B3",
"3 c #B2B2B3",
"4 c #B4B4B5",
"5 c #B5B5B6",
"6 c #B6B5B7",
"7 c #B6B6B7",
"8 c #B7B7B8",
"9 c #B8B8BA",
"0 c #BBBABC",
"q c #BBBBBD",
"w c #BCBBBD",
"e c #BDBCBE",
"r c #A4C487",
"t c #ADC499",
"y c #B4C6A5",
"u c #BEBEC0",
"i c #C1C1C2",
"p c #C2C1C3",
"a c #C2C2C3",
"s c #C2C2C4",
"d c #C4C4C6",
"f c #C6C9C6",
"g c #C7C6C8",
"h c #C9C9CA",
"j c #C9C9CB",
"k c #CDCECE",
"l c #D2D2D2",
"z c #D2D2D4",
"x c #D3D3D5",
"c c #D5D4D6",
"v c #D8D7D9",
"b c #D7D8D8",
"n c #D9D9DB",
"m c #DADADB",
"M c #DADED9",
"N c #DDDDDF",
"B c #DEDDDF",
"V c #DFE2DD",
"C c #DEDEE0",
"Z c #DFDEE0",
"A c #E2E3E3",
"S c #E2E2E4",
"D c #E3E2E5",
"F c #E4E4E5",
"G c #E5E5E7",
"H c #E6E5E7",
"J c #E6E6E6",
"K c #E8E9E7",
"L c #E7E7E8",
"P c #E8E8E8",
"I c #E9E8EA",
"U c #E9E9EB",
"Y c #EFEFEF",
"T c #EBF2E5",
"R c #EEF2EC",
"E c #F0F0F0",
"W c #F0F0F2",
"Q c #F7F7F8",
"! c #FBFBFB",
/* pixels */
"              ",
"     <eu      ",
"    3zFLMd    ",
"    hFQ!Wz    ",
"    yMPKTM    ",
"    tVPRrf    ",
"    3zCCbh    ",
"     #===     ",
"    Coe==     ",
"    ede&3*    ",
"    FzO#<F    ",
"    P<FWCM    ",
"    e#3Pd&    ",
"    .dddzX    ",
"     ghFF     ",
"     83#3     "
};
