/* XPM */
static char *one[] = {
/* columns rows colors chars-per-pixel */
"80 80 120 2 ",
"   c None",
".  c #1F1F1E",
"X  c #242323",
"o  c #2D2726",
"O  c #282827",
"+  c #2C2C2C",
"@  c #3B2C29",
"#  c #30302F",
"$  c #303030",
"%  c #3D3332",
"&  c #383837",
"*  c #3D3D3C",
"=  c #53312F",
"-  c #443231",
";  c #4E3432",
":  c #493837",
">  c #423E3C",
",  c #4D3C39",
"<  c #5B3431",
"1  c #632D2C",
"2  c #6E2C2B",
"3  c #722324",
"4  c #762F2D",
"5  c #79292A",
"6  c #62312F",
"7  c #683634",
"8  c #7C3D36",
"9  c #434342",
"0  c #4B4B4A",
"q  c #515150",
"w  c #5C5C5B",
"e  c #695953",
"r  c #605D5D",
"t  c #656565",
"y  c #686767",
"u  c #6B6B6A",
"i  c #777676",
"p  c #7A7979",
"a  c #8C1718",
"s  c #851B1B",
"d  c #971416",
"f  c #9E1517",
"g  c #9D191B",
"h  c #AF1E1E",
"j  c #BD1719",
"k  c #B21E1E",
"l  c #BC1E1E",
"z  c #96201C",
"x  c #A3201F",
"c  c #AF1E20",
"v  c #BB1F20",
"b  c #8B2321",
"n  c #802728",
"m  c #852E2C",
"M  c #922826",
"N  c #9C2C27",
"B  c #922B29",
"V  c #82322F",
"C  c #89322E",
"Z  c #91302B",
"A  c #A32224",
"S  c #AC2524",
"D  c #A22F2A",
"F  c #A92E2A",
"G  c #B52523",
"H  c #B92221",
"J  c #B52A27",
"K  c #B32C28",
"L  c #A9322C",
"P  c #B3362F",
"I  c #AF3334",
"U  c #BE3231",
"Y  c #DD0F14",
"T  c #C7171B",
"R  c #CC1719",
"E  c #C51B1C",
"W  c #CB1B1D",
"Q  c #D41216",
"!  c #DD1216",
"~  c #D41619",
"^  c #D91619",
"/  c #D31A1C",
"(  c #D81A1B",
")  c #E30D13",
"_  c #E11115",
"`  c #CE201F",
"'  c #D3211F",
"]  c #C32423",
"[  c #CC2220",
"{  c #C32825",
"}  c #CA272A",
"|  c #C72B2D",
" . c #C82C2D",
".. c #C43A3D",
"X. c #BA4B4A",
"o. c #B8504E",
"O. c #807F7F",
"+. c #B36161",
"@. c #828281",
"#. c #888887",
"$. c #8C8C8B",
"%. c #949393",
"&. c #989696",
"*. c #9C9B9B",
"=. c #A48E8D",
"-. c #A79695",
";. c #AA9997",
":. c #A19D9D",
">. c #B69593",
",. c #A3A3A3",
"<. c #A8A7A7",
"1. c #ACABAB",
"2. c #B0AFAF",
"3. c #BCACAC",
"4. c #B4B3B3",
"5. c #BAB4B3",
"6. c #B9B8B7",
"7. c #BCBBBB",
"8. c #C0BFBF",
"9. c #C2C1C1",
/* pixels */
"                                                                                                                                                                ",
"                                                                                                                                                                ",
"                                                                                                                                                                ",
"                                                                      + & & & + & & +                                                                           ",
"                                                                    + * * * * * * * * * & +                                                                     ",
"                                                                  + * * * * * * * * * * * * +                                                                   ",
"                                                                  & * * * * 0 O.* * * * * * * +                                                                 ",
"                                                                  * * * * * i 7.O.* * * * * * &                                                                 ",
"                                                                + * * * * q 4.9.9.#.9 * * * * * O                                                               ",
"                                                                + * * 9 w #.2.9.9.1.@.w 9 * * * &                                                               ",
"                                                                # 9 r &.1.1.,.8.9.1.2.1.*.y t * &                                                               ",
"                                                                + y ,.9.4.1.,.8.7.<.1.1.9.4.@.0 &                                                               ",
"                                                                + y &.7.7.1.,.1.,.1.1.4.9.#.t * +                                                               ",
"                                                                + * 9 &.5.3.5.:.:.5.3.3.3.r * * +                                                               ",
"                                                                  * : I | W | ....| W W W n * *                                                                 ",
"                                                                  & 2 ! ) ) ) ) ) ) ) ) ) A * &                                                                 ",
"                                                                  + 5 ) ) ) ) ) ) ) ) ) ) l * &                                                                 ",
"                                                                    3 ) ) ) ) ) ) ) ) ) ) T > &                                                                 ",
"                                                                  + 1 ! ) ) ) ) ) ) ) ) ) h * &                                                                 ",
"                                                                  # , G / ~ ~ ' / ~ ~ / ] 8 * &                                                                 ",
"                                                                  * 7 / / ~ ~ / ~ ~ ~ ~ ! Z * &                                                                 ",
"                                                                @ 1 k ) ) ) ) ) ) ) ) ) ) h : * o                                                               ",
"                                                                x Q ) ) ) ) ) ) ) ) ) ) ) Y k M b                                                               ",
"                                                                Q ) ) ) ) ) ) ) ) ) ) ) ) ) ) ) ) G                                                             ",
"                                                              H ) ) ) ) ) ) ) ) ) ) ) ) ) ) ) ) ) !                                                             ",
"                                                              ~ ) ) ) ) ) ) ) ) ) ) ) ) ) ) ) ) ) ) H                                                           ",
"                                                            G ) ) ) ) ) ) ) ) ) ) ) ) ) ) ) ) ) ) ) /                                                           ",
"                                                            W ) ) ) ) ) ) ) ) ) ) ) ) ) ) ) ) ) ) ) !                                                           ",
"                                                            ! ) ) ) ) ) ) ) ) ) ) ) ) ) ) ) ) ) ) ) ) H                                                         ",
"                                                          G ) ) ) ) ) ) ) ) ) ) ) ) ) ) ) ) ) ) ) ) ) W                                                         ",
"                                                          R ) ) ) ) ) ) ) ) ) ) ) ) ) ) ) ) ) ) ) ) ) !                                                         ",
"                                                        N _ ) ) ) ) ) ) ) ) ) ) ) ) ) ) ) ) ^ / ) ) ) ) H                                                       ",
"                                                        E ) ) ) ) ) ) ) ) ) ) ) ) ) ) ) ) ) ^ [ ) ) ) ) E                                                       ",
"                                                        ~ ) ) ) ) ) ) ) ) ) ) ) ) ) ) ) ) ) _ ] ) ) ) ) W                                                       ",
"                                                        W ) ) ) ) ) ) ) ) ) ) ) ) ) ) ) ) ) ) ] ! ) ) ! J                                                       ",
"                                                        F ! ) ) ) ' ) ) ) ) ) ) ) ) ) ) ) ) ) / / ) ) ]                                                         ",
"                                                          ] ) ) ) ] ) ) ) ) ) ) ) ) ) ) ) ) ) ^ ` ) ~                                                           ",
"                                                            E ) ) { ) ) ) ) ) ) ) ) ) ) ) ) ) ) { ) J                                                           ",
"                                                              ] / W ) ) ) ) ) ) ) ) ) ) ) ) ) ) [ /                                                             ",
"                                                                D ! ) ) ) ) ) ) ) ) ) ) ) ) ) ) / J                                                             ",
"                                                                l ) ) ) ) ) ) ) ) ) ) ) ) ) ) ) ) L                                                             ",
"                                                                ~ ) ) ) ) ) ) ) ) ) ) ) ) ) ) ) ) E                                                             ",
"                                                                B W ) ) ) ) ) ) ) ) ) ) ) Y ~ v G P                                                             ",
"                                                                X = B v ~ ! ! _ _ ! ~ E S n < -                                                                 ",
"                                                                X & & - < 2 V C C 4 6 ; % & & #                                                                 ",
"                                                                + & + # + + & & & & + + + + & & X                                                               ",
"                                                              X + & & # + + + & & & & + + + # & X                                                               ",
"                                                              + & & & & + + + # & & & # + + & & +                                                               ",
"                                                            X & & & + + + # & & + + + + & & + + +                                                               ",
"                                                            + & & & # + + & & & + + + + & & & + & X                                                             ",
"                                                          X + + & & + + + + & & + + & # & & + + & +                                                             ",
"                                                        X + + + & & + + + + & & + + & & & & + + & + .                                                           ",
"                                                        + & + + & & # + + + # & + & & & + + + + & # X                                                           ",
"                                                      X & & + + & & + + + + & & # & & & # & + + & & + X                                                         ",
"                                                      + & & & # + + + + + + + + # & & & & & & & & # + +                                                         ",
"                                                      X + + & & + + + + + + + + + & & & & & & & & & + + X                                                       ",
"                                                            X X X X + & & & + & & 0 0 * + + + + + + X X                                                         ",
"                                                                      0 p @.*.4.  4.5.4.4.%.                                                                    ",
"                                                                        7.9.9.9.  ,.9.9.9.2.                                                                    ",
"                                                                      %.7.9.9.9.  #.7.9.9.7.                                                                    ",
"                                                                      %.9.9.9.8.    4.9.9.9.*.                                                                  ",
"                                                                      &.7.9.9.4.    ,.8.9.9.4.                                                                  ",
"                                                                        7.9.9.,.      7.9.9.4.                                                                  ",
"                                                                        5.9.9.&.      1.9.9.7.                                                                  ",
"                                                                        4.9.8.#.        7.9.7.                                                                  ",
"                                                                        1.9.7.          ,.9.8.%.                                                                ",
"                                                                        ,.9.7.            7.8.*.                                                                ",
"                                                                        *.9.2.            ,.9.,.                                                                ",
"                                                                        *.7.1.            #.9.1.                                                                ",
"                                                                          7.4.              9.4.                                                                ",
"                                                                          6.7.              9.4.                                                                ",
"                                                                          4.9.O.            9.8.                                                                ",
"                                                                          1.9.%.            9.9.@.                                                              ",
"                                                                          1.9.1.          e 4.9.;.                                                              ",
"                                                                          -.8.=.z         8 +.>.X.a                                                             ",
"                                                                          U o.| f           E / Q                                                               ",
"                                                                          j Y Q               g s                                                               ",
"                                                                            d                                                                                   ",
"                                                                                                                                                                ",
"                                                                                                                                                                "
};
