/* XPM */
static char *star[] = {
/* columns rows colors chars-per-pixel */
"80 80 148 2 ",
"   c None",
".  c #D38C04",
"X  c #CF9501",
"o  c #D69207",
"O  c #D99702",
"+  c #D59B01",
"@  c #DC9C01",
"#  c #E69401",
"$  c #E19D02",
"%  c #ED9F01",
"&  c #F39E01",
"*  c #F59E09",
"=  c #DDA603",
"-  c #DCAA06",
";  c #DEA80B",
":  c #DBB307",
">  c #D7A912",
",  c #E4A202",
"<  c #E9A401",
"1  c #E4AB04",
"2  c #ECAD01",
"3  c #E1AF08",
"4  c #F5A502",
"5  c #FAA704",
"6  c #F5AC01",
"7  c #F9AD02",
"8  c #F7A20B",
"9  c #F9A60B",
"0  c #F6AC0B",
"q  c #FCAE0B",
"w  c #E5B303",
"e  c #ECB401",
"r  c #EDBB03",
"t  c #EDBA0D",
"y  c #F5B402",
"u  c #FBB402",
"i  c #F4BB02",
"p  c #FCBC02",
"a  c #F5B30A",
"s  c #FCB40B",
"d  c #F4BB0A",
"f  c #FCBC0B",
"g  c #EBA31A",
"h  c #F0A714",
"j  c #F0A911",
"k  c #FCAF10",
"l  c #E5B018",
"z  c #EEBF1B",
"x  c #FCB513",
"c  c #F5BF15",
"v  c #FCBC13",
"b  c #F6B61B",
"n  c #FCB419",
"m  c #FCB91B",
"M  c #FBB324",
"N  c #F4BA21",
"B  c #F9B825",
"V  c #F2B32C",
"C  c #F0BA2B",
"Z  c #F9BC2A",
"A  c #F7BE34",
"S  c #F0BA3D",
"D  c #EEC309",
"F  c #F3C204",
"G  c #FDC304",
"H  c #F4C907",
"J  c #FECB05",
"K  c #F3C40A",
"L  c #FDC30B",
"P  c #F3CF0C",
"I  c #FECC0A",
"U  c #FED206",
"Y  c #FFD30A",
"T  c #FEDA0C",
"R  c #FDC414",
"E  c #FECB13",
"W  c #F7C61C",
"Q  c #FDC41B",
"!  c #F4C81E",
"~  c #FDCB1C",
"^  c #F2D212",
"/  c #FFD313",
"(  c #F3D813",
")  c #FFD810",
"_  c #F4D119",
"`  c #FED21C",
"'  c #FFDB1D",
"]  c #FFE412",
"[  c #EDC426",
"{  c #FBC321",
"}  c #FDCC23",
"|  c #F5C32B",
" . c #FBC42A",
".. c #F7CE2E",
"X. c #FCCB2B",
"o. c #FED423",
"O. c #FDD32C",
"+. c #FFDF2D",
"@. c #E5C13C",
"#. c #F3C334",
"$. c #FBC733",
"%. c #F4CD36",
"&. c #FCCC33",
"*. c #F6C33B",
"=. c #FAC63C",
"-. c #F3CB39",
";. c #FCCC3C",
":. c #FDD334",
">. c #FED932",
",. c #FDD33E",
"<. c #FEDB3C",
"1. c #FEE23C",
"2. c #E4B346",
"3. c #E7B951",
"4. c #F6C143",
"5. c #FCC545",
"6. c #F6CC46",
"7. c #FBCB43",
"8. c #F4C24B",
"9. c #FBC448",
"0. c #F2C94B",
"q. c #FCCD4B",
"w. c #F6D140",
"e. c #FDD245",
"r. c #F7DB46",
"t. c #FEDB44",
"y. c #FCD34C",
"u. c #F5DC4E",
"i. c #FFDD4B",
"p. c #FACD53",
"a. c #FCCE59",
"s. c #FCD353",
"d. c #FEDC54",
"f. c #FCD35C",
"g. c #FCD85A",
"h. c #FFE446",
"j. c #FFE24B",
"k. c #FFE25A",
"l. c #FDD562",
"z. c #FDDA63",
"x. c #FFDD6B",
"c. c #FEE167",
"v. c #FEEC60",
"b. c #FEE46B",
"n. c #FFE472",
"m. c #FFE974",
"M. c #FFEB7C",
"N. c #FFF282",
/* pixels */
"                                                                                                                                                                ",
"                                                                                                                                                                ",
"                                                                              :                                                                                 ",
"                                                                              J                                                                                 ",
"                                                                            = U                                                                                 ",
"                                                                            r J w                                                                               ",
"                                                                            J J F                                                                               ",
"                                                                          r G T U                                                                               ",
"                                                                          r F J J r                                                                             ",
"                                                                          G i U U 1                                                                             ",
"                                                                        r U U U U i                                                                             ",
"                                                                        F U J J J J ^                                                                           ",
"                                                                        U G J Y J J D                                                                           ",
"                                                                      D U G J U J J i                                                                           ",
"                                                                      i J J G G G y K >                                                                         ",
"                                                                      Y Y J J U G K ~ !                                                                         ",
"                                                                    : ] G i J ) / ~ +.O.                                                                        ",
"                                                                    G J i i J / E E o.c                                                                         ",
"                                                                    J G J G G G K R W X.r.                                                                      ",
"                                                                  : J J G J J G K o.:.:.-.                                                                      ",
"                                                                  J G G G J Y Y E O.:.&.|                                                                       ",
"                                                                  T J J G G J Y ` :.<.j.t.%.                                                                    ",
"                                                                w Y G G J i G G E } :.h.h...                                                                    ",
"                                                                e G p G J p J U / ~ ~ O.>.O.                                                                    ",
"                                                                p J G G G J U G i E o.W W } [                                                                   ",
"                                                              D G J G i G J Y G J I ~ } :.<.,.                                                                  ",
"                                                              D G G Y U U U J J G E ` } :.j.v.                                                                  ",
"                                                              G p G J Y J G Y J G K R ~ O.j.t.@.                                                                ",
"      + e i D D 2 e i 2 i K r 2 2 e i K K e 2 K F 2 2 2 i F y p G G p J G y G G G G y R O.,.,.t.#.u.w.#.l z _ ^ K e e i F r 1 P ( r r i e e r i i r w           ",
"        K I p p 6 y G G p u p u p p G J Y G y G G p y p J Y G p p p G Y G y p G p I E ` O.:.t.;.;.e.i.,.<.<.' Y Y G y p J Y G J J G J G p p y G G i             ",
"            6 p y p G J y y y G G p p u p p G J J G J p J G J I p p p y p p J J G I K ~ <.,.$.#.C ;.;.t.&.X.o.I G G G J Y Y i p G G J U J J G p r               ",
"              2 p p G p p p G J G G I p p p y J G G G u p p G G G I G y p I I Y G I E R O.| =.=.7.e.d.;.&.O.o.E G G p J G T J y G Y G J G J Y -                 ",
"                X G u p p J I G u Y Y Y G G p p G G u p G J p G G y K ` / I I K K K K R { $.=.e.7.7.7.e.&.O.~ f / G G i y p Y U G J p Y Y e                     ",
"                    y p p J G G I G p p u p I J p p y p G J G K y d R ` E K p E K E E o.W N =.d.7.;.,. .{ v R R K G p G p J J J G G y G r                       ",
"                      2 G G u G p 6 u y u 6 I J I Y G G G G f E R y a R R K K K K / E R { X.&.<.O.~ ` R a W W f p p G Y J G p J y G i                           ",
"                          p 6 u p y G u p p G u G G G G p K R v R W ~ v v R R p y K } ;.#.e.t.>.' G G i i K f y y 6 I I p J I G p w                             ",
"                            $ 6 u G G p p J p 6 p G y p p f 6 R v W W v v R f E R :.k.q.6.s.s.d.1./ G J J G G G G I J G p G J I r                               ",
"                              , p G G u u G G p G I 6 u p u 4 R ~ ~ } W W a a E X.d.g.p.s.g.s.b.w.` J T Y G J J p J G Y J G 2                                   ",
"                                  i p u 6 u G G I G p I u 6 p R R E W W v v R f &.s.z.f.0.g.f.b.e.O.J J T G p G G G u G p w                                     ",
"                                    , p G u 6 G G G G G u y I G G Y I K y K K y e.c.x.z.0.b.b.z.s.h.] G J J G p G G I K                                         ",
"                                        i G G p u p u J G G u p G I Y J p K f v s.f.p.z.n.m.n.z.s.<.T G y p J u G G i                                           ",
"                                          2 p p u p 6 G G G p p p G u G G p E R e.s.f.z.M.N.b.z.d.>.J G p p I y p 1                                             ",
"                                            , u p G p G G p G I y G p p G G f y  .q.z.b.x.x.b.g.d.~ i G G p Y 6                                                 ",
"                                                p I p p G u u G u p G G J I K R ~ ,.q.z.l.n.p.q.>.G p G J p 1                                                   ",
"                                                  Y p p 6 p p u p p Y J p I K v R W b ;.q.s.=.$.~ I p p G @                                                     ",
"                                                  G 7 p u p G p G p J J p G R s R f K R W } v s K K u p G -                                                     ",
"                                                  p p u 7 I p p I p p G p p v s f 6 K f K K u u p p G G I I                                                     ",
"                                                1 K G I p G u % 6 p p G p R s s f s R u p K K I u p I G u u                                                     ",
"                                                G G u u u p u 7 u p u u v W W v E s u f K p 6 G 7 u u u u I =                                                   ",
"                                                I 6 4 u K G u K E s s v } 0 4 s K p p 7 6 p u 6 7 p 6 6 I G u                                                   ",
"                                              1 u 7 7 u p p u f } m n v W v 0 s p u 7 u 7 p u p p p u p I p u                                                   ",
"                                              u G u u u G f X.e.q.5.=.B W v 7 u u p p p K p G p p p u p p G p ,                                                 ",
"                                              p p 4 4 u p  .q.4.p.l.f.9.$.s u 7 u p I I u p G 7 p u 7 p p G p p                                                 ",
"                                            t u p 6 7 u n A s.f.x.x.x.l.5.m 7 u p u p u 4 p p u K G p u p u G p                                                 ",
"                                            u 4 u 7 u f &.s.s.f.z.f.f.n.f.;.4 < 7 4 4 4 p p p u p u K G p p G G r                                               ",
"                                            K p 6 u p u Z s.p.a.a.l.8.p.f.7.    O u u 7 p u u G G 6 u K I G p J F                                               ",
"                                          # p K 7 7 7 u B q.s.z.f.f.a.l.2.          K 7 4 u u u u u 7 u I p u J J                                               ",
"                                          # & K u 7 6 K X.V S n.z.p.l.                , u 6 u 7 u p 4 7 K G p G J H                                             ",
"                                          u s u f v u f v V p.p.a.2.                      u u 7 u p u u u u G J J r                                             ",
"                                        % u u 7 v v R 7 4 m e.l.3.                          < u 7 7 4 G K G G J G G                                             ",
"                                        4 7 5 7 0 0 s 7 5 s n                                 < 6 u u p p 7 p G J p 2                                           ",
"                                        0 0 s 0 5 7 v s u $                                       I K u 7 4 6 u p u <                                           ",
"                                      j 5 v v W 0 n 0 0                                             , 7 u 7 u 7 7 p p                                           ",
"                                      b 9 n 0 v n s 0                                                 $ 6 7 G u u 7 p 2                                         ",
"                                      9 k n 4 0 4 .                                                       6 G u 4 u I 2                                         ",
"                                    g * 0 R 5 0                                                             @ 7 4 p I p                                         ",
"                                    M n 0 s 6                                                                   6 K p 7 @                                       ",
"                                    M m n o                                                                       y p p 6                                       ",
"                                  . 8 h                                                                             . 7 u                                       ",
"                                  7 6                                                                                   d ;                                     ",
"                                                                                                                          ,                                     ",
"                                                                                                                                                                ",
"                                                                                                                                                                ",
"                                                                                                                                                                ",
"                                                                                                                                                                ",
"                                                                                                                                                                ",
"                                                                                                                                                                ",
"                                                                                                                                                                ",
"                                                                                                                                                                ",
"                                                                                                                                                                "
};
