/* XPM */
static char *stone[] = {
/* columns rows colors chars-per-pixel */
"80 80 42 1 ",
"  c #676767",
". c #686868",
"X c #696969",
"o c #6A6A6A",
"O c #6B6B6B",
"+ c #6C6C6C",
"@ c #6D6D6D",
"# c #6E6E6E",
"$ c #6F6F6F",
"% c #707070",
"& c #717171",
"* c #727272",
"= c #737373",
"- c #747474",
"; c #757575",
": c #767676",
"> c #777777",
", c #787878",
"< c #797979",
"1 c #7A7A7A",
"2 c #7B7B7B",
"3 c #7C7C7C",
"4 c #7D7D7D",
"5 c #7E7E7E",
"6 c #7F7F7F",
"7 c #808080",
"8 c #818181",
"9 c #828282",
"0 c #838383",
"q c #848484",
"w c #858585",
"e c #868686",
"r c #878787",
"t c #888888",
"y c #898989",
"u c #8A8A8A",
"i c #8B8B8B",
"p c #8C8C8C",
"a c #8D8D8D",
"s c #8E8E8E",
"d c #8F8F8F",
"f c #909090",
/* pixels */
"6666;;;;;;;;;;;;;;;;;;;;66666iiifffffff8    $iiiii88666;;;;;;;;;;;;;;;;;;;;;6666",
"6666;;;;;;;;;;;;;;;;;;;;66666iiiiifffff8    $iiiii88886;;;;;;;;;;;;;;;;;;;;;6666",
"6666;;;;;;;;;;;;;;;;;;;;66666iiiiiifiii8  $$$iiifi88886;;;;;;;;;;;;;;;;;;;;;6666",
"6666;;;;;666;;;;6666;666688888iiiiiiiii8$$$$$iiifi8888866666;;;;;;;;;;;;;;;;6666",
"666666668iiiiiiiiiiiiiiiiiiii866;;;;666;;;;;;iiifiiiiiiiiiii;$$$$;6666666666;;;;",
"666666668iffiiiiiiiiiiiiiiiif8;;;;;;;;;;;;;;;iiiiiffffffiiii;   $;6666686666;;;;",
"666666668ifffiiiffffffiiiiiif8;;;;;;;;;;;;;;;iiiiffffiififii;   $;6666886666;;;;",
"666666668ifffiffifffffiiiiiif8;;;;;;;;;;;;;;6iiiiifffiiiffii;   $;6666866666;;;;",
"666666668iiiiiiiiiiiiiiiiiiii6;;;;;;;;;;;;;;6iiiiiiiiiiiiiii;$$$$;8888866666;;;;",
"666;$$$$$6666666666;$$$$;6666;;;;;;;;;;6iiiii666668888888888666668iiiii666666666",
"666;  $$$;;;;;;;;;;$   $;;;;;;;;;;;;;;;6iiiii;;;;;6866668888666668iiiii666666666",
"666;  $$$;;;;;;;;;;$   $;;;;;;;;;;;;;;;6iiiii6;;;;6666668888666668iiiii666666666",
"666;$$$$$;;;;;;;;;;$    ;;;;;;;;;;;;;;;6iiffi6;;;;6666666666666668iiiii666666666",
"666;$$$$$;;;;;;;;;;$$$$$;;;;;;;;;;;;;;;6iiffi6;;;;6666666666666668iiiii666666666",
"666888888666666666666666$$$$$;666688iii88888866666;;;;;;;;;;;;;;;666666;;;;66666",
"6668iiiii866666666666666$  $ ;66668iiifi8888666666;;;;;;;;;;;;;;;;;;;;;;;;;;6666",
"6668iiiii866666666666666$    ;66888fiiii6666666666;;;;;;;;;;;;;;;;;;;;;;;;;;6666",
"6668iiffi866666666666666$    ;66888iiiii6666666666;;;;;;;;;;;;;;;;;;;;;;;;;;6666",
"6668ffffi888666666666666$  $ ;66888iiiii6666666666;;;;;;;;;;;;;;;;;;;;;;;;;;6666",
"6668ffffiiiii86666666666;$$$$;6666688886666666666688888888888888888888888886;;;;",
"8888fffiffffii6;;;;;;;;;;;;;;;;;;;;;;;;;;;;;;;;;;;iiiiffffffiiiifffiiiiiiif8$$  ",
"8888ffiiffffii6;;;;;;;;;;;;;;;;;;;;;;;;;;;;;;;;;;;iiiiffifffiiiiffiiiiiiiif8$$ $",
"8888iiiiiiiiii6;;;;;;;;;;;;;;;;;;;;;;;;;;;;;;;;;;;iiifffiiffffiiffffiiiiiii8$$$$",
"6888fiiiiiiiii6;;;;;;;;;;;;;;;;;;;;;;;;;;;;;;;;;;;iiffffiiffffiiffffffiiiii8$$$$",
"666688888iiii86666666666;;;;;;;;;;;;;;;;66666;$$$;8iiiiiiiii8888888888866666;;;;",
";;;;;;;;;666666666666666;;;;;;;;;;;;;;;;66666$  $$66666688886;;;;;;;;;;$$$$$6666",
";;;;;;;;;666666666666666;;;;;;;;;;;;;;;;66666$  $$6666666688;;;;;;;;;;;$   $6666",
";;;;;;;;;666666666666666;;;;;;;;;;;;;;;;66666$  $$6666666686;;;;;;;;;;;$  $$6666",
";;;;;;;;;666666666666666;;;;;;;;;;;;;;;;66666$   $66666688666;;;;;;;;;;$   $6666",
"666666666666666666666666;;;;;6666666666666666;$$$;666666686666666666666;;;;;;;66",
"iiiiiiiii866668868866666;;;;;8iifiiiiiii66666666666666666666iiiiiiiiiiiiiii8$   ",
"iiiiffiii866668868866666;;;;;8iiffiiiiii66666666666666666666iiiiiiiiffiiiii8$   ",
"ffffiiiii866668888866666;;;;;8iifiiifiii66666666666666666666iiiiiiiiiifffii8$$$ ",
"ifffiiiii866668888866666;;;;;8iiiififiii66666666666666666666iiiiiiiiiifffii8$$$ ",
"iiiiiiiii866666666666666;;;;;6iiiiiiiii8666666666666666666668iiiiiiiiiiiiii8$$$$",
"88888888866666;;;;;;;;;;;;;;;;;;;;;;;;;;;;;;;$$$$$;;;;;;;;;;;;;;;;;;;;6888886666",
"66666666666666;;;;;;;;;;;;;;;;;;;;;;;;;;;;;;;$$$ $;;;;;;;;;;;;;;;;;;;;;688666666",
"66666666666666;;;;;;;;;;;;;;;;;;;;;;;;;;;;;;;$$$ $;;;;;;;;;;;;;;;;;;;;;688666666",
"66666666666666;;;;;;;;;;;;;;;;;;;;;;;;;;;;;;;$$$ $;;;;;;;;;;;;;;;;;;;;6686666666",
"66666666666666;;;;;;;;;;;;;;;;;;;;;;;;;;;;;;;$$$  ;;;;;;;;;;;;;;;;;;;;6886666666",
"6668iiiiiiiiii$$$$$8iiii6;;;;6666666666666668iiiiiiiiiiiiiiiiiiiiiiiiiiiiiiiiiii",
"6668iiffiiiifi$$  $8iiii6;;;;6666666666666668iffiiiffffiiiiiffffiiifffffiiiffffi",
"6668ffffiiiifi$$  $8fiif6;;;;6666666666666668iiiiiffffiiiiiiffffiiiiffffiiffffii",
"6668ffffiiiifi$$  $8fiff6;;;;6666666666666668iiiiiffffiiiiiiffffiiiifffffiffffii",
"6668iiiiiiiiii$$$$$8iiii6;;;;6666666666666666iiiiiiiiiiiiiiiiiiiiiiiiiiiffffiiii",
"66666666666666;;;;;66666;;;;;;;;;;666666$$$$$68888888886666666666666668ifffi8888",
"6666;;;;;;;;;;;;;;;;;;;;;;;;;;;;;;666666$$$ $6668888666;;;;;;;;;;;;;;;6iiffi8666",
"6666;;;;;;;;;;;;;;;;;;;;;;;;;;;;;;666666$$$$$6668888666;;;;;;;;;;;;;;;6iiffi8666",
"6666;;;;;;;;;;;;;;;;;;;;;;;;;;;;;;666666    $6668886666;;;;;;;;;;;;;;;6iiiii8666",
"6666;;;;;;;;;;;;;;;;;;;;;;;;;;;;;;666666    $6668866686;;;;;;;;;;;;;;;6iiiii8666",
"666666666888886;;;;;;;;;88888888888;;;;;  $ $;;;;6iiiiii888888i88866666888886666",
"666666668iiiii6;;;;;;;;;iiiiiiffii8;;;;;  $$$;;;;;iiiiifiiiiiiifii66866688886666",
"666666668iiiii6;;;;;;;;;iiiiifffii8;;;;; $$$$;;;;;iiiiffiiiiiiffii88666688666666",
"666666668iiiii6;;;;;;;;;iiffiiffii8;;;;;  $$$;;;;;iiiiffiiiiiiffii88866688666666",
"666666668iiiii6;;;;;;;;;ifffiiifff8;;;;;  $$$;;;;;iiiiifiiiiffffii66886688666666",
";;;666668iiiii66666;;;;;8iiiiiiiii86;;;6;;;;688868iiiiiiiiiiiiiiii8888888888;;;;",
"  $;666668666666666;;;;;6666666688666668ffffffffii8666668866666668ifffiiiii8$   ",
"  $;666688666666666;;;;;6666666668666668ffffffiiii8666668866666668iiffffiii8$  $",
"  $;666686666666666;;;;;6666666666666668ffiiiiiiii8666668886666668iiffffiii8$ $$",
"  $;666688666666666;;;;;6666666666666668fiiiiiiiii8666668888666668iiffffiii8$ $$",
"$$$;666666666666666;;;;;6666666666666668fiiiiiiiii66666666666666688i8888iii8;$$$",
"6666;;;;;;;;;;;;;;;;;;;;;;;;;;;;;;;;;;;6ffiiiiiiii6;;;;;;;;;;;;;;;;;;;;;;;;68866",
"6666;;;;;;;;;;;;;;;;;;;;;;;;;;;;;;;;;;;6ffffffiifi6;;;;;;;;;;;;;;;;;;;;;;;;66888",
"6666;;;;;;;;;;;;;;;;;;;;;;;;;;;;;;;;;;;6ffffffiifi6;;;;;;;;;;;;;;;;;;;;;;;;68888",
"6666;;;;;;;;;;;;;;;;;;;;;;;;;;;;;;;;;;;6iiiiiiiiii;;;;;;;;;;;;;;;;;;;;;;;;;66666",
"66666666666666666666666666666666;;;;;;;688iiiiiii8;;;;;;;;;;;;;;;;;;;;6666668888",
"6668iiiiiiiiiiiiiiiiiiiiiiiii866666;;;;;;;;;;;;;;;$$$$$;;;;;66666666668iiiiiiiii",
"6668iiiiffiiiiiiiiiiiifiiiiii866666;;;;;;;;;;;;;;;$$   ;;;;;66666666668ifffiiiii",
"6688iiiifiiiiiiiiiffffiiiiiii866666;;;;;;;;;;;;;;;$$   ;;;;;66686668668iiiiiiiii",
"6668iififfiiiiiiiiffifiifiiii866666;;;;;;;;;;;;;;;$$   ;;;;;66666668668iffiiiiii",
"6688iiiiiiiiiiiiiiiiiiiiiiiii866666;;;;;;;;;;;;;;;;$$$$;666666666666668iiiiiiiii",
"66888888888886;;;;;;;;;;;;;;;;;;;;;;;;;;6666666666iiiiiiiiii866666;;;;;;;;;68888",
"68866666666666;;;;;;;;;;;;;;;;;;;;;;;;;;6666666666iiffffffff866666;;;;;;;;;;6666",
"68666666666666;;;;;;;;;;;;;;;;;;;;;;;;;;6666666666iififffffi866666;;;;;;;;;;6666",
"66666666666666;;;;;;;;;;;;;;;;;;;;;;;;;;6666666668iiiiiiiiii866666;;;;;;;;;;6666",
"66666666666666;;;;;;;;;;;;;;;;;;;;;;;;;;6666666668iiiiiiiiii866666;;;;;;;;;;6666",
";;;;;;;;;;;;;;;;;;;$$$$$8iiiiiiiii86666666666666688888866666;;;;;;;;;;;666666666",
";;;;;;;;;;;;;;;;;;;$ $  ifffiiiiiii86666666666668666666;;;;;;;;;;;;;;;;666666666",
";;;;;;;;;;;;;;;;;;;$$$$$iffiiiiiiii66666666666668866666;;;;;;;;;;;;;;;;666666666",
";;;;;;;;;;;;;;;;;;;$$$$$iffiiiiiiii66666666666668866666;;;;;;;;;;;;;;;;666666666"
};
