/* XPM */
static char *three[] = {
/* columns rows colors chars-per-pixel */
"80 80 110 2 ",
"   c None",
".  c #1F1F1F",
"X  c #242424",
"o  c #282625",
"O  c #2C2C2C",
"+  c #312E2E",
"@  c #3A2F2F",
"#  c #303030",
"$  c #3D3432",
"%  c #383837",
"&  c #3C3C3B",
"*  c #5E211E",
"=  c #452522",
"-  c #5F302E",
";  c #403735",
":  c #4E3331",
">  c #533432",
",  c #5B3532",
"<  c #583833",
"1  c #503D3A",
"2  c #6A2324",
"3  c #6F2E2E",
"4  c #7A2E2D",
"5  c #69322F",
"6  c #70312E",
"7  c #623733",
"8  c #683432",
"9  c #643D38",
"0  c #7B3330",
"q  c #434343",
"w  c #4A4140",
"e  c #4B4B4A",
"r  c #504F4F",
"t  c #575656",
"y  c #5F5E5E",
"u  c #666665",
"i  c #6B6B6B",
"p  c #737272",
"a  c #7D7D7D",
"s  c #8B1918",
"d  c #A91A1B",
"f  c #BD1718",
"g  c #B41D1D",
"h  c #BB1A1C",
"j  c #B2221F",
"k  c #8D2627",
"l  c #8E2925",
"z  c #822B29",
"x  c #8F2A29",
"c  c #982827",
"v  c #912828",
"b  c #A62020",
"n  c #A92523",
"m  c #A82827",
"M  c #A22B28",
"N  c #B52424",
"B  c #BA2021",
"V  c #B72A27",
"C  c #B92A26",
"Z  c #BB2B28",
"A  c #A0302E",
"S  c #AA342E",
"D  c #AA3A32",
"F  c #DF0F14",
"G  c #C81014",
"H  c #CD171A",
"J  c #C41C1E",
"K  c #CB1A1C",
"L  c #D61216",
"P  c #DE1116",
"I  c #D31619",
"U  c #DB1518",
"Y  c #D31A1B",
"T  c #E30D13",
"R  c #E01015",
"E  c #CD201F",
"W  c #C71F20",
"Q  c #CC1F20",
"!  c #C52523",
"~  c #CA2121",
"^  c #CA2D27",
"/  c #D12421",
"(  c #CA2F30",
")  c #B75F5E",
"_  c #846F6A",
"`  c #936965",
"'  c #8E7B79",
"]  c #AD6A69",
"[  c #BA6563",
"{  c #A37271",
"}  c #B57A7A",
"|  c #848483",
" . c #8A8A8A",
".. c #949393",
"X. c #989897",
"o. c #9C9C9B",
"O. c #AA8280",
"+. c #A28F8E",
"@. c #B38C89",
"#. c #B1908D",
"$. c #A09190",
"%. c #A29F9E",
"&. c #A5A4A4",
"*. c #ACABAB",
"=. c #B2AEAD",
"-. c #B4B3B3",
";. c #B8B7B7",
":. c #BCBBBB",
">. c #C0BFBF",
",. c #C2C1C1",
/* pixels */
"                                                                                                                                                                ",
"                                                                                                                                                                ",
"                                                                                                                                                                ",
"                                                                                                                                                                ",
"                                                                      O % % % O % # O                                                                           ",
"                                                                    O & & & & & & & & & %                                                                       ",
"                                                                  O & & & & & & & & & & & % X                                                                   ",
"                                                                  % & & & & e | & & & & & & &                                                                   ",
"                                                                  & & & & &  .>.a q & & & & & %                                                                 ",
"                                                                O & & & & y -.,.;.| q & & & & &                                                                 ",
"                                                                O & & e p *.-.,.,.=.X.i e % & &                                                                 ",
"                                                                O q i *.-. .X.,.>.X. .-.&.| u & O                                                               ",
"                                                                O u &.,.;.| %.>.;.*.&.;.,.o.a %                                                                 ",
"                                                                O t a -.;.-.-.&.&.;.;.;.-.i e &                                                                 ",
"                                                                  & & ' @.} @.$.+.@.} } { w & &                                                                 ",
"                                                                  & > K P F P P P P F F L 3 & %                                                                 ",
"                                                                  % 2 T T T T T T T T T P 4 & O                                                                 ",
"                                                                    2 T T T T T T T T T T k & O                                                                 ",
"                                                                    2 T T T T T T T T T T v & O                                                                 ",
"                                                                  O > K T T T T T T T P K 8 & O                                                                 ",
"                                                                  % 1 C ! J W ^ W J J W ! 9 & O                                                                 ",
"                                                                o ; z P T T T T T T T T P 6 & %                                                                 ",
"                                                                * d L T T T T T T T T T T h 5 < =                                                               ",
"                                                                h T T T T T T T T T T T T T F F !                                                               ",
"                                                                P T T T T T T T T T T T T T T T T V                                                             ",
"                                                              h T T T T T T T T T T T T T T T T T Y                                                             ",
"                                                              P T T T T T T T T T T T T T T T T T T S                                                           ",
"                                                            h T T T T T T T T T T T T T T T T T T T !                                                           ",
"                                                            I T T T T T T T T T T T T T T T T T T T Y                                                           ",
"                                                            F T T T T T T T T T T T T T T T T T T T R S                                                         ",
"                                                          f T T T T T T T T T T T T T T T T T T T T T !                                                         ",
"                                                          L T T T T T T T T T T T T T T T T / T T T T Y                                                         ",
"                                                        d F T T T T T T T T T T T T T T T T ! P T T T P S                                                       ",
"                                                        J T T T T T T T T T T T T T T T T T P ~ T T T P S                                                       ",
"                                                        h T T T T T T T T T T T T T T T T T R ! T T T K                                                         ",
"                                                          L T T T Y R T T T T T T T T T T T T ! T T P                                                           ",
"                                                          j F T T W T T T T T T T T T T T T T E P T Z                                                           ",
"                                                            g P T ! T T T T T T T T T T T T T P ~ Y                                                             ",
"                                                              n Y E T T T T T T T T T T T T T T ! !                                                             ",
"                                                                l I T T T T T T T T T T T T T T Q D                                                             ",
"                                                                g T T T T T T T T T T T T T T T Y                                                               ",
"                                                                J T T T T T T T T T T T T T T T R S                                                             ",
"                                                                  b P T T T T T T T T T T I N x M                                                               ",
"                                                                  @ - c h H U P P I J m 0 > $ +                                                                 ",
"                                                                X # O % $ : < 7 7 : $ % O O % O                                                                 ",
"                                                                O % O O O O % % % % O # O O % O                                                                 ",
"                                                              X # % % # O O O % % % # # O # % % X                                                               ",
"                                                              O % % % % O O O % % % # # O O % % X                                                               ",
"                                                            X % % % % % O O # % O O O O % % % O O                                                               ",
"                                                          . O % % % % # O O O % O O O O % % % O O                                                               ",
"                                                          O O O % % O O O O % % O O # O % % O O % X                                                             ",
"                                                        X O O O % % O O O O % % O O % % % % O O % O                                                             ",
"                                                        O % O O # O O O # % % % # % % % O O O O % % X                                                           ",
"                                                      X % % O # O O O O O O % % % % % % O O O O % % O                                                           ",
"                                                      X O # % % # O O O O O O O O O % % % % % % % # O O                                                         ",
"                                                          X X X O O O O O O O O O # % % % % % % % O O X                                                         ",
"                                                                      % r t i a i o.X.| p e X X                                                                 ",
"                                                                        -.;.>.;.  -.,.,.>.o.                                                                    ",
"                                                                      X.;.,.,.;.  o.,.,.,.*.                                                                    ",
"                                                                      X.,.,.,.;.    ;.,.,.;.                                                                    ",
"                                                                      X.>.,.,.-.    -.,.,.>.X.                                                                  ",
"                                                                        ;.,.,.&.    X.>.,.,.o.                                                                  ",
"                                                                        ;.,.,.X.      -.,.,.*.                                                                  ",
"                                                                        -.,.>. .      X.>.,.;.                                                                  ",
"                                                                        *.,.;.          *.,.;.                                                                  ",
"                                                                        &.,.;.          X.;.;.                                                                  ",
"                                                                        o.,.*.            -.;.                                                                  ",
"                                                                        o.;.*.            &.,.X.                                                                ",
"                                                                          ;.-.            %.,.o.                                                                ",
"                                                                          ;.;.            %.,.&.                                                                ",
"                                                                          -.,.a           X.,.-.                                                                ",
"                                                                          *.,.X.           .,.;.y                                                               ",
"                                                                          =.,.%.          _ ;.>.`                                                               ",
"                                                                          O.=.] s         A ) [ B                                                               ",
"                                                                          ~ ( Y s           f H d                                                               ",
"                                                                          d G h                                                                                 ",
"                                                                                                                                                                ",
"                                                                                                                                                                ",
"                                                                                                                                                                ",
"                                                                                                                                                                "
};
