/* XPM */
static char *two[] = {
/* columns rows colors chars-per-pixel */
"80 80 124 2 ",
"   c None",
".  c #1F1F1F",
"X  c #242323",
"o  c #282827",
"O  c #2C2C2C",
"+  c #3A2928",
"@  c #30302F",
"#  c #303030",
"$  c #3A3231",
"%  c #3A3837",
"&  c #3C3C3B",
"*  c #552D2A",
"=  c #5E2F2E",
"-  c #443432",
";  c #4A3231",
":  c #443837",
">  c #413C3B",
",  c #513231",
"<  c #5A3231",
"1  c #583937",
"2  c #612D2D",
"3  c #782522",
"4  c #722829",
"5  c #782B29",
"6  c #62312F",
"7  c #71302D",
"8  c #643633",
"9  c #6D3430",
"0  c #703331",
"q  c #444443",
"w  c #4D4D4C",
"e  c #50504F",
"r  c #515050",
"t  c #5B5B5B",
"y  c #694C4A",
"u  c #7C5B59",
"i  c #60605F",
"p  c #616161",
"a  c #686767",
"s  c #6C6C6B",
"d  c #7B6C67",
"f  c #706F6F",
"g  c #747373",
"h  c #797877",
"j  c #7B7B7B",
"k  c #811C1B",
"l  c #8C1C1D",
"z  c #941D1C",
"x  c #A71E1E",
"c  c #B21D1D",
"v  c #BB1C1C",
"b  c #85211F",
"n  c #A0201D",
"m  c #B9211F",
"M  c #822A27",
"N  c #8A2925",
"B  c #842D2B",
"V  c #932425",
"C  c #9C2523",
"Z  c #942826",
"A  c #9C2926",
"S  c #992A29",
"D  c #853130",
"F  c #A92323",
"G  c #B52121",
"H  c #BF2020",
"J  c #BC2926",
"K  c #B32C2A",
"L  c #BB2C28",
"P  c #AB312D",
"I  c #B7312C",
"U  c #A43A31",
"Y  c #CD1216",
"T  c #C61619",
"R  c #CC1719",
"E  c #C31A1B",
"W  c #CC1A1D",
"Q  c #D41417",
"!  c #DC1216",
"~  c #D41418",
"^  c #DA1619",
"/  c #D21A1C",
"(  c #E30D13",
")  c #E11015",
"_  c #C9211F",
"`  c #CA1E20",
"'  c #C32524",
"]  c #CB2221",
"[  c #C42A26",
"{  c #CD2A24",
"}  c #D52224",
"|  c #994039",
" . c #BA4846",
".. c #BF5857",
"X. c #AA6965",
"o. c #B46B6C",
"O. c #A07877",
"+. c #AF7F7D",
"@. c #B77171",
"#. c #B87F7E",
"$. c #C24545",
"%. c #91837F",
"&. c #868585",
"*. c #888787",
"=. c #8D8C8C",
"-. c #958584",
";. c #908F8F",
":. c #90908F",
">. c #949393",
",. c #9D9C9C",
"<. c #AF8182",
"1. c #B88381",
"2. c #B2918F",
"3. c #A4A3A3",
"4. c #A8A7A6",
"5. c #ACABAB",
"6. c #B2ADAD",
"7. c #B0B0AF",
"8. c #B4B4B3",
"9. c #B8B7B7",
"0. c #B8B8B7",
"q. c #BCBBBB",
"w. c #C0BFBF",
"e. c #C2C1C1",
/* pixels */
"                                                                                                                                                                ",
"                                                                                                                                                                ",
"                                                                        o o o                                                                                   ",
"                                                                    o % & & & % & & & # o                                                                       ",
"                                                                    & & & & & & & & & & & #                                                                     ",
"                                                                  # & & & & q q & & & & & & #                                                                   ",
"                                                                  & & & & & p 3.e & & & & & & o                                                                 ",
"                                                                o & & & & q >.e.5.r & & & & & &                                                                 ",
"                                                                o & & & & s 0.e.e.5.i & & & & & o                                                               ",
"                                                                # & q t *.8.7.w.e.8.,.:.p q q & #                                                               ",
"                                                                # t =.q.8.;.>.q.e.3.h 5.q.,.*.q #                                                               ",
"                                                                @ h 5.e.8.,.3.q.w.8.8.6.e.8.*.q #                                                               ",
"                                                                o t h 8.q.8.9.3.>.8.8.8.q.h w & o                                                               ",
"                                                                o & % O.#.o.1.<.<.1.@.o.o.y & & o                                                               ",
"                                                                  & = R ! ( Q ~ ~ ! ( ( ( Z > &                                                                 ",
"                                                                  # M ( ( ( ( ( ( ( ( ( ( x > &                                                                 ",
"                                                                  o N ( ( ( ( ( ( ( ( ( ( ' : #                                                                 ",
"                                                                  o M ( ( ( ( ( ( ( ( ( ( W : #                                                                 ",
"                                                                  o 2 ~ ( ( ( ( ) Q Q Q Q Z > #                                                                 ",
"                                                                  # 1 J W W W } ] W ] ] ] D & #                                                                 ",
"                                                                o & M Q Q Q Q Q ) ( ) ( ( Z & &                                                                 ",
"                                                                * Z ~ ( ( ( ( ( ( ( ( ( ( T 6 : +                                                               ",
"                                                                E ( ( ( ( ( ( ( ( ( ( ( ( ( Q ' E                                                               ",
"                                                              z ) ( ( ( ( ( ( ( ( ( ( ( ( ( ( ( ( ]                                                             ",
"                                                              T ( ( ( ( ( ( ( ( ( ( ( ( ( ( ( ( ( Q K                                                           ",
"                                                              Q ( ( ( ( ( ( ( ( ( ( ( ( ( ( ( ( ( ( ]                                                           ",
"                                                            v ( ( ( ( ( ( ( ( ( ( ( ( ( ( ( ( ( ( ( ~                                                           ",
"                                                            Q ( ( ( ( ( ( ( ( ( ( ( ( ( ( ( ( ( ( ( ) K                                                         ",
"                                                          n ( ( ( ( ( ( ( ( ( ( ( ( ( ( ( ( ( ( ( ( ( '                                                         ",
"                                                          E ( ( ( ( ( ( ( ( ( ( ( ( ( ( ( ( ( ( ( ( ( /                                                         ",
"                                                          Q ( ( ( ( ( ( ( ( ( ( ( ( ( ( ( ( ( ( ( ( ( Q P                                                       ",
"                                                        c ( ( ( ( ( ( ( ( ( ( ( ( ( ( ( ( ( Q ` ( ( ( ( '                                                       ",
"                                                        Y ( ( ( ( ( ( ( ( ( ( ( ( ( ( ( ( ( Q [ ( ( ( ( /                                                       ",
"                                                        Q ( ( ( ( ( ( ( ( ( ( ( ( ( ( ( ( ( ( [ ( ( ( ( W                                                       ",
"                                                        R ( ( ( ( ) ( ( ( ( ( ( ( ( ( ( ( ( ( ' ) ( ( Q P                                                       ",
"                                                        Z ) ( ( ( { ( ( ( ( ( ( ( ( ( ( ( ( ( ! ] ( ( J                                                         ",
"                                                          m ( ( ( [ ( ( ( ( ( ( ( ( ( ( ( ( ( ( [ ( /                                                           ",
"                                                            v Q Q ] ( ( ( ( ( ( ( ( ( ( ( ( ( ( ' Q L                                                           ",
"                                                              G _ / ( ( ( ( ( ( ( ( ( ( ( ( ( ( / ]                                                             ",
"                                                                A Q ( ( ( ( ( ( ( ( ( ( ( ( ( ( Q I                                                             ",
"                                                                E ( ( ( ( ( ( ( ( ( ( ( ( ( ( ( ( J                                                             ",
"                                                                ~ ( ( ( ( ( ( ( ( ( ( ( ( ( ( ( ( /                                                             ",
"                                                                3 v Q ( ( ( ( ( ( ( ( ( ( Q W F A U                                                             ",
"                                                                X - 5 F E ~ Q Q Q ~ R G S 0 ; #                                                                 ",
"                                                                o # # $ ; < 9 4 7 8 , : # # # # X                                                               ",
"                                                                o # # # # # # # # # # # # # # # X                                                               ",
"                                                              X # # # # # # # # # # # # # # # # o                                                               ",
"                                                              o # # # # # # # # # # # # # # # # o                                                               ",
"                                                            X # # # # # # # # # # # # # # # # # o                                                               ",
"                                                          . o # # # # # # # # # # # # # # # # # # X                                                             ",
"                                                          o # # # # # # # # # # # # # # # # # # # o                                                             ",
"                                                        X # # # # # # # # # # # # # # # # # # # # # X                                                           ",
"                                                        o # # # # # # # # # # # # # # # # # # # # # o                                                           ",
"                                                      o # # # # # # # # # # # # # # # # # # # # # # # X                                                         ",
"                                                      o # # # # # # # # # # # # # # # # # # # # # # # o                                                         ",
"                                                      X o o # # # # # # # # # # # # # # # # # # # # # @ X                                                       ",
"                                                            X X X o o o o o # q & w w q & # o o o o X X                                                         ",
"                                                                      s *.=.,.5.  3.q.8.3.h                                                                     ",
"                                                                      ,.e.e.e.5.  5.e.e.e.3.                                                                    ",
"                                                                      8.e.e.e.,.  3.e.e.e.3.                                                                    ",
"                                                                    =.w.e.e.q.    ,.e.e.e.3.                                                                    ",
"                                                                    ,.e.e.e.5.    ,.e.e.e.3.                                                                    ",
"                                                                    8.e.e.q.>.    >.e.e.e.,.                                                                    ",
"                                                                    8.e.e.8.        q.e.w.,.                                                                    ",
"                                                                    8.e.q.>.        q.e.q.                                                                      ",
"                                                                    q.e.5.          8.e.q.                                                                      ",
"                                                                    q.q.>.          3.e.8.                                                                      ",
"                                                                  >.w.8.            ,.e.5.                                                                      ",
"                                                                  ,.w.3.            ,.e.3.                                                                      ",
"                                                                  5.e.>.            ,.e.,.                                                                      ",
"                                                                  8.e.>.            5.q.,.                                                                      ",
"                                                                  8.e.*.            q.q.                                                                        ",
"                                                                f q.e.h           s w.8.                                                                        ",
"                                                                -.w.q.d           %.e.8.h                                                                       ",
"                                                                 .2.+.|           X.q.6.u                                                                       ",
"                                                                R } ] b           ] ..$.Z                                                                       ",
"                                                                k l k             R ) ~ l                                                                       ",
"                                                                                    Z k                                                                         ",
"                                                                                                                                                                ",
"                                                                                                                                                                "
};
