/* XPM */
static char *wall1[] = {
/* columns rows colors chars-per-pixel */
"80 80 50 1 ",
"  c #3A1D00",
". c #3B1E00",
"X c #3C1E00",
"o c #3D1E00",
"O c #3D1F00",
"+ c #3E1F00",
"@ c #3F1F00",
"# c #3F2000",
"$ c #402000",
"% c #412000",
"& c #412100",
"* c #422100",
"= c #432100",
"- c #432200",
"; c #442200",
": c #452200",
"> c #452300",
", c #462300",
"< c #472300",
"1 c #472400",
"2 c #482400",
"3 c #492400",
"4 c #492500",
"5 c #4A2500",
"6 c #4B2500",
"7 c #4B2600",
"8 c #4C2600",
"9 c #4D2600",
"0 c #4D2700",
"q c #4E2700",
"w c #4F2700",
"e c #4F2800",
"r c #502800",
"t c #512800",
"y c #512900",
"u c #522900",
"i c #532900",
"p c #532A00",
"a c #542A00",
"s c #552A00",
"d c #552B00",
"f c #562B00",
"g c #572B00",
"h c #572C00",
"j c #582C00",
"k c #592C00",
"l c #592D00",
"z c #5A2D00",
"x c #5B2D00",
"c c #5B2E00",
/* pixels */
"    #$$$$$$$$$$$$$$$$$$$$$$$$$$$$$$$$$$$$$$$$$$$$$$$$$$$$$$$$$$$$$$$$$$$$$$#    ",
"    $$$$$$$$$$22$$222222222222222222222222222222222222222222222222$$$$$$$$$$#   ",
"  #$$$$$$$$$22222222222222222222222222222222222222222222222222222222$$$$$$$$$#  ",
"  $$$$$$$222222222222222222222222222222222222222222222222222222222222222$$$$$$$ ",
" $$$$$$222222222222222222222222222222e222222eeee222222222222222222222222$$$$$$$#",
"$$$$$$2222222222eeeerrrrrrrrrerrrrerrrrreerrrrrrrrrrrerrre2reee22222222222$$$$$$",
"$$$$$22222222eerrrrrrrrrrrrrrrrrrrrrrrrrrrrrrrrrrrrrrrrrrrrrrrrrre222222222$$$$$",
"$$$$222222eerrrrrrrrrrrrrrrrrrrrrrrrrrrrrrrrrrrrrrrrrrrrrrrrrrrrrrrree222222$$$$",
"$$$$222222rrrrrrrrrrrrrrrrrrrrrrrrrrrrrrrrrrrrrrrrrrrrrrrrrrrrrrrrrrrr2222222$$$",
"$$$22222errrrrrrrrrrrrrrrrrrrrrrrrrrrrrrrrrrrrrrrrrrrrrrrrrrrrrrrrrrrre222222$$$",
"$$$2222errrrrrrrrrrrrrrrrrrrrrrrrrrrrrrrrrrrrrrrrrrrrrrrrrrrrrrrrrrrrrre222222$$",
"$$222222rrrrrrrrrrrrjjjjrrjjjjrrjrrrrrrrjjjjrrrrrrjjjjrrjjrrjrrrrrrrrrrr222222$$",
"$$22222rrrrrrrrrrrrrrjjjjjjjjjjjjjjjjjrrjjjjjjrrjjjjrjjjjjrrjjjjrrrrrrrrr22222$$",
"$$2222errrrrrrrrrrjjjjjjjjjjjjjjjjjjjjjjjjjjjjjjjjjjjjjjjjjjjjjjjrrrrrrrre2222$$",
"$22222rrrrrrrrjjrjjjjjjjjjjjjjjjjjjjjjjjjjjjjjjjjjjjjjjjjjjjjjjjjjrrrrrrrr2222$$",
"$22222rrrrrrrjjjjjjjjjjjjjjjjjjjjjjjjjjjjjjjjjjjjjjjjjjjjjjjjjjjjjrrrrrrrr2222$$",
"$2222errrrrrrjjjjjjjjjjjjjjjjjjjjjjjjjjjjjjjjjjjjjjjjjjjjjjjjjjjjjrrrrrrrrr2222$",
"$2222errrrrrjjjjjjjjjjjjjjjjjjjjjjjjjjjjjjjjjjjjjjjjjjjjjjjjjjjjjjjrrrrrrre2222$",
"$2222errrrrjjjjjjjjjjjjjjjjjjjjjjjjjjjjjjjjjjjjjjjjjjjjjjjjjjjjjjjjrrrrrrre2222$",
"$2222errrrrjjjjjjjjjjjjjjjjjjjjjjjjjjjjjjjjjjjjjjjjjjjjjjjjjjjjjjjjrrrrrrrr2222$",
"$22222rrrrrrrjjjjjjjjjjjjjjjjjjjjjjjjjjjjjjjjjjjjjjjjjjjjjjjjjjjjjjrjrrrrre2222$",
"$22222rrrrrjrjjjjjjjjjjjjjjjjjjjjjjjjjjjjjjjjjjjjjjjjjjjjjjjjjjjjjjjjrrrrre2222$",
"$222errrrrrrjjjjjjjjjjjjjjjjjjjjjjjjjjjjjjjjjjjjjjjjjjjjjjjjjjjjjjjjjrrrrrr2222$",
"$2222rrrrrrrjjjjjjjjjjjjjjjjjjjjjjjjjjjjjjjjjjjjjjjjjjjjjjjjjjjjjjjjjrrrrrr2222$",
"$2222rrrrrrrjjjjjjjjjjjjjjjjjjjjjjjjjjjjjjjjjjjjjjjjjjjjjjjjjjjjjjjrrrrrrrr2222$",
"$2222rrrrrrrjjjjjjjjjjjjjjjjjjjjjjjjjjjjjjjjjjjjjjjjjjjjjjjjjjjjjjjrrrrrrrr2222$",
"$2222errrrrjjjjjjjjjjjjjjjjjjjjjjjjjjjjjjjjjjjjjjjjjjjjjjjjjjjjjjjjjrrrrrrre222$",
"$2222rrrrrrrjjjjjjjjjjjjjjjjjjjjjjjjjjjjjjjjjjjjjjjjjjjjjjjjjjjjjjjjrrrrrrr2222$",
"$2222rrrrrrjjjjjjjjjjjjjjjjjjjjjjjjjjjjjjjjjjjjjjjjjjjjjjjjjjjjjjjjjrrrrrrr2222$",
"$222errrrrrjjjjjjjjjjjjjjjjjjjjjjjjjjjjjjjjjjjjjjjjjjjjjjjjjjjjjjjjjrrrrrre2222$",
"$2222rrrrrrjjjjjjjjjjjjjjjjjjjjjjjjjjjjjjjjjjjjjjjjjjjjjjjjjjjjjjjjjrrrrrrr2222$",
"$2222rrrrrrjjjjjjjjjjjjjjjjjjjjjjjjjjjjjjjjjjjjjjjjjjjjjjjjjjjjjjjjjjrrrrrr2222$",
"$2222rrrrrrrjjjjjjjjjjjjjjjjjjjjjjjjjjjjjjjjjjjjjjjjjjjjjjjjjjjjjjjrrrrrrrre222$",
"$2222errrrrrjjjjjjjjjjjjjjjjjjjjjjjjjjjjjjjjjjjjjjjjjjjjjjjjjjjjjjjrrrrrrrre222$",
"$2222rrrrrrrjjjjjjjjjjjjjjjjjjjjjjjjjjjjjjjjjjjjjjjjjjjjjjjjjjjjjjjjrrrrrrre222$",
"$2222rrrrrrrjjjjjjjjjjjjjjjjjjjjjjjjjjjjjjjjjjjjjjjjjjjjjjjjjjjjjjjjrrrrrrre222$",
"$222errrrrrjjjjjjjjjjjjjjjjjjjjjjjjjjjjjjjjjjjjjjjjjjjjjjjjjjjjjjjjjjrrrrrr2222$",
"$2222rrrrrrjjjjjjjjjjjjjjjjjjjjjjjjjjjjjjjjjjjjjjjjjjjjjjjjjjjjjjjjjjrrrrrr2222$",
"$222errrrrrjjjjjjjjjjjjjjjjjjjjjjjjjjjjjjjjjjjjjjjjjjjjjjjjjjjjjjjjjjrrrrre2222$",
"$2222rrrrrrjjjjjjjjjjjjjjjjjjjjjjjjjjjjjjjjjjjjjjjjjjjjjjjjjjjjjjjjjjrrrrre2222$",
"$2222rrrrrrrjjjjjjjjjjjjjjjjjjjjjjjjjjjjjjjjjjjjjjjjjjjjjjjjjjjjjjjrrrrrrrr2222$",
"$2222rrrrrrrjjjjjjjjjjjjjjjjjjjjjjjjjjjjjjjjjjjjjjjjjjjjjjjjjjjjjjjrrrrrrrr2222$",
"$2222rrrrrrjjjjjjjjjjjjjjjjjjjjjjjjjjjjjjjjjjjjjjjjjjjjjjjjjjjjjjjjjrrrrrrre222$",
"$2222rrrrrrjjjjjjjjjjjjjjjjjjjjjjjjjjjjjjjjjjjjjjjjjjjjjjjjjjjjjjjjjrrrrrrr2222$",
"$2222rrrrrrjjjjjjjjjjjjjjjjjjjjjjjjjjjjjjjjjjjjjjjjjjjjjjjjjjjjjjjjjrrrrrrr2222$",
"$2222errrrrjjjjjjjjjjjjjjjjjjjjjjjjjjjjjjjjjjjjjjjjjjjjjjjjjjjjjjjjjrrrrrre2222$",
"$2222rrrrrrrjjjjjjjjjjjjjjjjjjjjjjjjjjjjjjjjjjjjjjjjjjjjjjjjjjjjjjjjrrrrrrr2222$",
"$2222rrrrrrrjjjjjjjjjjjjjjjjjjjjjjjjjjjjjjjjjjjjjjjjjjjjjjjjjjjjjjjjjrrrrrr2222$",
"$2222rrrrrrjjjjjjjjjjjjjjjjjjjjjjjjjjjjjjjjjjjjjjjjjjjjjjjjjjjjjjjjrrrrrrrre222$",
"$2222rrrrrrrjjjjjjjjjjjjjjjjjjjjjjjjjjjjjjjjjjjjjjjjjjjjjjjjjjjjjjjrrrrrrrre222$",
"$2222errrrrrjjjjjjjjjjjjjjjjjjjjjjjjjjjjjjjjjjjjjjjjjjjjjjjjjjjjjjjjrrrrrrre222$",
"$2222rrrrrrrjjjjjjjjjjjjjjjjjjjjjjjjjjjjjjjjjjjjjjjjjjjjjjjjjjjjjjjjrrrrrrre222$",
"$2222rrrrrrrjjjjjjjjjjjjjjjjjjjjjjjjjjjjjjjjjjjjjjjjjjjjjjjjjjjjjjjjjrrrrrr2222$",
"$222errrrrrrjjjjjjjjjjjjjjjjjjjjjjjjjjjjjjjjjjjjjjjjjjjjjjjjjjjjjjjjjrrrrrr2222$",
"$2222rrrrrrrrjjjjjjjjjjjjjjjjjjjjjjjjjjjjjjjjjjjjjjjjjjjjjjjjjjjjjjjjrrrrre2222$",
"$2222rrrrrrrrjjjjjjjjjjjjjjjjjjjjjjjjjjjjjjjjjjjjjjjjjjjjjjjjjjjjjjjjrrrrre2222$",
"$2222rrrrrrjjjjjjjjjjjjjjjjjjjjjjjjjjjjjjjjjjjjjjjjjjjjjjjjjjjjjjjjjrrrrrrr2222$",
"$2222rrrrrrjjjjjjjjjjjjjjjjjjjjjjjjjjjjjjjjjjjjjjjjjjjjjjjjjjjjjjjjjrrrrrrr2222$",
"$2222errrrrjjjjjjjjjjjjjjjjjjjjjjjjjjjjjjjjjjjjjjjjjjjjjjjjjjjjjjjjrrrrrrrre222$",
"$2222errrrrjrjjjjjjjjjjjjjjjjjjjjjjjjjjjjjjjjjjjjjjjjjjjjjjjjjjjjjjrrrrrrrr2222$",
"$2222rrrrrrrrjjjjjjjjjjjjjjjjjjjjjjjjjjjjjjjjjjjjjjjjjjjjjjjjjjjjjjjrrrrrre2222$",
"$2222errrrrrrjjjjjjjjjjjjjjjjjjjjjjjjjjjjjjjjjjjjjjjjjjjjjjjjjjjjjjjrrrrrr22222$",
"$2222errrrrrrjjjjjjjjjjjjjjjjjjjjjjjjjjjjjjjjjjjjjjjjjjjjjjjjjjjjjjjrrrrrr22222$",
"$2222rrrrrrrrrjjjjjjjjjjjjjjjjjjjjjjjjjjjjjjjjjjjjjjjjjjjjjjjjjjjjjrrrrrrr2222$$",
"$$2222rrrrrrrrjjjjjjjjjjjjjjjjjjjjjjjjjjjjjjjjjjjjjjjjjjjjjjjjjjjjrrrrrrrr2222$$",
"$$2222errrrrrrjjjjjjjjjjjjjjjjjjjjjjjjjjjjjjjjjjjjjjjjjjjjjjjjjjjrrrrrrrrr22222$",
"$$22222rrrrrrrrjrrjjjjjjjjjjjjjjjjjjjjjjjjjjjjjjjjjjjjjjjjjjjjrrrrrrrrrrre2222$$",
"$$22222rrrrrrrrrrrrrjjjjjjjjjjjjjjjjjjjjjjjjjjjjjjjjjjjjjjjjrrrrrrrrrrrrre2222$$",
"$$222222rrrrrrrrrrjjjjrrjjjjrrrrjjjjrjrrrrjjjjrrjjjjrrrrjjjjrrrrrrrrrrrr222222$$",
"$$222222errrrrrrrrrrrrrrrrrrrrrrrrrrrrrrrrrrrrrrrrrrrrrrrrrrrrrrrrrrrrrr22222$$$",
"$$$22222errrrrrrrrrrrrrrrrrrrrrrrrrrrrrrrrrrrrrrrrrrrrrrrrrrrrrrrrrrrrre22222$$$",
"$$$$22222errrrrrrrrrrrrrrrrrrrrrrrrrrrrrrrrrrrrrrrrrrrrrrrrrrrrrrrrrrre22222$$$$",
"$$$$222222eerrrrrrrrrrrrrrrrrrrrrrrrrrrrrrrrrrrrrrrrrrrrrrrrrrrrrrrree222222$$$$",
"$$$$$2222222eerrrrrrrrrrrrrrrrrrrrrrrrrrrrrrrrrrrrrrrrrrrrrrrrrrree22222222$$$$$",
"$$$$$$22222222222e2errrrrrrrrrerrrrrrerrrrerrrrrrrrrrrrreeeeeeee2222222222$$$$$$",
"#$$$$$$$22222222222222222e2e222222e22222222222222eeee22222222222222222222$$$$$$ ",
" $$$$$$$$22222222222222222222222222222222222222222222222222222222222222$$$$$$$# ",
"  #$$$$$$$$$222222222222222222222222222222222222222222222222222222222$$$$$$$$$  ",
"   #$$$$$$$$$$2222222222222222222222222222222222222222222222222$$2$$$$$$$$$$#   ",
"     $$$$$$$$$$$$$$$$$$$$$$$$$$$$$$$$$$$$$$$$$$$$$$$$$$$$$$$$$$$$$$$$$$$$$$#    "
};
