/* XPM */
static char *wall80[] = {
/* columns rows colors chars-per-pixel */
"80 80 256 2 ",
"   c #1C0C35",
".  c #1C1735",
"X  c #1E1B2E",
"o  c #21082F",
"O  c #221C2B",
"+  c #22122F",
"@  c #220533",
"#  c #220B33",
"$  c #27083B",
"%  c #221332",
"&  c #221C34",
"*  c #29143C",
"=  c #251C3A",
"-  c #291B3D",
";  c #26143A",
":  c #1B2A2B",
">  c #18312A",
",  c #1C2A34",
"<  c #1B3538",
"1  c #0F352D",
"2  c #24242B",
"3  c #222C2C",
"4  c #232826",
"5  c #23342A",
"6  c #222434",
"7  c #222C34",
"8  c #25243A",
"9  c #29233C",
"0  c #252C3A",
"q  c #292C3C",
"w  c #2C2833",
"e  c #243335",
"r  c #293A35",
"t  c #25343A",
"y  c #29343C",
"u  c #25393B",
"i  c #293B3C",
"p  c #283734",
"a  c #30313B",
"s  c #162F1F",
"d  c #2B443C",
"f  c #324B3D",
"g  c #2B0A43",
"h  c #291A43",
"j  c #331D4C",
"k  c #33154B",
"l  c #391A51",
"z  c #1E3D44",
"x  c #1B2540",
"c  c #2B2343",
"v  c #2C2B44",
"b  c #2A2949",
"n  c #32224B",
"m  c #322C4B",
"M  c #312745",
"N  c #2C3343",
"B  c #2C3B43",
"V  c #2E3B4A",
"C  c #253945",
"Z  c #32344A",
"A  c #323B4C",
"S  c #313945",
"D  c #392C56",
"F  c #3C2B5B",
"G  c #372854",
"H  c #353C52",
"J  c #393C55",
"K  c #3B335A",
"L  c #3C3D5B",
"P  c #373354",
"I  c #2B3652",
"U  c #3F3B60",
"Y  c #3E2C60",
"T  c #413B5E",
"R  c #423C63",
"E  c #443767",
"W  c #4A376E",
"Q  c #1B4547",
"!  c #2C4344",
"~  c #2D444A",
"^  c #284848",
"/  c #314445",
"(  c #32434C",
")  c #324B4C",
"_  c #334B43",
"`  c #37534C",
"'  c #2C4853",
"]  c #354452",
"[  c #394455",
"{  c #354B52",
"}  c #3A4C54",
"|  c #3C445B",
" . c #3C4C5B",
".. c #344E59",
"X. c #2B5453",
"o. c #355354",
"O. c #3A5455",
"+. c #3C545B",
"@. c #355B5B",
"#. c #3B5B5B",
"$. c #385955",
"%. c #2E5148",
"&. c #3C625D",
"*. c #366158",
"=. c #3D4B61",
"-. c #3E4663",
";. c #3E5C62",
":. c #3C5766",
">. c #3F5776",
",. c #3D6363",
"<. c #3A6769",
"1. c #3C7A7A",
"2. c #3C6D71",
"3. c #424B5C",
"4. c #41435D",
"5. c #41585E",
"6. c #43685C",
"7. c #49735C",
"8. c #434464",
"9. c #434C64",
"0. c #454469",
"q. c #464B6A",
"w. c #49486B",
"e. c #425464",
"r. c #425C64",
"t. c #45546A",
"y. c #49546C",
"u. c #455D6A",
"i. c #495B6D",
"p. c #485366",
"a. c #4C4A73",
"s. c #514C7A",
"d. c #514777",
"f. c #4C5374",
"g. c #4C5C73",
"h. c #4A5977",
"j. c #525C7B",
"k. c #515479",
"l. c #426365",
"z. c #446A65",
"x. c #45646A",
"c. c #4A636E",
"v. c #466B6B",
"b. c #4A6C6D",
"n. c #4A6966",
"m. c #526D6C",
"M. c #4B726C",
"N. c #4A7468",
"B. c #51746E",
"V. c #4B6473",
"C. c #4C6C73",
"Z. c #4D6C7A",
"A. c #486576",
"S. c #52647C",
"D. c #526B7C",
"F. c #556D77",
"G. c #4C7373",
"H. c #4E7A75",
"J. c #4E7479",
"K. c #4D7A7A",
"L. c #447778",
"P. c #52737C",
"I. c #527C7C",
"U. c #537876",
"Y. c #49857B",
"T. c #54827D",
"R. c #59867C",
"E. c #52947F",
"W. c #60907F",
"Q. c #5B5B8B",
"!. c #575784",
"~. c #535281",
"^. c #625996",
"/. c #556382",
"(. c #556B82",
"). c #596D84",
"_. c #5B648B",
"`. c #5C6C8B",
"'. c #586386",
"]. c #4B7585",
"[. c #567483",
"{. c #5A7384",
"}. c #557C82",
"|. c #5A7B86",
" X c #5C748B",
".X c #5C7C8B",
"XX c #56788C",
"oX c #5F6891",
"OX c #5A7895",
"+X c #4C6E89",
"@X c #636788",
"#X c #627A8B",
"$X c #626995",
"%X c #617394",
"&X c #627C94",
"*X c #65759B",
"=X c #657C9A",
"-X c #69779E",
";X c #6A75A2",
":X c #6B7BA4",
">X c #6A7AA6",
",X c #6E6BA7",
"<X c #5A78A1",
"1X c #4B8183",
"2X c #558383",
"3X c #5A8385",
"4X c #5B8A84",
"5X c #5C848C",
"6X c #558B89",
"7X c #5C8C8C",
"8X c #568887",
"9X c #5C918D",
"0X c #579586",
"qX c #5E8491",
"wX c #5D8C91",
"eX c #5E889A",
"rX c #5D9392",
"tX c #5A9798",
"yX c #4D9F9F",
"uX c #63878D",
"iX c #63998A",
"pX c #628494",
"aX c #628B94",
"sX c #65839B",
"dX c #658C9B",
"fX c #698D9D",
"gX c #6A879A",
"hX c #629494",
"jX c #639A95",
"kX c #65939B",
"lX c #6A939D",
"zX c #649B9A",
"xX c #699C9C",
"cX c #6A9795",
"vX c #70939F",
"bX c #6AA39E",
"nX c #68A29A",
"mX c #6AA58A",
"MX c #579DA1",
"NX c #6A83A3",
"BX c #6B8DA4",
"VX c #6A88A7",
"CX c #6B94A3",
"ZX c #6B9CA3",
"AX c #6E93A9",
"SX c #6896A4",
"DX c #7090AA",
"FX c #4FA1A1",
"GX c #5BA5A4",
"HX c #65A4A5",
"JX c #6BA3A4",
"KX c #6CA9A5",
"LX c #6EA9A9",
"PX c #6BA5A8",
"IX c #70A7AA",
"UX c #5AA299",
/* pixels */
"LXLXKXSXSXMXFXFXnXnXiXiX0X7XOX+XOXpX5X0X7X6X6X6X[.[.[.[.P.I.T.K.K.U.M.7.7.M.M.J.v.v.u.0.8.e.,.r.&.&.@.@.@.] H Z ] ] ) ) ) _ f f %.! ! ! f u < , = = 8 u < > s s ",
"LXKXKXSXSXMXFXFXnXnXiXmXiX5X+XOXqXqXqX0X7X6X6X6X{.{.[.[.[.I.I.I.J.J.B.7.7.M.J.M.v.v.u.8.8.e.r.r.;.@.@.@.@.[ A Z ] ] ( ) ) _ f f ! ! ! ! i C < < = = 8 p p > s s ",
"LXKXKXxXxXtXGXMXxXhXjXiXiX7XXXXXeXaX7X0X7X6X6X6X[.).[.P.P.I.T.U.K.K.M.n.n.v.v.v.v.v.v.e.e.;.,.@.;.,.@.@.@.( A N ] ] ) ) ) %.^ ^ V V V N N < < < 6 6 0 p p : 1 s ",
"LXLXKXmXmXnXSXkXfXfXfXjXkXzXhXrXhXrX7X7X7X7X7X7X)./.S.m.m.U.T.Y.K.K.J.V.V.i.t.t.v.v.v.z.l.*.@.@.,.&.@.@.@.~ C z { { ) %.) ^ Q Q c c c c c < 1 1 r p p 0 0 : 1 1 ",
"LXLXbXmXmXnXSXzXfXfXfXzXjXzXrXhXhXrX7X0X7X7X6X7X(.(.D.m.m.J.U.H.K.H.J.V.A.t.t.:.v.v.v.z.z.*.@.@.,.&.@.@.@.~ C C { { { ) ) Q Q Q c c c 9 c < 1 1 p p 5 0 0 : : : ",
"LXKXKXbXbXxXlXkXsXsXfXzXzXtXtXrXhXwX5X|.|.2XY.Y.}.}.}.I.I.L.L.L.K.H.J.V.V.>.:.:.C.v.v.v.z.@.@.X.4.|  .@.@.o.X.) o.{ { ( ( ) Q ^ y y y N N u u < p r 0 6 = X . . ",
"LXLXKXKXKXSXSXSX=X=XsXzXjXrXyX0XwX7X5X{.).K.Y.Y.8X8X2X2X2XL.1.1.K.K.J.V.V.;.:.@.G.v.v.v.l.@.%.) T R | @.$.@.o.o.o.{ ) ( A ~ ! ! i p i V N u u u u r 0 % % %   # ",
"LXLXKXKXKXSXkXkX=X=XsXzXzXyXtXyXrXwX5X).(.L.Y.Y.8X8X2X2XT.L.1.1.K.K.J.V.V.<.;.:.v.v.v.v.z.@.%.%.R L | @.@.@.o.X.o.{ { ( ( ( ! ! i i i V V i u u p t , = % %     ",
"SXSXBXSXlXMXFXFXnXnXzXjXhX0X0X0XhXuX5X X X5X8X8X2X2X2X2X2XS.h.f.Z.Z.C.J.J.z.7.7.v.u.v.l.l.l.r.r.+. .+.@.@.$.o.$._ f S n n A ) _ f f f ! f t 8 , 8 p t p p < : : ",
"VXBXBXSXSXGXFXFXnXnXjXhXiX0X0XE.rXaXqX X X5X6X6X8X2X2X2XT.S.k.f.Z.Z.C.J.J.N.6.7.v.u.u.l.l.l.l.5.5.+.+.@.@.@.o.o.) _ A n n V ) ~ ! f f ! ! v 8 8 y 8 8 p p : 1 : ",
"BXVXSXSXSXnXUXUXnXnXjXaXaX7X8X8XaXwX7X.X.X5X6X5X2X2X2X2XT.D.g.g.C.Z.J.J.J.M.N.N.t.t.u.r.r.,.,.,.@.+.+.+.+.....X._ _ _ m Z ~ ) ^ ! f ! ! V 8 h . p p 0 p 5 < : : ",
"AXAXSXSXSXnXmXiXnXnXkX=X*X&X&X&XhXrXrX7X0X5X|.5X}.}.}.2XI.J.B.m.J.J.J.J.J.J.G.v.0.0.q.e.e.;.,.*.*.$.$.| | ' I ' %.%.) ) ) ^ Q Q ^ ^ ^ V V , . . 3 , 5 5 5 , < , ",
"AXAXAXSXSXnXmXiXnXnXkX=X=X&X&X&XrXrXrX0X0X5X5X2X|.}.}.2X}.J.B.B.J.J.J.H.J.J.G.v.q.0.q.t.e.,.,.*.*.$.$.| | ' ' ^ %.%.) ) ) ^ Q Q ^ ^ ^ V V x . . , 5 5 5 5 > > > ",
"IXLXLXLXKXxXxXhXSXzXkXfXpXpXqXqXrXrXrX0X7X}.].].D.Z.P.2X2XK.L.L.G.G.C.V.V.C.2.2.l.;.r.u.r.,.,.&.&.$.$.L L J H H o.%.%.) ) V V C C v y d d t 8 8 p p p p 5 p , > ",
"LXLXKXKXKXSXlXlXzXzXkXkXkXwXwXwXrX0X0X0X7X}.].Z.S.j.Z.2X2XY.1.1.L.C.C.g.f.2.2.2.6.6.,.v.l.,.,.&.5.$.$.L L L H H o.%.{ ) ) A Z v c 9 q r d i u u t p p p p p , , ",
"LXLXKXKXKXZXSXlXSXzXkXkXkXwXrXwXrXrX0X0X7X}.J.Z.S.V.Z.2XT.Y.1.1.L.G.C.g.g.2.2.2.6.&.l.v.l.,.,.,.6.$.$.L L L H H o.o.%.) ) A Z Z c c q p d p i u t t p p 0 0 0 , ",
"HXHXHXKXKXNXOX<XtXtXkXzXzXtXtXrX{.{.|.5X5X5X7X6X}.2X2X2X2XI.I.I.C.v.V.a.a.V.M.v.z.6.z.v.l.8.R U ;.+.+.@.@.@...o.{ { ) f f _ A S v v N f f i u u 8 8 = # # 6 , , ",
"HXHXHXKXSXeX<XOXtXtXzXzXzXrXtX0X|.{.|.5X5X5X7X8X4X2X}.2XT.I.I.I.v.v.c.f.a.V.M.M.z.z.z.v.l.9.R R +.+.+.@.@.$.$.o.{ { ) f f S A N v v N f i i i u 8 8 = # # 6 , , ",
"HXHXKXKXKXBXeXeXhXjXhXzXjXhXrXrX{.{.{.5X.X7X7X8X2X2X}.I.P.P.P.P.M.M.C.g.g.V.v.v.z.z.l.l.r.9.8.R @.+.+.$.$.@.$...I H V _ _ S V V C C N V i y y t 8 , 6 % + : , , ",
"AXAXSXKXKXKXKXSXiXiXiXzXzXhXhXhXoX%XoX5X.X5X7X4X2X2X}.j.j.j.S.j.H.B.J.J.J.C.V.v.v.v.v.r.r.e.9.8.@.@.+.` ` o.o.o.b b m A Z ~ ^ ^ Q Q z v v 8 t t < < , : 2 4 4 s ",
"AXBXSXKXKXKXKXSXiXiXiXzXzXkXhXaX%XoX X5X.X5X7X8X8X4XI.j.j.S.S.j.H.H.J.J.J.C.V.v.v.v.u.v.r.9.=.=.@.@.$.` ` @.o...b b m A Z ~ ^ ^ Q Q C v v C v 8 < < , 2 2 4 > s ",
"fXfXlXKXKXKXHXHXhXaXaXsXpXaXhXrX7X7X5X4X4X8X5X2X1X1XK.S.S.D.D.Z.L.G.L.J.J.V.g.t.t.=.:.6.6.5.r.;.;.+.+.` $.o.+.{ H V A ( A ~ ) ! ! ^ C j - w 6 2 p t p 0 0 2 : : ",
"cXcXcXKXKXKXKXKXBXfXsX*X%XaXhXhXrXtX0X8XR.5X5X5X1X1XK.D.D.D.Z.Z.L.1.L.J.J.g.t.a.=.=.;.6.6.6.l.l.;.+. .} }  .$.} { ] ] ( ( ( ) _ ! ! N j - = w 2 i u p p p 6 X + ",
"cXcXlXKXKXKXKXKXfXfX=X*X*XaXhXhXrX0X0X7X8X4X5X5X1X].].D.D.Z.Z.Z.1.1.L.J.J.g.a.q.-.=.+.6.6.l.l.;.+... .} } } $.} ] ] ] ] ( ( _ _ ! ! N - - 2 2 2 y u p p p 6 = O ",
"KXKXHXSXSXKXKXzXyXtXwXpX#XhXjXhXtXtX6X4X}._.Q.Q.XX}.}.2XT.I.I.K.S.g.V.v.n.v.v.v.u.u.v.z.l.l.l.,.-.| L K F  .$.$.o.o.) ( ( a w w V V V f f i y t < t p p p = + + ",
"GXGXHXKXSXSXxXSXtXtXwX&XpXaXhXrXrXrX6X4X4X_.!.Q.}.}.}.2X2XI.I.I.S.V.V.v.n.v.v.v.v.v.v.l.l.l.,.;.4.| L K F  .$.$.o.o.) ( ( a w w V V V ! ! u t y < < < p p = % + ",
"HXGXHXSXSXSXSXSXtXtXtXaXuXhXhXhXwX7X5X4X4X).'._.|.}.}.2XT.I.I.J.g.g.g.v.v.v.v.v.v.v.v.r.r.r.;.;. .=.| L L } ` $.X.X.X.~ ( v 9 9 V C V ! i u i t , , , 0 0 2 O X ",
"LXLXSX-X-XNXfXBXSXzXjXiXiXaXpXpXqX5XqX7X7X5X.X|.2X2X2XT.T.U.B.M.s.a.f.C.V.C.J.v.v.v.u.0.8.9.9.=.@.@.@.+.+.` _ _ X.X.' A A m M n Q z C ! f u t u     . , = 3 5 > ",
"LXKXSX-X-XgXBXgXzXzXnXiXiXaXpXpXqX5XqX5X5X5X|..X2X2X2XT.T.U.J.M.s.a.f.V.V.C.C.v.v.v.u.8.8.9.3.3.@.*.@.+.+.` ` f X.X.^ ( A m n n z Q Q ^ ! i t t     . , 6 3 5 > ",
"LXKXKXfXcXlXSXlXHXzXzXjXjXpX&X%XoXOXXX7X7X8X4XT.].].[.(.D.P.I.J.A.C.C.C.C.C.M.v.2.2.;.0.8.3.3.3.@.@.@.@.@.[ A A H I V ) ( ( A V C C V V V y t y . X = 8 6 0 , , ",
"LXKXSXcXcXxXlXlXnXxXzXzXzX&X%X%XOXOXXX7X7X8XR.R.].+XZ.!.S.P.I.J.1.1.G.C.C.C.C.v.2.2.;.8.8. .3.} &.@.@.@.@.L K D P D Z ) ) ) ) ) V V N N N y t q 2 O 2 0 0 0 , , ",
"LXKXSXxXcXxXZXlXKXnXzXzXzXsX%X%XOX+XXX7X7X8XR.R.].+X+X/.!.P.I.J.1.1.G.C.C.C.v.v.2.<.:.8.8.3.$.} &.&.@.@.@.L K P D D A ) ) ) %.~ V V N V y y t t O O 2 8 0 0 , 3 ",
"GXGXHXKXKXSXSXkXOXOXOXfXfXhX0XiXwXwX7X7X5X8X8XR.).(.(.S./.P.I.I.K.J.C.V.V.w.8.8.r.l.l.l.l.l.r.5.+. .+.+.+.| L H H H ( ) ) ) ) ! w w = k k q u u r p t 6 6 = + % ",
"GXGXHXKXKXSXSXxXOXOXOXfXfXiXiXiXwXwX7X7X5X8X8X8X(.(./././.P.I.I.K.K.C.V.i.w.0.8.l.l.l.l.l.r.r.;.+.+. .+. .| [ H ] H ( ) ) ) ( _ w w = k k q u u u p t 6 6 X % % ",
"HXHXHXKXKXxXxXkXOXOX.XfXfXiX0X0XwXwXqX.X.X.X4X4X{.[.[.(.D.P.I.P.J.J.C.V.V.y.w.8.c.l.v.v.l.r.r.r.| | -.+. . .} { ( ~ ( ( ( ( ~ V q 8 9 c j t u u < < < 6 = % #   ",
"ZXSXKXKXKXxXcXcX-X*X=XkXfXhXiXiXrXwX.X_.Q.`.`.).2X2X2X2XT.P.F.F.v.v.v.V.V.g.f.y.v.v.v.v.l.r.e.;.F F K  . .+.$.@.%.f ! Z m Z V Z z z C N y y u t < < , = = # o @ ",
"LXSXKXKXKXxXhXhX-X*X=XkXfXhXiXhXrXwX.XQ.Q.`. X).8X2X2X2XT.P.D.F.m.v.v.V.V.g.f.y.v.v.v.v.l.r.;.;.F F K  . .+.$.o.%.^ ! m m Z A Z C z C N y y t i < < , = . # o o ",
"VXBXBXBXBXlXxXxXSXkXkXkXfXaXaXaXwXwX.X`.`. X.X{.T.Y.Y.2X}.S.j.j.i.i.V.C.C.C.C.V.u.u.u.t.e.r.r.e.[ ] }  . .+.$.$.) ~ A n n m Z Z ^ ^ V i V q 9 = 8 , 6 3 3 6 = X ",
"VXVXNX:X:XlXnXxXHXxXzXfXfXaXpXqXqXqX5XoX X.X.X|.Y.Y.Y.2X2XS.k.f.t.>.A.J.J.J.v.v.:.:.=.q.9.e.r.5.$.` } +. .+.$.$.{ { A n j m Z v ! ! ! V ! 9 * * ; = 6 5 5 3 0 , ",
"VXVXNX:X:XlXnXnXzXxXzXfXfXaXpXpXwXwX5X X X.X.X|.Y.Y.H.2X}.S.k.s.>.>.A.J.J.J.J.v.:.:.=.9.9.e.r.e.$.$.$.+. .+.$.o.{ ] A n j m Z N ! ! ! ! V 9 * ; = = 6 5 5 3 0 , ",
"AXSXSXBXBXSXnXKXyXGXtX=X=X%X$XoX8XR.8X0X7X5X.X|.'.(.D.P.P.[.P.P.D.C.C.J.J.J.C.v.9.8.8.4.4.;.r.&.&.@.+.| L K D D { { ) ) ) ( V V V V i p p 9 * * = = 6 p p 0 0 3 ",
"SXSXSXBXBXSXKXKXUXtXkX=X=X$X$X$XW.R.8X0X7X5X.X.X/./.(.[.[.P.P.P.D.Z.C.J.J.J.J.v.9.8.4.4.T e.l.r.@.;.+.| L P D D { ] ) ) ) ( A V V V i p p 8 - ; = = 6 p p p 0 , ",
"HXSXSXSXSXSXSXlXzXzXaXsXsX*X%X%X8X8X8X0X7X5X.X.X'.!./.[.P.P.P.J.C.C.C.V.c.v.c.c.p.e.e.9.9.e.r.;.&.@.+.| L K F F { { ) ) _ A V Z v N v y p q 8 8 8 6 6 0 0 0 3 , ",
"IXLXLXKXKXBXNXNXuXuXaXkXfXaXpXpXaXwX7X0X7X.X X X!.~./.}.}.I.I.I.J.C.c.0.8.i.i.i.v.v.v.u.r.r.e.;.e.+. .| | K P D X.X.) f f S Z Z k h h N y i i u 8 8 0 = = O : : ",
"LXLXKXKXKXBXNX:XuXuXaXkXfXfXpXpXaXwX7X7X7X.X X X!.!.!.}.}.I.I.I.J.C.i.8.8.y.i.i.v.v.v.r.r.r.e.;.5.+.+.| | L K D o.X.) f f S Z N h g j N N i i u 8 8 6 = = : : O ",
"KXnXKXSXSXNX;X-XsXpXfXkXkXhXhXhX%XoX X X X.X5X.X[.[.P.J.J.P.I.P.Z.C.V.a.w.g.c.u.v.v.v.v.l.9.R R =.|  .$.} }  .] ] H A ( _ A A Z c c v N N i i p 8 8 6 # # + O O ",
"nXnXnXSXSXNX;X-XsXsXfXzXkXhXhXhX%XoX`.`.`..X5X5X2X2XI.B.m.P.P.P.Z.C.g.a.a.g.V.i.v.v.v.l.l.8.E E 8.L [ $.` $.$.o.H H A A A A V V v v v V V p p u 8 8 = @   + O O ",
"nXbXnXSXSXgX;X*XgXsXfXzXzXjXhXhX%XoX`.@X@X|.5X4X2X}.I.B.J.J.P.P.Z.C.V.a.a.g.c.i.v.v.v.l.l.8.E Y -.L  .` ` $.$.$.H H H A A A A V v v v V y i p p 0 8 = @ @ + O O ",
"NX:XNXSXSXSXKXHXlXkXfXfXfXfXaXaXoX%X XF.F.4X7X5X5X2X[.!.j.k.s.s.J.J.J.J.J.V.i.u.y.t.e.r.r.3.3.3.9.3.+.@.@.+.$.o.G G n n n S _ f _ ! V c 9 - = = q 8 0 6 6 6 , X ",
">X:XNXSXSXSXnXnXkXkXfXfXfXaXaXaX%X X`.F.F.4X7X4X4X4X[.!.!.k.s.s.H.J.J.J.J.c.i.i.y.y.t.e.5.5.3.4.9.3. .@.@.+.$.$.G G G n n A _ f ! ! V c c - % % 8 8 0 6 6 , 2 X ",
"NX>XNXSXSXSXKXSXkXlXfXpX&XpXaXpX&X#X X{.P.|..X.X2X}.[././.j.k.k.P.J.J.J.C.c.i.i.w.q.9.r.r.5.5.5.3. . . . .} } } D D D m m S ! ! ! ! V c 9 * * ; t t 0 0 0 6 = X ",
"NXNXVXKXSXSXSXSXfXfX&X@X@X&XpXpXhXhXwX5X5X X`.). X{.[.(.(.(.S.S.P.J.J.J.M.i.p.p.W W 0.u.r.l.l.,.9. .| K K H ] [ [ ] ] A V V S ! ( ! N h h k * $ u t t t p = % % ",
">XVXNXJXSXKXKXxXfXfX&X@X@X&XpXpXhXhXaX5X5X X`.`.[.{.[.[.(.S.S.S.P.J.J.J.J.i.5.p.W E 0.u.r.r.l.l.9. .| K K H [ [ ] ] ( V V ~ _ ! _ V N h h ; * * u t p p p = % % ",
"IXZXJXlXlXlXlXlXkXfXsX%X%XpXpXpXhXwXwX5X5X`.Q.!.`.).[.}.J.J.B.B.j.g.g.V.g.A.c.i.y.y.t.u.r.r.l.&.9.=.L F F H [ [ { { { ( ( m n j N N N N N q 9 8 3 3 0 0 0 = . + ",
"IXIXJXfXcXfXgXfXfXkXfXsX=XsXpXpXhXwXaX.X5X_.!.!.`.(.[.1XK.U.H.H.k.k.f.g.t.V.V.c.i.u.u.r.t.r.l.l.9.=.L F F L } ) o.{ { ( ( n k k n c v ! V y y y 2 2 2 0 6 = = + ",
"IXIXKXfXcXfXfXfXfXfXfXsX=XpXaXpXhXhXwX5X5X$X!.!.`.`.[.2XI.H.B.B.k.k.f.t.t.V.C.V.u.u.u.u.r.r.,.r.9.3.L F F H [ ( o.o.{ ] ( n k k v v v V V N y y 4 2 2 0 6 = . + ",
"LXLXSX>X>X;X;X-XxXxXzXzXzXsX&X&XoXoXoX.X.XI.U.U.{.{.[.}.}.I.P.P.s.a.s.f.a.V.v.v.v.v.u.R R E E E ;.;.+.+.+. .[ [ ] ] A A A m n n q y y ! f V t t $ $ @ # # 6 3 0 ",
"LXKXSX>X>X;X;X-XSXxXzXzXzXsX&X%X%X%X X.X5XI.R.I.{.{.[.I.}.[.P.D.s.s.a.f.f.V.C.C.v.v.u.R R R E T ;.5.+.+.+. .[ H ] H H A A m n n q q y V V V i t $ $ @ # # 6 0 3 ",
"LXSXSXNXNX:X:X-XxXzXzXzXkXpX#X#X$X_.`.5X5X4XR.R.{.{.(.(.(.D.P.D.j.j.f.g.g.V.V.c.c.c.r.0.8.R R E e.5.@.@.+.| H H A P Z A A Z m m N q q N N y y 8 $ $ % % % 6 0 , ",
"AXAXSXSXSXSXBXBXkXkXkXkXkX#X@X{.$X$X`.5X5X7XuX8X{.)./.~.s.S.D.D.K.J.J.V.V.g.i.i.u.r.e.0.8.8.R R 6.5.@.@.@.L D D j j n ~ ~ ~ ( ( N N v h = 9 q 8 8 = = = = , 5 3 ",
"AXAXAXSXSXSXBXfXlXfXkXkXkX#X#X#X$X$X`.uX5X7X7X5X{.)./.s.s.S.D.D.I.H.J.V.V.g.i.y.u.r.e.q.8.8.R R 5.r.@.@.+.L P K j j m ' ~ ~ ) _ N N v h h 8 q 8 8 8 = = O 6 0 , ",
"AXSXAXKXKXxXlXlX-X*X=XsX=XpXaXpX&X#X.X.X.X.X.X.X{.(./.~.h.S.P.P.J.B.C.V.V.a.0.0.y.e.t.u.;.e.e.e.8.| |  . .[ H A P D Z ( ( ~ ) ! m v j g $ 9 q 8 t q 0 O O + % + ",
"AXAXZXKXKXxXcXcX*X$X$X-X*XfXhXhXaXaX5X.X X.X.X X{.[./.~.h.S.P.D.B.B.C.A.A.a.W W y.w.t.l.l.;.r.r.U L L [ | | [ [ H Z H ( ( ( ) ! m c j g $ - q q i t 0 4 4 # o o ",
"AXAXSXKXKXxXcXcX$X*X$X=X*XaXhXhXaXwXqX X X X.X.X{.(.(.~.j.D.P.P.B.B.M.A.A.a.W W t.y.t.z.,.r.r.5.R L L | H [ [ [ P H H ( ( ( ~ _ v c j g $ - q q u t 0 4 O # @ o ",
"SXvXlXSXSXBXBXBX=X-X=XsX=XaXkXhXaX7X.XQ.Q.Q.Q.Q.R.T.T.I.I.D.j.j.j.j.g.V.g.g.f.y.i.y.r.l.6.r.e.9.F F F K K  .$.$.o.{ H j j n n c S S y p w q q q 8 8 0 = = # @ o ",
"SXvXSXBXSXSXBXfX-X-X=XsX=XfXhXhXwXaX.XQ.Q.Q.Q.Q.R.R.T.2X}.D.j.j.j.f.g.V.g.g.g.y.i.u.u.l.6.r.e.9.Y F F K K  .+.$.{ { ( j j n n n V V y w p q q 8 y 8 6 = = # @ o ",
"BXBXBXNXNXBXBXSXNXsXsXsXsXsXaXpXuX7X.XoX_._._._.R.I.R.}.}.S.j.j.h.f.f.V.c.V.c.i.y.t.t.r.e.e.e.e.U K K L L  .+.$.} ) A j j n n j S V i y y q 9 8 9 = = = = = % % ",
"VXVX:X,X,XNXSXSXxXxXkXfXsX&X%X%X#X|..X.X X X X).4X}.}.}.}.S.k.s.d.d.f.M.v.v.C.v.y.q.0.R E 8.;.9.5.+. .| |  .} [ [ ] Z n j n n j ! ! V V V 9 * * $ $ % 0 0 0 0 , ",
"VXVX:X,X,XNXSXlXxXzXkXsXsX=X%X%X#X|.|..X X X X`.4X|.}.}.I.S.k.s.s.d.f.v.v.C.v.v.a.q.0.R E 8.e.9.;.+. .| | | [ [ ] ] Z n j n j j ! ! ! V V 9 k * $ $ % 0 0 0 0 , ",
"DXDXNXNX:XBXSXSXxXzXkXsXsX$X^._.&X&X.X5X5X.X.X.X'.'./.D.D.D.D.S.j.j.g.V.c.V.c.c.a.q.0.E E 9.e.e.r.;.+.| | P D D H H A A A Z S m N N N N v c - - # $ = 0 0 3 4 3 ",
"ZXAXSXBXBXSXSXSXxXzXkX=X=X$X^.^.&X&XqX7X7X5X.X.X!.~.~.S.j.D.P.D.S.S.V.V.i.V.V.V.w.w.0.E E 9.r.e.;.;.+.| | G l l H P A ) ) A S Z m v v v v 9 j - ; # = 0 0 5 4 > ",
"AXAXSXBXBXSXSXSXzXjXaXsX=X$X^.^.&X&XqX7X7X5X.X|.!.~.~.S.j.D.P.D.D.S.V.V.V.c.V.c.w.w.0.E E 9.e.e.5.@.+.| L D l l P P H ) ) A A Z v c v v v 8 - - % ; = 0 0 3 4 4 ",
"IXIXKXKXnXgX;X;X-X-X-XfXfXfXaXpX&X&X&XuX.X.X X X!.!.!.S.S.P.I.I.D.P.j.W W a.a.0.v.v.c.u.r.3.4.4.9. .-.| | K D D H H ] { ) A Z Z g g g c - w p 5 t 8 6 # # # # # ",
"IXIXKXKXnXgX-X;X-X$X*XfXfXaXaXaX&XpX.X5X.X X X X!.!.~.S.S.P.I.I.J.C.j.W W a.a.a.v.v.v.r.u.3.4.| 9.| | | | K F D H H ] ) ) A Z Z g g g j j p p 5 q 8 8 # # # # # ",
"IXLXKXSXKXNX:X;X;X-X=XfXfXfXaXaX%XoX X X`. X X X'././.S.S.D.P.P.Z.Z.g.a.a.a.a.w.v.v.v.v.r.3.R T L R L  . .L H H H P A A A A Z S j k k c c y r p 8 8 = $ # # # o ",
"SXZXAXSXSXNX;X;X-X-X=XkXkXkXhXhX%X$XQ.!.Q.`..X.X5X4X|.(.(./.j.j.S.S.g.f.f.y.p.9.v.v.v.v.r.R E E E Y K +.+.+.$.$.P P D n n Z S N m v v v v N y y 8 8 = @ @ @ @ @ ",
"AXZXAXSXSXNX;X;X*X-XsXkXkXhXhXhX%XoX_.!.!. X.X|.4X4X|.(.(.S.S.j.S.S.g.f.f.y.p.9.C.v.v.v.l.8.E E F F K +.+.+.$.{ P P D n j v S S v v v v q y y y 8 8 = @ @ # @ o ",
">X>XVXBXBXSXSXBXsXsXsXsXsXsXpXpX%X%XoX_.Q. X.X|.5X4X|././.k.d.d.S.S.V.C.V.g.i.y.w.q.q.t.t.9.8.8.U U | +. .} } } m D n j j m V S V V N c c - * * 8 8 = 6 = % % % ",
",X,X>XNXNXSXSXSXfXfXsX=X=X&X&X&X%XoX`._._. X.X|.5X2X}.!.!.s.W W S.S.V.J.J.V.g.i.R R R q.9.9.9.9.| 8.|  . . .} ) D G n k k m A V ! ! N c c * $ $ 8 8 8 0 6 = = = ",
",X,X>XNXNXSXKXSXfXfXsX=X=X=X&X&X%X%X XoX_. X.X|.4X2X[.!.!.d.W W S.S.C.J.C.V.g.g.W W R q.9.9.9.9.8.8.| +. .} } } D n j k k Z A A ! V N j j g $ $ = 8 8 0 6 = = = "
};
