/* XPM */
static char *wall16[] = {
/* columns rows colors chars-per-pixel */
"16 16 253 2 ",
"   c #22162F",
".  c #211F2F",
"X  c #221334",
"o  c #221930",
"O  c #221F33",
"+  c #27183B",
"@  c #271F38",
"#  c #271F3B",
"$  c #18302D",
"%  c #1D2032",
"&  c #1E3130",
"*  c #1E3035",
"=  c #20242F",
"-  c #22262F",
";  c #212133",
":  c #222132",
">  c #222133",
",  c #212730",
"<  c #212831",
"1  c #262A37",
"2  c #222C36",
"3  c #212738",
"4  c #23263A",
"5  c #262638",
"6  c #272738",
"7  c #25263A",
"8  c #272C39",
"9  c #2A2A3E",
"0  c #292F3D",
"q  c #243035",
"w  c #243136",
"e  c #23303A",
"r  c #253339",
"t  c #29373F",
"y  c #27393E",
"u  c #2B3A3E",
"i  c #2A1F41",
"p  c #2B2141",
"a  c #2A2B42",
"s  c #2C2943",
"d  c #302848",
"f  c #302F48",
"g  c #293040",
"h  c #2B3041",
"j  c #2B3240",
"k  c #283441",
"l  c #2B3540",
"z  c #2D3445",
"x  c #293841",
"c  c #283D42",
"v  c #2F3A47",
"b  c #2E3C46",
"n  c #2E3249",
"m  c #303947",
"M  c #313048",
"N  c #303648",
"B  c #31354A",
"V  c #303B49",
"C  c #362E50",
"Z  c #353950",
"A  c #363851",
"S  c #363A52",
"D  c #353C51",
"F  c #363C50",
"G  c #353E50",
"H  c #3B3B59",
"J  c #3B3D59",
"K  c #3B3E5A",
"L  c #413E62",
"P  c #2E4146",
"I  c #2E4047",
"U  c #294645",
"Y  c #284049",
"T  c #304247",
"R  c #31434D",
"E  c #32454E",
"W  c #32464F",
"Q  c #314B4D",
"!  c #304A4F",
"~  c #34484E",
"^  c #334351",
"/  c #354351",
"(  c #334550",
")  c #3A4D56",
"_  c #374758",
"`  c #3B4259",
"'  c #3B4359",
"]  c #3B4959",
"[  c #3B4D59",
"{  c #3B4F59",
"}  c #3B4C5A",
"|  c #3E4E5E",
" . c #375055",
".. c #395357",
"X. c #3B5356",
"o. c #3B515B",
"O. c #395659",
"+. c #3E555D",
"@. c #3D555F",
"#. c #3B5F5F",
"$. c #3A605C",
"%. c #3E5060",
"&. c #3E5960",
"*. c #414D5F",
"=. c #404360",
"-. c #404A61",
";. c #414B62",
":. c #404C61",
">. c #464C69",
",. c #405761",
"<. c #445364",
"1. c #405B61",
"2. c #435866",
"3. c #415D65",
"4. c #415F67",
"5. c #465169",
"6. c #46536A",
"7. c #455669",
"8. c #46556A",
"9. c #435A69",
"0. c #455968",
"q. c #445D69",
"w. c #4A5C6E",
"e. c #4B5C6F",
"r. c #4B4F71",
"t. c #495471",
"y. c #4A5E70",
"u. c #505579",
"i. c #505A78",
"p. c #446665",
"a. c #456068",
"s. c #456069",
"d. c #44676A",
"f. c #44676B",
"g. c #4A616E",
"h. c #4A636E",
"j. c #4B666F",
"k. c #47686C",
"l. c #4A6B6F",
"z. c #4A6072",
"x. c #486571",
"c. c #4A6570",
"v. c #4A6771",
"b. c #4B6074",
"n. c #4E6676",
"m. c #476E70",
"M. c #4E6979",
"N. c #506E76",
"B. c #506278",
"V. c #55607F",
"C. c #506878",
"Z. c #506D7A",
"A. c #4B7175",
"S. c #4D7176",
"D. c #4F7A77",
"F. c #497078",
"G. c #497178",
"H. c #4F7078",
"J. c #4B7778",
"K. c #51737E",
"L. c #54707C",
"P. c #55727C",
"I. c #55767F",
"U. c #53797F",
"Y. c #527A7F",
"T. c #527E7E",
"R. c #547D7F",
"E. c #536680",
"W. c #526A81",
"Q. c #556B82",
"!. c #546E81",
"~. c #5A6F89",
"^. c #557081",
"/. c #547181",
"(. c #597687",
"). c #527F80",
"_. c #557F86",
"`. c #5A7984",
"'. c #597A87",
"]. c #5A7E87",
"[. c #5A7189",
"{. c #5B738A",
"}. c #5B7689",
"|. c #5F758E",
" X c #5A7989",
".X c #5F6F92",
"XX c #5F7690",
"oX c #607B8E",
"OX c #607C91",
"+X c #607F90",
"@X c #647D94",
"#X c #528283",
"$X c #578387",
"%X c #598384",
"&X c #588087",
"*X c #588789",
"=X c #5D818C",
"-X c #5B848F",
";X c #5C858F",
":X c #5E898B",
">X c #5B8B8F",
",X c #5C888D",
"<X c #5D8390",
"1X c #5C8991",
"2X c #5F8891",
"3X c #5D8E90",
"4X c #5E9794",
"5X c #648397",
"6X c #628796",
"7X c #638996",
"8X c #648B97",
"9X c #628D96",
"0X c #638198",
"qX c #648099",
"wX c #648299",
"eX c #648799",
"rX c #69839F",
"tX c #648E98",
"yX c #69899C",
"uX c #68899F",
"iX c #69899F",
"pX c #609291",
"aX c #639092",
"sX c #619796",
"dX c #649198",
"fX c #62909C",
"gX c #66939D",
"hX c #65919E",
"jX c #62959F",
"kX c #67959F",
"lX c #68959B",
"zX c #69959F",
"xX c #669E98",
"cX c #619B9D",
"vX c #669B9E",
"bX c #6C84A5",
"nX c #6E86A7",
"mX c #6988A0",
"MX c #6990A0",
"NX c #6B91A6",
"BX c #6D92A5",
"VX c #6B95A5",
"CX c #6B9BA0",
"ZX c #699BA3",
"AX c #6C98A3",
"SX c #6D98A6",
"DX c #6C9BA7",
"FX c #6A9CA6",
"GX c #6D9DA6",
"HX c #67A3A3",
"JX c #6CA4A1",
"KX c #69A3A6",
"LX c #6CA0A5",
/* pixels */
"JXcXsX3X=XP.D.k.k.#. .W P l * $ ",
"JXjX4X,X#X).F.k.k.+.+.Q v u r % ",
"DXcX6X3X).U.A.m.1.$._ Q b y 1 $ ",
"JXjXsX=X#XU.A.x.p.&.X.W v t 8 = ",
"DXcX9X,X#XP.F.x.1.&.) / P l w = ",
"DXjXsX<X'.U.x.l.9.&.) ! l c 8 : ",
"HXjX9X=X%XW.F.w.1.+.] D P 0 w : ",
"NXlXtX<X}.U.x.v.9.] ] W n v 5 = ",
"DXjX6X,X XW.F.j.<.1.K W v 0 5 1 ",
"DXuXjX}.'.P.M.y.k.*.X.A m s 1 o ",
"NXlX@X9X}./.Z.j.5.<.K / B s 5 : ",
"NXuX9X}.'.W.V.x.5.-.] D d l # o ",
"DXuX6X6X}.E.N.t.1.-.` D V p 8   ",
"bXuXqXoX}.P.u.j.>.-.` D d l # : ",
"DXrXqX@X}.V.Z.r.5.*.K D B p 5 o ",
"bXmXqX.X}.W.i.w.5.L ] C B s # X "
};
